<svg viewBox="0 0 50 50" xmlns="http://www.w3.org/2000/svg">
<rect x="3.125" y="3.125" width="43.75" height="43.75" fill="#FB7C33"/>
<rect x="4.6875" y="4.6875" width="40.625" height="40.625" fill="#261302"/>
<path d="M18.7032 29.9385L17.2404 35.7405C17.2102 35.899 17.1496 35.9375 16.966 35.9375H14.2542C14.0727 35.9375 14.0425 35.8741 14.0727 35.65L19.3147 16.4078C19.4055 16.0569 19.4682 15.7536 19.4984 14.796C19.4984 14.6692 19.5589 14.6035 19.6518 14.6035H23.5217C23.6427 14.6035 23.7054 14.6352 23.7357 14.796L29.6173 35.6817C29.6475 35.8402 29.6173 35.9375 29.4638 35.9375H26.4172C26.2659 35.9375 26.173 35.899 26.1428 35.7722L24.6194 29.9385H18.7032ZM23.8523 26.7941L21.6592 17.7004L19.4962 26.7941H23.8523ZM32.1605 16.0411C32.1605 14.796 32.9837 14.0625 34.049 14.0625C35.1769 14.0625 35.9375 14.8616 35.9375 16.0411C35.9375 17.3178 35.1445 18.0196 34.0187 18.0196C32.9211 18.0196 32.1605 17.3178 32.1605 16.0411ZM32.3679 20.4396C32.3679 20.2789 32.4284 20.2155 32.5818 20.2155H35.4794C35.6328 20.2155 35.6933 20.2789 35.6933 20.4396V35.7134C35.6933 35.8741 35.6631 35.9375 35.4794 35.9375H32.6121C32.4284 35.9375 32.3679 35.8424 32.3679 35.6817V20.4396Z" fill="#FB7C33"/>
</svg>
