<svg width="50" height="50" viewBox="0 0 50 50" fill="none" xmlns="http://www.w3.org/2000/svg">
<circle cx="25" cy="25" r="21.875" fill="black"/>
<path fill-rule="evenodd" clip-rule="evenodd" d="M24.1333 9.63742C24.6581 9.28753 25.3419 9.28753 25.8667 9.63742L39.9292 19.0124C40.3639 19.3022 40.625 19.7901 40.625 20.3125V29.6875C40.625 30.2099 40.3639 30.6978 39.9292 30.9876L25.8667 40.3626C25.3419 40.7125 24.6581 40.7125 24.1333 40.3626L10.0708 30.9876C9.6361 30.6978 9.375 30.2099 9.375 29.6875V20.3125C9.375 19.7901 9.6361 19.3022 10.0708 19.0124L24.1333 9.63742ZM12.5 23.2321L15.1519 25L12.5 26.7679V23.2321ZM13.7543 29.6875L23.4375 36.1429V30.5237L17.9688 26.8779L13.7543 29.6875ZM20.7856 25L25 27.8096L29.2144 25L25 22.1904L20.7856 25ZM26.5625 19.4763L32.0312 23.1221L36.2457 20.3125L26.5625 13.8571V19.4763ZM23.4375 13.8571V19.4763L17.9688 23.1221L13.7543 20.3125L23.4375 13.8571ZM37.5 23.2321L34.8481 25L37.5 26.7679V23.2321ZM36.2457 29.6875L32.0312 26.8779L26.5625 30.5237V36.1429L36.2457 29.6875Z" fill="white"/>
</svg>
