<svg viewBox="0 0 50 50" xmlns="http://www.w3.org/2000/svg">
<path d="M43.2729 35.9374C43.5672 35.409 43.75 34.8136 43.75 34.279V15.7208C43.75 15.1861 43.5674 14.5909 43.273 14.0625L25 24.9999L43.2729 35.9374Z" fill="#7F3A86"/>
<path d="M26.6237 46.4739L42.1262 37.1949C42.5728 36.9276 42.9786 36.466 43.2729 35.9374L25 25L6.72705 35.9376C7.02129 36.466 7.4273 36.9277 7.87374 37.1949L23.3762 46.4739C24.2692 47.0085 25.7307 47.0085 26.6237 46.4739Z" fill="#662579"/>
<path d="M43.273 14.0624C42.9787 13.5339 42.5727 13.0723 42.1262 12.805L26.6238 3.52597C25.7308 2.99134 24.2692 2.99134 23.3762 3.52597L7.87377 12.805C6.98064 13.3395 6.25 14.6517 6.25 15.7208V34.279C6.25 34.8137 6.43272 35.409 6.72708 35.9374L25 25L43.273 14.0624Z" fill="#9A5196"/>
<path d="M25.0602 37.5C18.1345 37.5 12.5 31.8925 12.5 25C12.5 18.1075 18.1345 12.5 25.0602 12.5C29.4465 12.5 33.5429 14.8058 35.811 18.534L30.4321 21.7601C29.2956 19.9 27.2498 18.75 25.0602 18.75C21.5972 18.75 18.7801 21.5537 18.7801 25C18.7801 28.4462 21.5972 31.25 25.0602 31.25C27.244 31.25 29.2845 30.1064 30.4229 28.255L35.8133 31.4623C33.5456 35.1928 29.448 37.5 25.0602 37.5Z" fill="white"/>
<path fill-rule="evenodd" clip-rule="evenodd" d="M39.0626 20.3125V21.8709H35.9374V20.3125H34.3751V21.8709H32.8125V23.4375H34.3751V26.5543H32.8125V28.125H34.3751V29.6875H35.9374L35.9375 28.125H39.0626V29.6875H40.6249V28.125H42.1875V26.5625H40.6249V23.4375H42.1875V21.8709H40.6249V20.3125H39.0626ZM39.0626 26.5625V23.4375H35.9374V26.5543L39.0626 26.5625Z" fill="white"/>
</svg>
