<svg width="50" height="50" viewBox="0 0 50 50" fill="none" xmlns="http://www.w3.org/2000/svg">
<path fill-rule="evenodd" clip-rule="evenodd" d="M25 25C25 21.1167 28.148 17.9688 32.0312 17.9688C35.9145 17.9688 39.0625 21.1167 39.0625 25C39.0625 28.8833 35.9145 32.0312 32.0312 32.0312C28.148 32.0312 25 28.8833 25 25Z" fill="#1ABCFE"/>
<path fill-rule="evenodd" clip-rule="evenodd" d="M10.9375 39.0625C10.9375 35.1792 14.0855 32.0312 17.9688 32.0312H25V39.0625C25 42.9458 21.852 46.0938 17.9688 46.0938C14.0855 46.0938 10.9375 42.9458 10.9375 39.0625Z" fill="#0ACF83"/>
<path fill-rule="evenodd" clip-rule="evenodd" d="M25 3.90625V17.9688H32.0312C35.9145 17.9688 39.0625 14.8208 39.0625 10.9375C39.0625 7.05425 35.9145 3.90625 32.0312 3.90625H25Z" fill="#FF7262"/>
<path fill-rule="evenodd" clip-rule="evenodd" d="M10.9375 10.9375C10.9375 14.8208 14.0855 17.9688 17.9688 17.9688H25V3.90625H17.9688C14.0855 3.90625 10.9375 7.05425 10.9375 10.9375Z" fill="#F24E1E"/>
<path fill-rule="evenodd" clip-rule="evenodd" d="M10.9375 25C10.9375 28.8833 14.0855 32.0312 17.9688 32.0312H25V17.9688H17.9688C14.0855 17.9688 10.9375 21.1167 10.9375 25Z" fill="#A259FF"/>
</svg>
