<svg width="50" height="50" viewBox="0 0 76 100" fill="none" xmlns="http://www.w3.org/2000/svg">
<path d="M38.1539 26.377C58.7418 10.394 48.1756 0 48.1756 0C49.748 16.5231 31.1641 20.4245 26.1827 31.7786C22.7835 39.5264 28.5103 46.3105 38.1471 54.8606C37.2951 52.9669 35.9812 51.1268 34.6509 49.2639C30.114 42.9102 25.3876 36.2912 38.1539 26.377Z" fill="#E76F00"/>
<path d="M41.4407 58.3657C41.4407 58.3657 47.6346 53.3683 42.7295 47.8149C26.1019 28.9746 60.9152 20.4245 60.9152 20.4245C39.6602 30.6641 42.8333 36.742 48.1757 44.1255C53.8957 52.043 41.4407 58.3657 41.4407 58.3657Z" fill="#E76F00"/>
<path d="M59.6782 73.2674C78.7572 63.5182 69.9359 54.1492 63.7787 55.4114C62.2695 55.7203 61.5966 55.988 61.5966 55.988C61.5966 55.988 62.1568 55.1249 63.2269 54.7514C75.4078 50.5402 84.7757 67.1717 59.2948 73.7588C59.2948 73.759 59.59 73.4995 59.6782 73.2674Z" fill="#5382A1"/>
<path d="M19.9782 60.9279C8.04099 59.3603 26.5233 55.0435 26.5233 55.0435C26.5233 55.0435 19.3459 54.5675 10.5185 58.7636C0.0805368 63.7286 36.3377 65.9867 55.1062 61.1327C57.0574 59.8225 59.7545 58.6867 59.7545 58.6867C59.7545 58.6867 52.0742 60.0357 44.4253 60.6702C35.0662 61.4414 25.0185 61.5915 19.9782 60.9279Z" fill="#5382A1"/>
<path d="M24.5199 70.2369C17.8633 69.5598 22.2219 66.3872 22.2219 66.3872C4.99683 72.0091 31.8055 78.3843 55.8746 71.4633C53.3162 70.5762 51.6892 68.9542 51.6892 68.9542C39.926 71.1816 33.128 71.1102 24.5199 70.2369Z" fill="#5382A1"/>
<path d="M27.4203 80.3098C20.7686 79.5578 24.6547 77.3356 24.6547 77.3356C9.01856 81.6319 34.1654 90.5079 54.0727 82.1179C50.8121 80.871 48.4774 79.4314 48.4774 79.4314C39.5971 81.0842 35.4786 81.2138 27.4203 80.3098Z" fill="#5382A1"/>
<path d="M69.0583 85.4337C69.0583 85.4337 71.9341 87.7638 65.8912 89.5664C54.4004 92.9894 18.0654 94.0231 7.97168 89.7028C4.34325 88.1505 11.1476 85.9964 13.288 85.5444C15.5202 85.0684 16.7958 85.1571 16.7958 85.1571C12.7606 82.3618 -9.28597 90.6459 5.59722 93.0183C46.1859 99.4911 79.5864 90.1036 69.0583 85.4337Z" fill="#5382A1"/>
<path d="M75.5 90.5247C74.834 99.0459 46.7116 100.838 28.3981 99.6855C16.451 98.9322 14.0566 97.0493 14.0216 97.0218C25.4559 98.8756 44.734 99.213 60.3649 96.3204C74.2197 93.755 75.5 90.5247 75.5 90.5247Z" fill="#5382A1"/>
</svg>
