<svg width="50" height="50" viewBox="0 0 50 50" fill="none" xmlns="http://www.w3.org/2000/svg">
<rect x="3.125" y="3.125" width="43.75" height="43.75" fill="#FFCA28"/>
<path d="M29.6875 39.512L32.9087 37.3806C33.1611 38.1736 34.7596 40.0572 36.7788 40.0572C38.7981 40.0572 39.7356 38.9543 39.7356 38.2232C39.7356 36.2307 37.6737 35.5282 36.6834 35.1908C36.522 35.1358 36.389 35.0905 36.2981 35.0509C36.2515 35.0306 36.181 35.0036 36.0904 34.969C34.989 34.5482 30.9255 32.9957 30.9255 28.4955C30.9255 23.5388 35.7091 22.9688 36.7909 22.9688C37.4986 22.9688 40.9014 23.0555 42.5962 26.2402L39.4712 28.4212C38.7861 27.0333 37.6478 26.5748 36.9471 26.5748C35.2163 26.5748 34.8558 27.8437 34.8558 28.4212C34.8558 30.0418 36.7362 30.7682 38.324 31.3816C38.7394 31.542 39.1347 31.6948 39.4712 31.8537C41.2019 32.6716 43.75 34.0099 43.75 38.2232C43.75 40.3335 41.98 43.75 37.524 43.75C31.5385 43.75 29.9519 40.1563 29.6875 39.512Z" fill="#3E3E3E"/>
<path d="M14.0625 39.9352L17.4198 37.8049C17.6829 38.5976 18.7051 40.0591 20.1883 40.0591C21.6716 40.0591 22.4307 38.5356 22.4307 37.8049V23.4375H26.5597V37.8049C26.6265 39.7866 25.5274 43.75 20.6769 43.75C16.2172 43.75 14.3632 41.0995 14.0625 39.9352Z" fill="#3E3E3E"/>
</svg>
