<svg xmlns="http://www.w3.org/2000/svg" viewBox="0 0 26 28"><path d="M14.1725 0.298721C13.4627 -0.100471 12.5373 -0.0986755 11.8269 0.298721C8.26887 2.26227 4.71082 4.22641 1.15216 6.18906C0.459691 6.55335 -0.00736134 7.29698 8.78288e-05 8.06884V19.9328C-0.0049123 20.7197 0.486223 21.4705 1.19655 21.8298C2.21871 22.3736 3.2118 22.9726 4.25244 23.4802C5.45451 24.0709 6.95843 24.2015 8.17519 23.5855C9.16287 23.075 9.60155 21.9395 9.60033 20.896C9.60829 16.9806 9.60155 13.0651 9.60339 9.14963C9.62686 8.97562 9.49624 8.78963 9.30644 8.79382C8.85174 8.78664 8.39642 8.78963 7.94172 8.79263C7.76987 8.77637 7.60222 8.91907 7.61518 9.09179C7.60905 12.982 7.6164 16.8734 7.6115 20.7642C7.6214 21.3024 7.25782 21.8196 6.73913 22.0014C5.5412 22.4213 2.12198 20.2012 2.12198 20.2012C1.9965 20.1431 1.91682 20.007 1.92912 19.8718C1.92912 15.9576 1.92973 12.0433 1.92912 8.12967C1.91187 7.97191 2.00912 7.8298 2.15402 7.76538C5.70033 5.8134 9.24481 3.85654 12.7911 1.90336C12.9143 1.82115 13.086 1.8214 13.2089 1.90396C16.7552 3.85654 20.3003 5.81161 23.8472 7.76368C23.9926 7.828 24.0857 7.9725 24.0709 8.12967C24.0703 12.0433 24.0721 15.9576 24.0697 19.8713C24.0802 20.0098 24.0086 20.144 23.8793 20.2048C20.3661 22.1462 16.8129 24.025 13.3315 26.0228C13.1796 26.1099 13.0075 26.2086 12.8373 26.1126C11.9218 25.6062 11.0174 25.0801 10.1049 24.5688C10.0057 24.5069 9.87942 24.4803 9.77594 24.5496C9.36676 24.7652 8.98203 24.9398 8.51224 25.1258C7.85236 25.387 7.95783 25.4938 8.55285 25.8405C9.62002 26.4444 10.6889 27.0459 11.756 27.6504C12.4585 28.0888 13.4024 28.12 14.1275 27.7149C17.6861 25.7538 21.2436 23.7904 24.8029 21.8293C25.5113 21.468 26.0049 20.7202 25.9999 19.9327V8.06884C26.0068 7.31264 25.5576 6.58227 24.886 6.21259C21.3156 4.23947 17.7435 2.27064 14.1725 0.298721Z" fill="#8CC84B"/><path d="M19.5419 9.20624C18.1452 8.45903 16.4836 8.41924 14.9315 8.51686C13.8102 8.62766 12.6309 8.93709 11.814 9.74085C10.9761 10.5489 10.7937 11.8537 11.1917 12.9085C11.4769 13.6539 12.1948 14.1386 12.9372 14.395C13.8935 14.7326 14.8979 14.837 15.9026 14.9414C16.819 15.0366 17.7357 15.1319 18.6165 15.4042C18.9763 15.5234 19.3953 15.7058 19.5055 16.0973C19.6073 16.5609 19.4957 17.0998 19.1193 17.4219C17.9237 18.3682 14.5979 18.2232 13.4166 17.4784C12.939 17.1611 12.7332 16.5994 12.6495 16.0641C12.6402 15.8973 12.5059 15.7443 12.3248 15.757C11.8713 15.7516 11.4178 15.7528 10.9643 15.7564C10.8061 15.7431 10.6416 15.8557 10.6329 16.0172C10.5397 18.4689 12.7914 19.5377 14.9039 19.773C16.1108 19.888 17.3442 19.8814 18.5327 19.6224C19.4261 19.419 20.3219 19.0444 20.9369 18.3563C21.6953 17.52 21.8444 16.2749 21.5043 15.2332C21.2443 14.4559 20.5012 13.9573 19.7416 13.7008C18.7086 13.3466 17.4844 13.1562 16.5488 13.0671C15.1889 12.9376 13.5729 12.9905 13.188 12.0969C13.0345 11.629 13.1651 11.048 13.5951 10.7602C14.7328 9.98849 17.0483 10.091 18.2265 10.6675C18.7675 10.9384 19.081 11.4948 19.2104 12.0565C19.2344 12.2215 19.3454 12.3937 19.5364 12.3865C19.9868 12.3955 20.4372 12.3889 20.8875 12.3895C21.0422 12.4003 21.2116 12.313 21.2418 12.1546C21.2227 10.9806 20.6232 9.77885 19.5419 9.20624Z" fill="#8CC84B"/></svg>