<svg width="50" height="50" viewBox="0 0 50 50" fill="none" xmlns="http://www.w3.org/2000/svg">
<path fill-rule="evenodd" clip-rule="evenodd" d="M8.93125 45.6528L3.55724 38.958C2.26427 37.3473 1.5625 35.3666 1.5625 33.3279V9.08592C1.5625 6.03225 4.0056 3.49839 7.15736 3.28321L32.0815 1.58154C33.8922 1.45791 35.6919 1.9392 37.1793 2.94485L45.9363 8.86549C47.5038 9.92529 48.4375 11.6578 48.4375 13.5066V41.0675C48.4375 44.0559 46.0352 46.5301 42.9494 46.7201L15.2865 48.4229C12.824 48.5745 10.4437 47.537 8.93125 45.6528Z" fill="white"/>
<path d="M17.5753 21.2168V20.8994C17.5753 20.0949 18.2196 19.4277 19.0501 19.3722L25.099 18.9684L33.4643 31.2868V20.4753L31.3111 20.1883V20.0375C31.3111 19.2236 31.9702 18.5519 32.8112 18.5089L38.3151 18.2269V19.019C38.3151 19.3908 38.0386 19.7088 37.6596 19.7729L36.3352 19.9969V37.5059L34.6729 38.0775C33.2842 38.5551 31.7382 38.0439 30.9432 36.8443L22.8221 24.5894V36.286L25.3218 36.7644L25.2869 36.9962C25.1779 37.7225 24.5508 38.2718 23.7923 38.3055L17.5753 38.5822C17.4931 37.8012 18.0784 37.1025 18.8859 37.0177L19.7037 36.9318V21.3364L17.5753 21.2168Z" fill="black"/>
<path fill-rule="evenodd" clip-rule="evenodd" d="M32.3046 4.63569L7.38055 6.33736C5.88761 6.43929 4.73035 7.63954 4.73035 9.08601V33.328C4.73035 34.6871 5.19819 36.0076 6.06018 37.0814L11.4342 43.7762C12.3031 44.8586 13.6704 45.4546 15.085 45.3675L42.748 43.6647C44.1658 43.5774 45.2696 42.4406 45.2696 41.0676V13.5067C45.2696 12.6573 44.8406 11.8613 44.1204 11.3743L35.3633 5.45368C34.4709 4.85029 33.3911 4.56151 32.3046 4.63569ZM8.61648 9.46415C8.26983 9.2075 8.4348 8.67282 8.87028 8.64159L32.4723 6.9487C33.2243 6.89476 33.9715 7.10184 34.5797 7.53271L39.3153 10.8878C39.495 11.0152 39.4107 11.2901 39.1881 11.3022L14.1937 12.6616C13.4373 12.7027 12.6906 12.4805 12.0892 12.0352L8.61648 9.46415ZM13.0213 16.9231C13.0213 16.1111 13.6773 15.4403 14.5162 15.3947L40.9424 13.9555C41.7599 13.911 42.4481 14.5397 42.4481 15.3311V39.1958C42.4481 40.0063 41.7945 40.6764 40.9573 40.724L14.6984 42.2181C13.7886 42.2699 13.0213 41.5707 13.0213 40.6899V16.9231Z" fill="black"/>
</svg>
