<svg  viewBox="0 0 50 50" xmlns="http://www.w3.org/2000/svg">
<path fill-rule="evenodd" clip-rule="evenodd" d="M20.3381 3.125C16.9052 3.125 14.1223 5.81958 14.1223 9.14352V13.3102H24.8805V14.4676H9.34084C5.90793 14.4676 3.125 17.1622 3.125 20.4861L3.125 29.5139C3.125 32.8378 5.90793 35.5324 9.34084 35.5324H12.9269V30.4398C12.9269 27.1159 15.7098 24.4213 19.1427 24.4213H30.6182C33.5229 24.4213 35.8777 22.1413 35.8777 19.3287V9.14352C35.8777 5.81958 33.0948 3.125 29.6619 3.125H20.3381ZM18.9037 10.5324C20.092 10.5324 21.0553 9.59966 21.0553 8.44907C21.0553 7.29848 20.092 6.36574 18.9037 6.36574C17.7154 6.36574 16.752 7.29848 16.752 8.44907C16.752 9.59966 17.7154 10.5324 18.9037 10.5324Z" fill="url(#paint0_linear_6_26034)"/>
<path fill-rule="evenodd" clip-rule="evenodd" d="M29.6619 46.8749C33.0948 46.8749 35.8778 44.1803 35.8778 40.8564V36.6897L25.1196 36.6897L25.1196 35.5323L40.6592 35.5323C44.0921 35.5323 46.875 32.8378 46.875 29.5138V20.486C46.875 17.1621 44.0921 14.4675 40.6592 14.4675L37.0731 14.4675V19.5601C37.0731 22.8841 34.2902 25.5786 30.8573 25.5786L19.3819 25.5786C16.4771 25.5786 14.1223 27.8587 14.1223 30.6712L14.1223 40.8564C14.1223 44.1803 16.9052 46.8749 20.3382 46.8749H29.6619ZM31.0963 39.4675C29.908 39.4675 28.9447 40.4003 28.9447 41.5508C28.9447 42.7014 29.908 43.6342 31.0963 43.6342C32.2847 43.6342 33.248 42.7014 33.248 41.5508C33.248 40.4003 32.2847 39.4675 31.0963 39.4675Z" fill="url(#paint1_linear_6_26034)"/>
<defs>
<linearGradient id="paint0_linear_6_26034" x1="19.5014" y1="3.125" x2="19.5014" y2="35.5324" gradientUnits="userSpaceOnUse">
<stop stop-color="#327EBD"/>
<stop offset="1" stop-color="#1565A7"/>
</linearGradient>
<linearGradient id="paint1_linear_6_26034" x1="30.4987" y1="14.4675" x2="30.4987" y2="46.8749" gradientUnits="userSpaceOnUse">
<stop stop-color="#FFDA4B"/>
<stop offset="1" stop-color="#F9C600"/>
</linearGradient>
</defs>
</svg>
