<svg xmlns="http://www.w3.org/2000/svg" viewBox="0 0 30 26"><path d="M17.6789 12.9759C17.6789 11.5415 16.4796 10.3785 15 10.3785C13.5206 10.3785 12.3211 11.5415 12.3211 12.9759C12.3211 14.4105 13.5206 15.5734 15 15.5734C16.4796 15.5734 17.6789 14.4105 17.6789 12.9759Z" fill="#53C1DE"/><path fill-rule="evenodd" clip-rule="evenodd" d="M23.7004 8.1537C24.2661 5.92478 24.9772 1.79148 22.4704 0.390161C19.9753 -1.00505 16.7284 1.66843 15.0139 3.27318C13.3044 1.68442 9.96635 -0.977634 7.46163 0.428136C4.96751 1.82803 5.73664 5.8928 6.3149 8.13568C3.98831 8.77641 0 10.1564 0 12.9759C0 15.7874 3.98416 17.2888 6.29698 17.9289C5.71658 20.1842 4.98596 24.1909 7.48327 25.5877C9.99727 26.9932 13.325 24.3945 15.0554 22.7722C16.7809 24.3864 19.9966 27.0021 22.4922 25.6014C24.9956 24.1963 24.3436 20.1184 23.7653 17.8625C26.0073 17.221 30 15.7523 30 12.9759C30 10.1835 25.9903 8.79228 23.7004 8.1537ZM23.4162 16.667C23.0365 15.5016 22.524 14.2623 21.8971 12.9821C22.4955 11.7321 22.9881 10.5088 23.3572 9.35089C25.0359 9.82277 28.7185 10.9013 28.7185 12.9759C28.7185 15.07 25.1846 16.1587 23.4162 16.667ZM21.85 24.526C19.988 25.571 17.2221 23.0696 15.9478 21.8809C16.7932 20.9844 17.638 19.9422 18.4625 18.7849C19.9129 18.6602 21.283 18.4562 22.5256 18.1777C22.9326 19.7734 23.7202 23.4763 21.85 24.526ZM8.12362 24.5111C6.26143 23.47 7.11258 19.8946 7.53957 18.2333C8.76834 18.4969 10.1286 18.6865 11.5824 18.8008C12.4123 19.9332 13.2816 20.9741 14.1576 21.8857C13.0753 22.9008 9.99451 25.557 8.12362 24.5111ZM1.28149 12.9759C1.28149 10.874 4.94207 9.80332 6.65904 9.33261C7.03451 10.5165 7.52695 11.7544 8.12123 13.0062C7.51925 14.2766 7.01977 15.5341 6.64085 16.732C5.00369 16.2776 1.28149 15.0791 1.28149 12.9759ZM8.1037 1.50354C9.97351 0.454164 12.8747 3.00983 14.1159 4.16013C13.2444 5.06754 12.3831 6.1006 11.5603 7.22646C10.1494 7.35326 8.79875 7.55691 7.55709 7.82969C7.09125 6.02071 6.23592 2.55179 8.1037 1.50354ZM19.3793 8.57709C20.3365 8.69424 21.2536 8.85 22.1147 9.04065C21.8562 9.84405 21.534 10.6841 21.1545 11.5453C20.6044 10.5333 20.0139 9.5416 19.3793 8.57709ZM15.0143 5.0481C15.6054 5.66897 16.1974 6.3623 16.7798 7.11447C15.5985 7.06035 14.4153 7.06009 13.234 7.1137C13.8169 6.36848 14.414 5.67618 15.0143 5.0481ZM8.8565 11.5444C8.48329 10.6862 8.16398 9.84237 7.90322 9.02752C8.75918 8.84176 9.67197 8.68999 10.623 8.57478C9.98662 9.53716 9.3971 10.5285 8.8565 11.5444ZM10.6503 17.4657C9.66786 17.3594 8.74126 17.2153 7.88556 17.0347C8.15044 16.2055 8.47678 15.3435 8.85796 14.4668C9.40603 15.4933 10.0045 16.4942 10.6503 17.4657ZM15.0498 20.9915C14.4424 20.356 13.8365 19.6531 13.2448 18.8971C14.4328 18.9423 15.6231 18.9424 16.811 18.891C16.2268 19.6608 15.6369 20.3647 15.0498 20.9915ZM21.1667 14.4222C21.5677 15.3084 21.9057 16.1657 22.1742 16.9809C21.3043 17.1734 20.3652 17.3284 19.3757 17.4435C20.015 16.4607 20.6149 15.4536 21.1667 14.4222ZM17.7473 17.5941C15.9301 17.72 14.1016 17.7186 12.2838 17.6044C11.2509 16.1415 10.3314 14.603 9.53774 13.0058C10.3276 11.4119 11.2404 9.87643 12.2684 8.41579C14.0875 8.28246 15.9178 8.28215 17.7369 8.41657C18.7561 9.87712 19.6675 11.4086 20.4757 12.9881C19.6771 14.5812 18.7595 16.1198 17.7473 17.5941ZM21.8303 1.4666C23.7006 2.51254 22.8681 6.22726 22.4595 7.84256C21.2149 7.56412 19.8633 7.35687 18.4483 7.22814C17.6239 6.09004 16.7698 5.05518 15.9124 4.15949C17.1695 2.98441 19.9781 0.430888 21.8303 1.4666Z" fill="#53C1DE"/></svg>