<svg width="50" height="50" viewBox="0 0 50 50" fill="none" xmlns="http://www.w3.org/2000/svg">
<path d="M34.0419 33.6814C35.7717 33.5053 37.084 32.0393 37.0244 30.2798C36.9648 28.5205 35.4734 27.1129 33.684 27.1129H33.5648C31.7154 27.1716 30.2839 28.6964 30.3436 30.5143C30.4033 31.3941 30.761 32.1564 31.2979 32.6842C29.2698 36.6136 26.168 39.4872 21.5153 41.8917C18.3538 43.5338 15.0731 44.1203 11.7924 43.7099C9.10809 43.3579 7.02032 42.1851 5.70782 40.2496C3.79913 37.376 3.62024 34.2677 5.23083 31.1595C6.36426 28.9309 8.15356 27.2888 9.28699 26.4678C9.0484 25.7054 8.69043 24.4152 8.51153 23.477C-0.13782 29.6348 0.757017 37.9625 3.38165 41.8917C5.35003 44.8242 9.34668 46.6422 13.7608 46.6422C14.9537 46.6422 16.1467 46.5248 17.3398 46.2317C24.9751 44.7655 30.7612 40.3083 34.0419 33.6814ZM44.5405 26.4093C40.007 21.1897 33.3262 18.3161 25.6909 18.3161H24.7365C24.1996 17.2605 23.0662 16.5566 21.8136 16.5566H21.6942C19.8452 16.6153 18.4137 18.14 18.4732 19.9582C18.5329 21.7175 20.0241 23.125 21.8136 23.125H21.9328C23.2451 23.0664 24.3785 22.2453 24.8557 21.131H25.9294C30.463 21.131 34.7577 22.4212 38.6351 24.943C41.6176 26.8784 43.765 29.4002 44.9579 32.4497C45.972 34.9128 45.9123 37.3173 44.8386 39.37C43.1685 42.4782 40.3649 44.179 36.6666 44.179C34.2805 44.179 32.0139 43.4751 30.8207 42.9473C30.1647 43.5338 28.9716 44.4721 28.1364 45.0587C30.7015 46.2315 33.3262 46.8767 35.8314 46.8767C41.5579 46.8767 45.7931 43.7684 47.4037 40.6602C49.1335 37.2586 49.0141 31.3941 44.5405 26.4093ZM14.238 34.6781C14.2977 36.4376 15.7889 37.8449 17.5784 37.8449H17.6978C19.5469 37.7864 20.9785 36.2615 20.9188 34.4435C20.8593 32.6841 19.3679 31.2767 17.5784 31.2767H17.4592C17.3398 31.2767 17.1607 31.2767 17.0417 31.3352C14.5959 27.3473 13.5819 23.0077 13.9399 18.3159C14.1783 14.7971 15.3714 11.7475 17.4592 9.22565C19.189 7.05574 22.5294 6.00012 24.7962 5.94162C31.119 5.82425 33.8032 13.5655 33.9822 16.6738C34.7577 16.8497 36.07 17.2603 36.9648 17.5535C36.2489 8.05303 30.2839 3.12671 24.5576 3.12671C19.189 3.12671 14.238 6.93873 12.2694 12.5687C9.52557 20.0754 11.3151 27.2888 14.6555 32.9775C14.3574 33.3879 14.1783 34.0331 14.238 34.6783V34.6781Z" fill="#764ABC"/>
</svg>
