<svg width="50" height="50" viewBox="0 0 50 50" fill="none" xmlns="http://www.w3.org/2000/svg">
<path d="M34.5869 39.4868C29.4297 42.4532 22.3386 42.758 15.2044 39.7134C9.42792 37.2663 4.63498 32.9828 1.5625 28.0887C3.0373 29.3122 4.75786 30.2915 6.60131 31.1475C13.9689 34.586 21.335 34.3505 26.5187 31.1563C19.1447 25.5271 12.8692 18.176 8.19921 12.1804C7.21561 11.2014 6.47821 9.9776 5.74081 8.87631C11.3941 14.0158 20.3662 20.5011 23.5609 22.3375C16.8024 15.2394 10.7798 6.42922 11.0252 6.67349C21.7176 17.4422 31.673 23.561 31.673 23.561C32.0023 23.7459 32.2565 23.8999 32.4609 24.0374C32.6764 23.4917 32.8654 22.925 33.0245 22.3375C34.7451 16.0965 32.7792 8.99844 28.4772 3.125C38.4315 9.12113 44.3314 20.3789 41.8727 29.802C41.8086 30.0561 41.7389 30.307 41.6638 30.5535C46.5791 36.6723 45.3138 43.2631 44.6994 42.0396C42.0329 36.8439 37.0965 38.4327 34.5869 39.4868Z" fill="url(#paint0_linear_6_26032)"/>
<defs>
<linearGradient id="paint0_linear_6_26032" x1="23.4536" y1="3.125" x2="23.4536" y2="42.1895" gradientUnits="userSpaceOnUse">
<stop stop-color="#F88A36"/>
<stop offset="1" stop-color="#FD2020"/>
</linearGradient>
</defs>
</svg>
