<svg  viewBox="0 0 24 24" xmlns="http://www.w3.org/2000/svg">
<path d="M12 23.4137C12 23.7453 12.2689 24.0156 12.5999 23.9993C18.9486 23.6865 24 18.437 24 12.007C24 5.37573 18.6274 0 12 0C5.37258 0 0 5.37573 0 12.007C0 17.5604 3.76787 22.2332 8.8852 23.6056C9.2516 23.7039 9.6 23.419 9.6 23.0394V14.4084H8.4C7.73726 14.4084 7.2 13.8709 7.2 13.2077C7.2 12.5446 7.73726 12.007 8.4 12.007H9.6V9.60562C9.6 7.61623 11.2118 6.00351 13.2 6.00351H14.4C15.0627 6.00351 15.6 6.54108 15.6 7.20421C15.6 7.86734 15.0627 8.40492 14.4 8.40492H13.2C12.5373 8.40492 12 8.94249 12 9.60562V12.007H14.4C15.0627 12.007 15.6 12.5446 15.6 13.2077C15.6 13.8709 15.0627 14.4084 14.4 14.4084H12V23.4137Z" fill="white"/>
</svg>
