<svg  viewBox="0 0 24 24" xmlns="http://www.w3.org/2000/svg">
<path fill-rule="evenodd" clip-rule="evenodd" d="M3.6 0C1.61178 0 0 1.61177 0 3.6V20.4C0 22.3882 1.61177 24 3.6 24H20.4C22.3882 24 24 22.3882 24 20.4V3.6C24 1.61178 22.3882 0 20.4 0H3.6ZM6 7.2C6.66274 7.2 7.2 6.66274 7.2 6C7.2 5.33726 6.66274 4.8 6 4.8C5.33726 4.8 4.8 5.33726 4.8 6C4.8 6.66274 5.33726 7.2 6 7.2ZM6 9.6C5.33726 9.6 4.8 10.1373 4.8 10.8V18C4.8 18.6627 5.33726 19.2 6 19.2C6.66274 19.2 7.2 18.6627 7.2 18V10.8C7.2 10.1373 6.66274 9.6 6 9.6ZM12 14.4C12 13.0745 13.0745 12 14.4 12C15.7255 12 16.8 13.0745 16.8 14.4V18C16.8 18.6627 17.3373 19.2 18 19.2C18.6627 19.2 19.2 18.6627 19.2 18V14.4C19.2 11.749 17.051 9.6 14.4 9.6C13.4815 9.6 12.6232 9.858 11.8937 10.3055C11.7053 9.88944 11.2864 9.6 10.8 9.6C10.1373 9.6 9.6 10.1373 9.6 10.8V18C9.6 18.6627 10.1373 19.2 10.8 19.2C11.4627 19.2 12 18.6627 12 18V14.4Z" fill="white"/>
</svg>
