<svg xmlns="http://www.w3.org/2000/svg"  viewBox="0 0 36 43"><path fill="#070707" d="M30.035 22.74c-.019-3.503 1.566-6.147 4.772-8.094-1.794-2.567-4.504-3.98-8.083-4.257-3.389-.267-7.092 1.976-8.447 1.976-1.432 0-4.715-1.88-7.292-1.88C5.66 10.57 0 14.732 0 23.198c0 2.5.458 5.083 1.374 7.75C2.596 34.45 7.005 43.04 11.606 42.896c2.405-.058 4.104-1.709 7.234-1.709 3.035 0 4.61 1.709 7.292 1.709 4.638-.067 8.628-7.874 9.792-11.386-6.223-2.93-5.889-8.59-5.889-8.772ZM24.633 7.067C27.24 3.976 27 1.16 26.924.148c-2.3.134-4.963 1.566-6.48 3.331-1.67 1.89-2.654 4.228-2.444 6.863 2.491.19 4.763-1.088 6.633-3.274Z"/></svg>
