<svg xmlns="http://www.w3.org/2000/svg" viewBox="0 0 34 34"><path fill-rule="evenodd" d="M4.5.333A4.167 4.167 0 0 0 .333 4.5v4.166a1.667 1.667 0 1 0 3.334 0V4.5c0-.46.373-.834.833-.834h4.167a1.667 1.667 0 0 0 0-3.333H4.5Zm25 0A4.167 4.167 0 0 1 33.667 4.5v4.166a1.667 1.667 0 1 1-3.334 0V4.5a.833.833 0 0 0-.833-.834h-4.166a1.667 1.667 0 1 1 0-3.333H29.5ZM.333 29.5A4.167 4.167 0 0 0 4.5 33.666h4.167a1.667 1.667 0 1 0 0-3.333H4.5a.833.833 0 0 1-.833-.833v-4.167a1.667 1.667 0 1 0-3.334 0V29.5ZM29.5 33.666a4.167 4.167 0 0 0 4.167-4.166v-4.167a1.667 1.667 0 1 0-3.334 0V29.5c0 .46-.373.833-.833.833h-4.166a1.667 1.667 0 1 0 0 3.333H29.5Z" clip-rule="evenodd"/></svg>