<svg xmlns="http://www.w3.org/2000/svg" viewBox="0 0 30 34"><path fill-rule="evenodd" d="M5 33.667h20a5 5 0 0 0 5-5V10.966a5 5 0 0 0-1.258-3.317L25.995 4.55l-2.138-2.48A5 5 0 0 0 20.07.333H5a5 5 0 0 0-5 5v23.334a5 5 0 0 0 5 5ZM21.332 4.245l2.153 2.499 2.762 3.116c.27.305.42.698.42 1.106v17.701c0 .92-.747 1.666-1.667 1.666H5c-.92 0-1.667-.746-1.667-1.666V5.333c0-.92.747-1.666 1.667-1.666h15.07c.484 0 .945.211 1.262.579Zm-.87 12.138a1.667 1.667 0 0 0-2.59-2.099l-4.159 5.133-1.628-1.851a1.667 1.667 0 0 0-2.503 2.202l2.932 3.333a1.667 1.667 0 0 0 2.546-.052l5.402-6.666Z" clip-rule="evenodd"/></svg>