<svg xmlns="http://www.w3.org/2000/svg" viewBox="0 0 8.63 14.33"><path d="m4.36 0-.54 1.86.04 4.54-1 2.46-.99-.77.88-1.16L0 .99l.1 10.38 2.11-.01 2.09 2.97 2.26-2.95 2.07-.01V1.07L6.06 6.91 6.9 8.1l-1.08.86L4.8 6.42l.08-4.53zM.8 4.58l1.16 2.31-.74.92H.8Zm7.1.04.03 3.19h-.4l-.65-.94zM4.34 7.44l.88 1.97-.86.64-.86-.69zM.81 8.52l.46-.01 1.34 1.06-.4 1.08H.82Zm6.7 0h.4v2.13h-.47l-1.02-.01-.32-1zm-4.25 1.55.75.58-1.08.34zm2.25.03.26.96-1.06-.37zM3.2 11.37l-.27-.38L4 10.65v1.85zm1.51-.68 1.06.37-.24.3-.82 1.12z"/></svg>