<svg width="50" height="50" viewBox="0 0 50 50" fill="none" xmlns="http://www.w3.org/2000/svg">
<path fill-rule="evenodd" clip-rule="evenodd" d="M24.022 0.0195496C24.0084 0.0417119 23.944 0.0598413 23.8791 0.0598413C23.6355 0.0598413 22.8174 0.309312 22.2738 0.549333C22.0157 0.663294 22.0036 0.669401 21.7171 0.828839C21.5904 0.899321 21.4522 0.975717 21.4099 0.99861C21.2035 1.11034 20.5898 1.5456 20.2521 1.81977C19.498 2.43213 18.5954 3.41131 17.8902 4.38215C17.6251 4.74696 16.9751 5.72667 16.9751 5.76128C16.9751 5.77242 16.9029 5.89848 16.8147 6.04144C16.6089 6.37506 15.6781 8.24235 15.5172 8.64438C15.4495 8.81338 15.3793 8.98622 15.361 9.02847C15.3428 9.07073 15.2316 9.34727 15.114 9.64303C14.9964 9.93878 14.8832 10.2108 14.8625 10.2474C14.8418 10.2841 14.8249 10.3623 14.8249 10.4211C14.8249 10.536 14.8058 10.5291 15.4969 10.6615C15.5813 10.6777 15.7973 10.7202 15.9768 10.7561C16.1563 10.7919 16.3809 10.8355 16.476 10.8529C16.571 10.8703 16.7956 10.9136 16.9751 10.949C17.1546 10.9845 17.4224 11.0284 17.5703 11.0466C17.7181 11.0648 18.0118 11.1068 18.223 11.1399C18.6789 11.2113 19.0148 11.2566 19.5093 11.3132C19.7099 11.3362 20.0132 11.3717 20.1832 11.392C20.3532 11.4124 20.5951 11.4301 20.7208 11.4314C20.8464 11.4326 21.0356 11.4496 21.1411 11.4692C21.2467 11.4887 21.7219 11.5215 22.1971 11.542C22.6722 11.5626 23.2915 11.5915 23.5733 11.6064C23.9937 11.6285 24.0918 11.6236 24.1198 11.5792C24.1395 11.5481 24.1544 9.08582 24.1547 5.79715C24.1552 0.912649 24.1473 0.0626067 24.1011 0.024274C24.064 -0.00649207 24.039 -0.00795168 24.022 0.0195496ZM25.8908 0.0291136C25.8346 0.0853452 25.8241 11.4906 25.8802 11.5792C25.9082 11.6236 26.0063 11.6285 26.4267 11.6064C26.7085 11.5915 27.3278 11.5626 27.8029 11.542C28.2781 11.5215 28.7533 11.4887 28.8589 11.4692C28.9644 11.4496 29.1536 11.4326 29.2792 11.4314C29.4049 11.4301 29.6468 11.4124 29.8168 11.392C29.9868 11.3717 30.2901 11.3362 30.4907 11.3132C30.9852 11.2566 31.3211 11.2113 31.777 11.1399C31.9882 11.1068 32.2819 11.0648 32.4297 11.0466C32.5776 11.0284 32.8454 10.9845 33.0249 10.949C33.2044 10.9136 33.429 10.8703 33.524 10.8529C33.6191 10.8355 33.8437 10.7919 34.0232 10.7561C34.2027 10.7202 34.4187 10.6777 34.5031 10.6615C35.1942 10.5291 35.1751 10.536 35.1751 10.4211C35.1751 10.3623 35.1582 10.2841 35.1375 10.2474C35.1168 10.2108 35.0036 9.93878 34.886 9.64303C34.7684 9.34727 34.6572 9.07073 34.639 9.02847C34.6207 8.98622 34.5504 8.81338 34.4828 8.64438C34.3219 8.24235 33.3911 6.37506 33.1853 6.04144C33.0971 5.89848 33.0249 5.77242 33.0249 5.76128C33.0249 5.72667 32.3749 4.74696 32.1098 4.38215C31.4046 3.41131 30.502 2.43213 29.7478 1.81977C29.4102 1.5456 28.7965 1.11034 28.5901 0.99861C28.5478 0.975717 28.4096 0.899321 28.2829 0.828839C27.9964 0.669401 27.9843 0.663294 27.7262 0.549333C27.1886 0.311962 26.3645 0.0598413 26.1263 0.0598413C26.0644 0.0598413 25.9964 0.042557 25.9753 0.0214318C25.9497 -0.0041874 25.9215 -0.00161408 25.8908 0.0291136ZM18.5302 0.788279C18.4879 0.805793 18.3411 0.850233 18.2038 0.88703C17.903 0.967613 17.4174 1.11814 17.1287 1.22027C17.0126 1.26137 16.883 1.3037 16.8407 1.31437C16.7985 1.32505 16.7294 1.34779 16.6871 1.36492C16.6449 1.38205 16.524 1.42515 16.4184 1.46071C16.3128 1.49628 16.1918 1.54034 16.1496 1.55862C16.1074 1.5769 15.7272 1.73415 15.3049 1.90811C14.6406 2.1817 13.4267 2.76798 12.8091 3.11344C11.37 3.91847 9.93415 4.92268 8.67163 6.00718C7.94859 6.62826 6.95362 7.58923 6.95362 7.66647C6.95362 7.72316 7.0713 7.79691 7.46237 7.98535C8.08609 8.28583 8.498 8.4783 8.70066 8.56399C8.78513 8.59967 8.88423 8.64534 8.9209 8.66543C8.95757 8.68555 9.00518 8.70199 9.02669 8.70199C9.04819 8.70199 9.15535 8.7452 9.26478 8.79802C9.37421 8.85083 9.47735 8.89404 9.49393 8.89404C9.51052 8.89404 9.61527 8.93564 9.72673 8.98649C9.83816 9.03735 10.0157 9.10841 10.1213 9.14439C10.3514 9.22275 10.3241 9.21315 10.8509 9.40116C11.3186 9.56813 12.0656 9.80535 12.5211 9.93156C12.6161 9.95791 12.7697 10.0064 12.8624 10.0393C13.0242 10.0968 13.0334 10.096 13.096 10.0188C13.1317 9.97462 13.1995 9.82014 13.2466 9.67552C13.2937 9.53091 13.3471 9.378 13.3655 9.33575C13.3838 9.2935 13.4342 9.15189 13.4775 9.02102C13.7225 8.28072 14.5038 6.59158 14.945 5.84824C15.069 5.63937 15.1705 5.46172 15.1705 5.4535C15.1705 5.42581 15.4853 4.92253 15.8175 4.41933C16.5243 3.34824 17.4489 2.20037 18.3291 1.30093C18.5811 1.04347 18.7759 0.814435 18.762 0.792004C18.7327 0.74453 18.6393 0.743032 18.5302 0.788279ZM31.2369 0.793771C31.2218 0.818123 31.3818 1.01098 31.6113 1.24508C32.3049 1.95278 32.8826 2.63163 33.528 3.4975C33.9437 4.05532 34.6099 5.05712 34.8293 5.45439C34.8987 5.58003 35.0351 5.82201 35.1325 5.99212C35.3057 6.29483 35.8289 7.3413 35.9592 7.64573C36.0799 7.9277 36.1067 7.99088 36.138 8.06824C36.155 8.11049 36.2153 8.24876 36.2719 8.37551C36.3285 8.50226 36.3883 8.64918 36.4049 8.70199C36.4215 8.75481 36.5071 8.99679 36.5953 9.23973C36.6834 9.48267 36.7824 9.76256 36.8152 9.86173C36.848 9.96091 36.9011 10.0522 36.9333 10.0645C36.9654 10.0768 37.0711 10.0625 37.1681 10.0327C37.4009 9.96098 37.9396 9.80277 38.2276 9.72142C38.3543 9.68562 38.4925 9.64184 38.5348 9.62409C38.577 9.60635 38.6461 9.58292 38.6884 9.57201C38.7306 9.5611 38.912 9.49834 39.0915 9.43254C39.271 9.36675 39.5129 9.28102 39.6291 9.24203C39.7452 9.20308 39.8921 9.14989 39.9555 9.12385C40.0188 9.0978 40.1138 9.05959 40.1666 9.03885C40.2807 8.9941 40.4561 8.92101 40.589 8.86278C40.6418 8.83965 40.8833 8.74029 41.1256 8.64192C41.48 8.49812 42.7164 7.92332 42.9696 7.78466C43.1405 7.69109 42.9859 7.5146 41.7025 6.33789C40.9222 5.62243 39.7621 4.72718 38.7844 4.08597C37.8253 3.45698 37.1332 3.0617 36.135 2.57283C35.7232 2.37118 35.3596 2.19199 35.3271 2.17471C35.2945 2.15743 35.0267 2.04439 34.7319 1.92347C34.4371 1.8026 34.1441 1.68122 34.0808 1.65376C34.0174 1.62634 33.8878 1.57679 33.7928 1.54376C33.6978 1.51069 33.4732 1.4306 33.2937 1.36577C32.792 1.18459 32.7254 1.16323 31.9114 0.922635C31.7319 0.869592 31.5319 0.809289 31.4671 0.788701C31.3153 0.740459 31.2692 0.741458 31.2369 0.793771ZM5.07226 9.85889C4.73096 10.3051 4.29323 10.9194 4.0996 11.2242C3.90593 11.5289 3.65685 11.9201 3.54608 12.0934C3.4353 12.2667 3.30825 12.4777 3.26375 12.5622C2.88842 13.275 2.73883 13.5568 2.62153 13.7721C2.4348 14.1147 2.34211 14.3097 2.15585 14.7515C2.13804 14.7938 2.09707 14.8888 2.06474 14.9628C1.69379 15.8119 1.28268 16.8987 1.15666 17.3633C1.13946 17.4267 1.09622 17.5564 1.06059 17.6514C0.992244 17.8338 0.898249 18.1562 0.847834 18.3812C0.819383 18.5083 0.773844 18.6898 0.578099 19.4567C0.4636 19.9051 0.353786 20.484 0.27204 21.0699C0.25288 21.2072 0.209031 21.4837 0.174551 21.6844C0.0983719 22.1282 0.0410843 22.8183 0.0175856 23.5761L0 24.1426H5.35597C8.42125 24.1426 10.7209 24.1281 10.733 24.1086C10.7445 24.0899 10.773 23.619 10.7963 23.062C10.8574 21.6026 10.8952 20.9729 10.9607 20.3209C10.9926 20.004 11.0291 19.6324 11.042 19.4951C11.0549 19.3578 11.0894 19.0726 11.1186 18.8613C11.1479 18.6501 11.1914 18.3217 11.2153 18.1315C11.2393 17.9414 11.2847 17.6303 11.3162 17.4402C11.3478 17.25 11.3909 16.9821 11.412 16.8448C11.433 16.7075 11.4757 16.4655 11.5066 16.3071C11.5376 16.1486 11.5808 15.924 11.6027 15.8078C11.711 15.2323 11.9085 14.3018 11.9858 14.0025C12.005 13.9286 12.0477 13.7471 12.0807 13.5992C12.1637 13.2279 12.1696 13.2043 12.2378 12.9655C12.271 12.8493 12.3127 12.6937 12.3305 12.6198C12.3482 12.5458 12.3979 12.3643 12.4408 12.2165C12.4838 12.0686 12.5194 11.893 12.52 11.8263C12.521 11.7117 12.5091 11.7015 12.3003 11.6394C12.1789 11.6033 12.0104 11.5516 11.926 11.5246C11.8415 11.4976 11.6946 11.4541 11.5996 11.4281C11.5046 11.402 11.3577 11.3577 11.2732 11.3296C11.1888 11.3014 11.0333 11.2527 10.9277 11.2212C10.8221 11.1898 10.5975 11.114 10.4285 11.0526C9.78425 10.8187 9.53978 10.7311 9.3726 10.6739C9.27757 10.6414 9.13934 10.5889 9.06543 10.5571C8.99151 10.5254 8.89648 10.4848 8.85425 10.467C8.81201 10.4492 8.69106 10.3965 8.58547 10.35C8.47988 10.3034 8.28118 10.2184 8.14391 10.1612C7.66292 9.96056 7.38892 9.83189 6.6112 9.44138C6.17993 9.22486 5.79688 9.04768 5.75998 9.04768C5.71782 9.04768 5.46218 9.34923 5.07226 9.85889ZM43.3714 9.44499C42.9483 9.65954 42.5077 9.87606 42.3923 9.92614C42.2769 9.97623 42.0928 10.0583 41.9833 10.1086C41.8737 10.1588 41.7755 10.2 41.7652 10.2C41.7548 10.2 41.6284 10.2529 41.4844 10.3176C41.3404 10.3823 41.188 10.4497 41.1458 10.4673C41.1035 10.485 41.0085 10.5254 40.9346 10.5571C40.8607 10.5889 40.7224 10.6414 40.6274 10.6739C40.4602 10.7311 40.2157 10.8187 39.5715 11.0526C39.4025 11.114 39.1779 11.1898 39.0723 11.2212C38.9667 11.2527 38.8112 11.3014 38.7268 11.3296C38.6423 11.3577 38.4954 11.402 38.4004 11.4281C38.3054 11.4541 38.1585 11.4976 38.074 11.5246C37.9896 11.5516 37.8211 11.6033 37.6997 11.6394C37.4909 11.7015 37.479 11.7117 37.48 11.8263C37.4806 11.893 37.5162 12.0686 37.5592 12.2165C37.6021 12.3643 37.6518 12.5458 37.6695 12.6198C37.6873 12.6937 37.729 12.8493 37.7622 12.9655C37.8304 13.2043 37.8363 13.2279 37.9193 13.5992C37.9523 13.7471 37.995 13.9286 38.0142 14.0025C38.0915 14.3018 38.2891 15.2323 38.3973 15.8078C38.4192 15.924 38.4624 16.1486 38.4934 16.3071C38.5243 16.4655 38.567 16.7075 38.588 16.8448C38.6091 16.9821 38.6522 17.25 38.6838 17.4402C38.7153 17.6303 38.7607 17.9414 38.7847 18.1315C38.8086 18.3217 38.8521 18.6501 38.8814 18.8613C38.9106 19.0726 38.9451 19.3578 38.958 19.4951C38.9709 19.6324 39.0075 20.004 39.0393 20.3209C39.1048 20.9729 39.1426 21.6026 39.2037 23.062C39.227 23.619 39.2555 24.0899 39.267 24.1086C39.2791 24.1281 41.5788 24.1426 44.644 24.1426H50L49.9824 23.5761C49.9589 22.8183 49.9016 22.1282 49.8254 21.6844C49.791 21.4837 49.7471 21.2072 49.728 21.0699C49.6476 20.4935 49.5362 19.9044 49.4268 19.4759C49.2374 18.7346 49.1804 18.5073 49.1522 18.3812C49.1018 18.1562 49.0078 17.8338 48.9394 17.6514C48.9038 17.5564 48.8605 17.4267 48.8433 17.3633C48.7173 16.8987 48.3062 15.8119 47.9353 14.9628C47.9029 14.8888 47.862 14.7938 47.8441 14.7515C47.6579 14.3097 47.5652 14.1147 47.3785 13.7721C47.2612 13.5568 47.1116 13.275 46.7363 12.5622C46.6917 12.4777 46.5647 12.2667 46.4539 12.0934C46.3431 11.9201 46.0941 11.5289 45.9004 11.2242C45.7068 10.9194 45.269 10.3051 44.9277 9.85889C44.4446 9.2274 44.2887 9.04849 44.2239 9.05129C44.1781 9.05325 43.7945 9.23043 43.3714 9.44499ZM14.2092 12.2453C14.1754 12.3219 14.0342 12.8224 13.9411 13.1959C13.9227 13.2699 13.8794 13.4341 13.8448 13.5608C13.8103 13.6876 13.7674 13.869 13.7494 13.9641C13.7314 14.0592 13.7004 14.1888 13.6805 14.2522C13.6605 14.3156 13.6238 14.4625 13.5988 14.5787C13.5739 14.6948 13.5298 14.8936 13.5008 15.0204C13.4718 15.1471 13.428 15.3545 13.4036 15.4813C13.3792 15.608 13.3363 15.8241 13.3082 15.9614C13.1752 16.6135 13.1109 16.9635 13.0577 17.3249C13.0391 17.4517 12.9964 17.7196 12.9628 17.9203C12.9293 18.121 12.887 18.4148 12.8688 18.5733C12.8507 18.7317 12.8072 19.0774 12.7723 19.3414C12.7374 19.6055 12.6939 20.003 12.6755 20.2249C12.6573 20.4467 12.6235 20.8529 12.6006 21.1275C12.5025 22.2994 12.4815 22.7043 12.4821 23.4034L12.4827 24.1429L18.3094 24.1332L24.1361 24.1234L24.1458 18.7549L24.1555 13.3864L24.069 13.3512C23.9725 13.3118 22.5812 13.2339 21.9859 13.2344C21.7747 13.2347 21.4723 13.218 21.3139 13.1973C21.1555 13.1767 20.7322 13.1338 20.3732 13.1022C20.0142 13.0705 19.6168 13.0352 19.4901 13.0238C19.3634 13.0124 19.0783 12.9765 18.8566 12.944C18.6348 12.9116 18.3324 12.8694 18.1846 12.8502C18.0368 12.8311 17.743 12.7875 17.5319 12.7535C17.3207 12.7194 17.0615 12.683 16.9559 12.6727C16.8503 12.6623 16.6603 12.6301 16.5336 12.6011C16.4069 12.5721 16.1995 12.529 16.0728 12.5055C15.9461 12.4818 15.7301 12.4388 15.5928 12.4099C15.4556 12.3809 15.2396 12.3371 15.1129 12.3125C14.9862 12.2879 14.7753 12.2434 14.6442 12.2134C14.3195 12.1391 14.2539 12.1439 14.2092 12.2453ZM35.3287 12.217C35.2125 12.2447 35.0138 12.2876 34.8871 12.3123C34.7604 12.337 34.5444 12.3809 34.4072 12.4099C34.2699 12.4388 34.0539 12.4818 33.9272 12.5055C33.8005 12.529 33.5931 12.5721 33.4664 12.6011C33.3397 12.6301 33.1497 12.6623 33.0441 12.6727C32.9385 12.683 32.6793 12.7194 32.4681 12.7535C32.257 12.7875 31.9632 12.8311 31.8154 12.8502C31.6676 12.8694 31.3652 12.9116 31.1434 12.944C30.9217 12.9765 30.6366 13.0124 30.5099 13.0238C30.3832 13.0352 29.9858 13.0705 29.6268 13.1022C29.2678 13.1338 28.8445 13.1767 28.6861 13.1973C28.5277 13.218 28.2253 13.2347 28.0141 13.2344C27.4188 13.2339 26.0275 13.3118 25.931 13.3512L25.8445 13.3864L25.8542 18.7549L25.8639 24.1234L31.6906 24.1332L37.5173 24.1429L37.5179 23.4034C37.5185 22.7043 37.4975 22.2994 37.3994 21.1275C37.3765 20.8529 37.3427 20.4467 37.3245 20.2249C37.3061 20.003 37.2626 19.6055 37.2277 19.3414C37.1927 19.0774 37.1493 18.7317 37.1312 18.5733C37.113 18.4148 37.0707 18.121 37.0372 17.9203C37.0036 17.7196 36.9609 17.4517 36.9423 17.3249C36.8891 16.9635 36.8248 16.6135 36.6917 15.9614C36.6637 15.8241 36.6208 15.608 36.5964 15.4813C36.572 15.3545 36.5282 15.1471 36.4992 15.0204C36.4702 14.8936 36.4261 14.6948 36.4012 14.5787C36.3762 14.4625 36.3395 14.3156 36.3195 14.2522C36.2996 14.1888 36.2686 14.0592 36.2506 13.9641C36.2326 13.869 36.1897 13.6876 36.1552 13.5608C36.1206 13.4341 36.0773 13.2699 36.0589 13.1959C35.9657 12.8224 35.8246 12.3219 35.7908 12.2453C35.7467 12.1452 35.6529 12.1395 35.3287 12.217ZM0.0186224 26.4372C0.042697 27.2263 0.0961834 27.8763 0.174282 28.3293C0.208877 28.53 0.252688 28.8065 0.271617 28.9438C0.356013 29.5559 0.425204 29.9244 0.549263 30.4226C0.591345 30.5916 0.63938 30.7904 0.656005 30.8643C0.672631 30.9383 0.715366 31.1111 0.751037 31.2484C0.786669 31.3857 0.832015 31.5758 0.851828 31.6709C0.889571 31.8524 0.948548 32.06 0.999078 32.1894C1.05852 32.3417 1.12467 32.5374 1.15497 32.6504C1.18618 32.7667 1.33259 33.1999 1.38865 33.3417C1.40535 33.384 1.45504 33.5272 1.49904 33.6601C1.56942 33.8727 1.94398 34.7921 2.1595 35.2814C2.43776 35.9132 3.23215 37.4303 3.53713 37.9125C4.2467 39.0342 4.51759 39.431 5.03928 40.1124C5.3582 40.5291 5.62751 40.8916 5.63777 40.918C5.67739 41.0204 5.87022 40.952 6.61899 40.5702C7.04588 40.3525 7.53341 40.1171 7.70235 40.0469C7.87129 39.9767 8.13047 39.8639 8.2783 39.7961C8.58367 39.656 9.40416 39.3307 9.83336 39.1796C9.99174 39.1239 10.1818 39.0549 10.2557 39.0263C10.4979 38.9329 10.9242 38.7874 11.1004 38.7382C11.1955 38.7116 11.3423 38.6679 11.4268 38.6409C11.6837 38.5591 12.2268 38.4014 12.336 38.377C12.3926 38.3644 12.4646 38.3285 12.4958 38.2972C12.5567 38.2363 12.5546 38.2191 12.4359 37.7972C12.3943 37.6494 12.3463 37.4679 12.3292 37.3939C12.3121 37.32 12.271 37.1644 12.2378 37.0483C12.1696 36.8094 12.1637 36.7858 12.0807 36.4145C12.0477 36.2666 12.005 36.0851 11.9858 36.0112C11.9029 35.6906 11.7068 34.768 11.598 34.1867C11.5743 34.06 11.5372 33.8785 11.5157 33.7834C11.4941 33.6884 11.462 33.5069 11.4442 33.3801C11.4265 33.2534 11.3836 32.9855 11.3489 32.7848C11.3143 32.5841 11.2716 32.3076 11.2541 32.1702C11.2367 32.0329 11.1936 31.7132 11.1583 31.4597C11.1232 31.2062 11.0794 30.8518 11.0612 30.6723C11.043 30.4927 10.9994 30.0692 10.9644 29.7312C10.8954 29.065 10.8627 28.5251 10.7947 26.9284C10.7705 26.3586 10.7415 25.8833 10.7303 25.8721C10.7192 25.861 8.30034 25.8474 5.35513 25.8419L0.000153502 25.8319L0.0186224 26.4372ZM12.5307 25.8581C12.4947 25.8726 12.4826 26.0612 12.4821 26.6136C12.4815 27.3097 12.5026 27.7149 12.6006 28.8862C12.6235 29.1608 12.6573 29.567 12.6755 29.7888C12.6939 30.0107 12.7367 30.4082 12.7707 30.6723C12.8047 30.9363 12.8484 31.282 12.8677 31.4405C12.887 31.5989 12.9301 31.8927 12.9633 32.0934C12.9966 32.2941 13.0391 32.562 13.0577 32.6888C13.1109 33.0502 13.1752 33.4002 13.3082 34.0523C13.3363 34.1896 13.3792 34.4057 13.4036 34.5324C13.428 34.6592 13.4718 34.8666 13.5008 34.9933C13.5298 35.1201 13.5739 35.3189 13.5988 35.4351C13.6238 35.5512 13.6605 35.6982 13.6805 35.7615C13.7004 35.8249 13.7314 35.9545 13.7494 36.0496C13.7674 36.1447 13.8103 36.3262 13.8448 36.4529C13.8794 36.5797 13.9227 36.7439 13.9411 36.8178C14.0353 37.1956 14.1755 37.6922 14.2102 37.7707C14.2457 37.851 14.2669 37.8572 14.4316 37.8358C14.5318 37.8228 14.7174 37.7884 14.8441 37.7594C14.9708 37.7304 15.1695 37.6888 15.2857 37.667C15.4018 37.6452 15.6264 37.6006 15.7848 37.568C16.4295 37.4352 16.8934 37.3496 17.1479 37.3165C17.7115 37.2434 18.0003 37.2027 18.223 37.1651C18.6522 37.0928 19.2578 37.0152 19.7205 36.9732C19.9739 36.9503 20.3564 36.9141 20.5705 36.8928C21.3339 36.8169 22.0007 36.7766 23.0371 36.7437C23.8501 36.7179 24.0958 36.6986 24.1212 36.6585C24.1393 36.6299 24.1544 34.2003 24.1547 31.2594C24.1553 26.0118 24.1539 25.9114 24.081 25.8724C24.0054 25.8319 12.6305 25.8178 12.5307 25.8581ZM25.9119 25.8741C25.8484 25.9111 25.8448 26.2081 25.8453 31.2599C25.8456 34.2006 25.8607 36.6299 25.8788 36.6585C25.9042 36.6986 26.1499 36.7179 26.9629 36.7437C27.9993 36.7766 28.6661 36.8169 29.4295 36.8928C29.6436 36.9141 30.0261 36.9503 30.2795 36.9732C30.7422 37.0152 31.3478 37.0928 31.777 37.1651C31.9997 37.2027 32.2885 37.2434 32.8521 37.3165C33.1065 37.3496 33.5705 37.4352 34.2152 37.568C34.3736 37.6006 34.5982 37.6452 34.7143 37.667C34.8305 37.6888 35.0292 37.7304 35.1559 37.7594C35.2826 37.7884 35.4682 37.8228 35.5684 37.8358C35.7331 37.8572 35.7543 37.851 35.7898 37.7707C35.8245 37.6922 35.9647 37.1956 36.0589 36.8178C36.0773 36.7439 36.1206 36.5797 36.1552 36.4529C36.1897 36.3262 36.2326 36.1447 36.2506 36.0496C36.2686 35.9545 36.2996 35.8249 36.3195 35.7615C36.3395 35.6982 36.3762 35.5512 36.4012 35.4351C36.4261 35.3189 36.4702 35.1201 36.4992 34.9933C36.5282 34.8666 36.572 34.6592 36.5964 34.5324C36.6208 34.4057 36.6637 34.1896 36.6917 34.0523C36.8248 33.4002 36.8891 33.0502 36.9423 32.6888C36.9609 32.562 37.0034 32.2941 37.0367 32.0934C37.0699 31.8927 37.113 31.5989 37.1323 31.4405C37.1516 31.282 37.1953 30.9363 37.2293 30.6723C37.2633 30.4082 37.3061 30.0107 37.3245 29.7888C37.3427 29.567 37.3765 29.1608 37.3994 28.8862C37.4974 27.7151 37.5185 27.3097 37.5179 26.6146C37.5174 25.9799 37.509 25.8761 37.4565 25.856C37.3465 25.8137 25.9849 25.8316 25.9119 25.8741ZM39.3123 25.8591C39.2641 25.8717 39.2447 25.9166 39.2435 26.0179C39.2409 26.2413 39.1712 27.785 39.1314 28.5021C39.1115 28.8613 39.0675 29.423 39.0336 29.7504C38.9998 30.0779 38.9571 30.4927 38.9389 30.6723C38.9206 30.8518 38.8768 31.2062 38.8416 31.4597C38.8064 31.7132 38.7633 32.0329 38.7458 32.1702C38.7284 32.3076 38.6857 32.5841 38.6511 32.7848C38.6164 32.9855 38.5735 33.2534 38.5558 33.3801C38.538 33.5069 38.5059 33.6884 38.4843 33.7834C38.4628 33.8785 38.4257 34.06 38.402 34.1867C38.2932 34.768 38.0971 35.6906 38.0142 36.0112C37.995 36.0851 37.9523 36.2666 37.9193 36.4145C37.8363 36.7858 37.8304 36.8094 37.7622 37.0483C37.729 37.1644 37.6879 37.32 37.6708 37.3939C37.6537 37.4679 37.6057 37.6494 37.5641 37.7972C37.4454 38.2191 37.4433 38.2363 37.5042 38.2972C37.5354 38.3285 37.6074 38.3644 37.664 38.377C37.7732 38.4014 38.3163 38.5591 38.5732 38.6409C38.6577 38.6679 38.8045 38.7116 38.8996 38.7382C39.0758 38.7874 39.5021 38.9329 39.7443 39.0263C39.8182 39.0549 40.0083 39.1239 40.1666 39.1796C40.5958 39.3307 41.4163 39.656 41.7217 39.7961C41.8695 39.8639 42.1287 39.9767 42.2976 40.0469C42.4666 40.1171 42.9541 40.3525 43.381 40.5702C44.1298 40.952 44.3226 41.0204 44.3622 40.918C44.3725 40.8916 44.6418 40.5291 44.9607 40.1124C45.4824 39.431 45.7533 39.0342 46.4629 37.9125C46.7494 37.4594 47.3735 36.2735 47.8071 35.3582C47.8981 35.1661 48.4697 33.7574 48.5474 33.5338C48.5988 33.3859 48.6798 33.1526 48.7275 33.0152C48.7751 32.8779 48.8281 32.7137 48.8451 32.6504C48.8621 32.587 48.9118 32.4411 48.9555 32.3261C48.9993 32.2111 49.1049 31.8309 49.1903 31.4811C49.2756 31.1313 49.3619 30.7846 49.3819 30.7107C49.5275 30.1741 49.6327 29.6374 49.7284 28.9438C49.7473 28.8065 49.7911 28.53 49.8257 28.3293C49.9038 27.8764 49.9573 27.2264 49.9814 26.4376L49.9998 25.8327L44.6897 25.8371C41.7691 25.8396 39.3493 25.8495 39.3123 25.8591ZM22.8882 38.435C22.3497 38.4517 21.7831 38.4836 21.6291 38.5058C21.4752 38.5281 21.2601 38.5462 21.1512 38.5462C21.0423 38.5462 20.814 38.5634 20.644 38.5844C20.4739 38.6054 20.1361 38.6413 19.8933 38.6642C19.3519 38.7152 19.0344 38.7541 18.511 38.8334C18.2892 38.867 17.9869 38.91 17.839 38.9289C17.6014 38.9592 17.2159 39.0223 16.6679 39.1205C16.474 39.1553 15.8276 39.2838 15.4201 39.3686C15.2722 39.3993 15.0856 39.4353 15.0053 39.4484C14.7881 39.484 14.7811 39.5647 14.9591 39.9866C14.9859 40.05 15.0798 40.2833 15.1679 40.5051C15.256 40.7269 15.3429 40.943 15.3611 40.9852C15.3793 41.0275 15.4496 41.2003 15.5173 41.3693C15.6343 41.6615 16.632 43.6972 16.7016 43.7856C16.7197 43.8087 16.7908 43.9312 16.8595 44.058C17.1547 44.6029 17.9705 45.7764 18.5683 46.5162C18.8911 46.9157 19.8222 47.8449 20.2425 48.187C20.9099 48.7302 21.6441 49.1918 22.2738 49.4641C22.6269 49.6168 22.686 49.6406 22.8114 49.6809C22.8853 49.7045 23.0581 49.7601 23.1954 49.8042C23.4578 49.8887 23.7198 49.9464 23.9921 49.9799L24.1553 50V44.2424C24.1553 39.8155 24.1446 38.4741 24.1092 38.4387C24.0839 38.4133 24.019 38.3953 23.9652 38.3985C23.9114 38.4018 23.4267 38.4182 22.8882 38.435ZM25.8845 38.445C25.8574 38.4721 25.8447 40.3213 25.8447 44.2424V50L26.0079 49.9799C26.2802 49.9464 26.5422 49.8887 26.8046 49.8042C26.9419 49.7601 27.1147 49.7045 27.1886 49.6809C27.4739 49.5894 27.9709 49.3642 28.3597 49.1505C28.7204 48.9521 29.354 48.5154 29.7575 48.187C30.1778 47.8449 31.1089 46.9157 31.4317 46.5162C32.0295 45.7764 32.8453 44.6029 33.1405 44.058C33.2092 43.9312 33.2803 43.8087 33.2984 43.7856C33.368 43.6972 34.3657 41.6615 34.4827 41.3693C34.5504 41.2003 34.6207 41.0275 34.6389 40.9852C34.6571 40.943 34.744 40.7269 34.8321 40.5051C34.9202 40.2833 35.0141 40.05 35.0409 39.9866C35.2189 39.5647 35.2119 39.484 34.9947 39.4484C34.9144 39.4353 34.7278 39.3993 34.5799 39.3686C34.1724 39.2838 33.526 39.1553 33.3321 39.1205C32.7841 39.0223 32.3986 38.9592 32.161 38.9289C32.0131 38.91 31.7108 38.8671 31.489 38.8335C31.2673 38.8 30.9563 38.7578 30.7979 38.7398C30.6395 38.7217 30.4494 38.6964 30.3755 38.6836C30.2537 38.6624 30.0182 38.6409 28.8781 38.5473C27.5565 38.4388 25.9457 38.3837 25.8845 38.445ZM12.8859 39.9662C12.8149 39.9958 12.4977 40.0911 11.926 40.2548C11.6583 40.3313 11.1543 40.4966 11.0429 40.5443C11.0006 40.5624 10.8106 40.6297 10.6205 40.6939C10.0597 40.8832 9.97427 40.9159 9.24424 41.2218C8.47163 41.5454 8.2525 41.6445 7.48157 42.019C7.13185 42.1889 6.95362 42.2961 6.95362 42.3366C6.95362 42.3702 7.15666 42.5963 7.40478 42.839C9.01367 44.4126 10.704 45.6948 12.6305 46.8029C13.2629 47.1666 15.1033 48.0718 15.2105 48.0718C15.2313 48.0718 15.2783 48.0882 15.315 48.1084C15.3517 48.1285 15.4421 48.1696 15.5161 48.1998C15.59 48.23 15.7455 48.2937 15.8616 48.3414C15.9778 48.3891 16.116 48.442 16.1688 48.459C16.2216 48.4759 16.4116 48.5432 16.5912 48.6085C16.967 48.745 17.4924 48.9201 17.743 48.9922C17.8381 49.0196 17.9849 49.064 18.0694 49.0908C18.4056 49.1977 18.6374 49.2625 18.6841 49.2625C18.8202 49.2625 18.7486 49.134 18.4464 48.8358C18.1472 48.5407 17.4104 47.7151 17.0275 47.246C16.2903 46.3428 15.505 45.1693 14.8299 43.962C14.6259 43.5972 14.072 42.4599 13.9225 42.0991C13.8438 41.909 13.7381 41.6622 13.6878 41.5507C13.6374 41.4392 13.5962 41.331 13.5962 41.3101C13.5962 41.2893 13.5805 41.2422 13.5612 41.2055C13.542 41.1689 13.4972 41.0524 13.4617 40.9468C13.3451 40.6003 13.2076 40.2196 13.146 40.073C13.0847 39.9272 13.0316 39.9054 12.8859 39.9662ZM36.8878 40.0134C36.8552 40.0631 36.7682 40.2849 36.6943 40.5061C36.4961 41.1002 36.4665 41.1782 36.1657 41.8993C35.827 42.7111 35.3124 43.7512 34.927 44.4023C34.7678 44.6714 34.6375 44.8978 34.6375 44.9054C34.6375 44.9289 33.8079 46.1593 33.6522 46.3668C33.5711 46.4748 33.4025 46.6995 33.2775 46.8662C32.9348 47.3229 32.0031 48.392 31.6082 48.7816C31.2828 49.1027 31.1843 49.2625 31.3118 49.2625C31.3621 49.2625 31.5871 49.2001 31.9306 49.0908C32.015 49.064 32.1619 49.0197 32.257 48.9924C32.5003 48.9226 33.3359 48.652 33.428 48.6131C33.6266 48.5293 33.7487 48.4825 33.908 48.4292C34.003 48.3974 34.1326 48.349 34.196 48.3216C34.2593 48.2942 34.4494 48.216 34.6183 48.1478C35.2687 47.8855 36.601 47.2336 37.2485 46.861C37.4914 46.7212 37.7631 46.5654 37.8523 46.5148C38.4325 46.1856 39.5139 45.4494 40.301 44.8476C41.2835 44.0964 43.049 42.4854 43.0472 42.3417C43.0466 42.2986 42.9343 42.2234 42.7104 42.1161C42.5256 42.0276 42.1462 41.8449 41.8673 41.7103C41.5883 41.5756 41.3369 41.4654 41.3086 41.4654C41.2803 41.4654 41.2407 41.4505 41.2206 41.4324C41.2006 41.4143 41.0459 41.344 40.877 41.2761C40.708 41.2083 40.4786 41.1108 40.3672 41.0594C40.2557 41.008 40.1475 40.966 40.1267 40.966C40.1059 40.966 40.0588 40.9503 40.0221 40.931C39.9854 40.9118 39.8691 40.8672 39.7635 40.832C39.6579 40.7968 39.5369 40.7539 39.4947 40.7366C39.4525 40.7194 39.3315 40.6759 39.2259 40.64C39.1203 40.6041 38.9216 40.5355 38.7844 40.4876C38.6471 40.4396 38.3793 40.3537 38.1892 40.2967C37.9992 40.2396 37.7659 40.1685 37.6709 40.1386C37.5758 40.1087 37.403 40.0596 37.2869 40.0294C37.1707 39.9992 37.0468 39.9629 37.0114 39.9487C36.9678 39.9313 36.9279 39.9521 36.8878 40.0134Z" fill="white"/>
</svg>
