<?xml version="1.0" encoding="utf-8"?>
<svg  viewBox="38 69 330 127.742" fill="none" xmlns="http://www.w3.org/2000/svg">
  <path d="M56.688 102.84L56.688 101.84L55.688 101.84L55.688 102.84L56.688 102.84ZM72.132 102.84L73.132 102.84L73.132 101.84L72.132 101.84L72.132 102.84ZM67.82 116.524L68.5121 117.246L68.516 117.242L67.82 116.524ZM45.028 115.996L44.3276 116.71L44.3309 116.713L45.028 115.996ZM64.3 90.52L63.8227 91.3987L63.8291 91.4022L63.8356 91.4056L64.3 90.52ZM69.932 95.624L70.4295 96.4915L71.3338 95.9728L70.778 95.0909L69.932 95.624ZM63.948 99.056L63.109 99.6002L63.6243 100.394L64.4455 99.9235L63.948 99.056ZM60.868 96.46L60.4129 97.3504L60.4246 97.3564L60.4365 97.3621L60.868 96.46ZM49.912 98.044L50.6191 98.7511L49.912 98.044ZM50 111.244L49.2989 111.957L49.305 111.963L49.3113 111.969L50 111.244ZM64.916 109L65.8509 109.355L66.3653 108L64.916 108L64.916 109ZM56.688 109L55.688 109L55.688 110L56.688 110L56.688 109ZM56.688 103.84L72.132 103.84L72.132 101.84L56.688 101.84L56.688 103.84ZM71.132 102.84L71.132 105.48L73.132 105.48L73.132 102.84L71.132 102.84ZM71.132 105.48C71.132 109.828 69.776 113.235 67.124 115.806L68.516 117.242C71.6134 114.239 73.132 110.284 73.132 105.48L71.132 105.48ZM67.1279 115.802C64.491 118.33 61.1267 119.616 56.952 119.616L56.952 121.616C61.5773 121.616 65.4583 120.174 68.5121 117.246L67.1279 115.802ZM56.952 119.616C52.4075 119.616 48.6902 118.162 45.7251 115.279L44.3309 116.713C47.7018 119.99 51.9338 121.616 56.952 121.616L56.952 119.616ZM45.7284 115.282C42.7858 112.395 41.32 108.87 41.32 104.644L39.32 104.644C39.32 109.394 40.9929 113.437 44.3276 116.71L45.7284 115.282ZM41.32 104.644C41.32 100.415 42.7736 96.8726 45.6911 93.9551L44.2769 92.5409C40.9757 95.8421 39.32 99.8969 39.32 104.644L41.32 104.644ZM45.6911 93.9551C48.6059 91.0403 52.1765 89.584 56.468 89.584L56.468 87.584C51.6662 87.584 47.5808 89.237 44.2769 92.5409L45.6911 93.9551ZM56.468 89.584C59.1556 89.584 61.6009 90.1918 63.8227 91.3987L64.7773 89.6413C62.2471 88.2668 59.471 87.584 56.468 87.584L56.468 89.584ZM63.8356 91.4056C66.0967 92.5913 67.8374 94.1757 69.086 96.1571L70.778 95.0909C69.3279 92.7896 67.314 90.9714 64.7644 89.6344L63.8356 91.4056ZM69.4345 94.7565L63.4505 98.1885L64.4455 99.9235L70.4295 96.4915L69.4345 94.7565ZM64.787 98.5118C63.9679 97.249 62.7886 96.2701 61.2995 95.5579L60.4365 97.3621C61.6461 97.9406 62.5201 98.6923 63.109 99.6002L64.787 98.5118ZM61.3231 95.5696C59.8475 94.8154 58.2075 94.448 56.424 94.448L56.424 96.448C57.9258 96.448 59.2485 96.7553 60.4129 97.3504L61.3231 95.5696ZM56.424 94.448C53.5677 94.448 51.1365 95.4053 49.2049 97.3369L50.6191 98.7511C52.1488 97.2214 54.059 96.448 56.424 96.448L56.424 94.448ZM49.2049 97.3369C47.2904 99.2514 46.36 101.733 46.36 104.688L48.36 104.688C48.36 102.187 49.131 100.239 50.6191 98.7511L49.2049 97.3369ZM46.36 104.688C46.36 107.575 47.3334 110.024 49.2989 111.957L50.7011 110.531C49.1466 109.002 48.36 107.081 48.36 104.688L46.36 104.688ZM49.3113 111.969C51.2944 113.853 53.9069 114.752 57.04 114.752L57.04 112.752C54.3064 112.752 52.2256 111.979 50.6887 110.519L49.3113 111.969ZM57.04 114.752C59.1893 114.752 61.0507 114.332 62.5616 113.42C64.0862 112.5 65.179 111.125 65.8509 109.355L63.9811 108.645C63.4503 110.043 62.6292 111.044 61.5284 111.708C60.414 112.38 58.9387 112.752 57.04 112.752L57.04 114.752ZM64.916 108L56.688 108L56.688 110L64.916 110L64.916 108ZM57.688 109L57.688 102.84L55.688 102.84L55.688 109L57.688 109ZM83.1409 89.2L84.1409 89.2L84.1409 88.2L83.1409 88.2L83.1409 89.2ZM83.1409 113.224L82.1409 113.224L82.1409 114.224L83.1409 114.224L83.1409 113.224ZM94.1409 113.224L95.1409 113.224L95.1409 112.224L94.1409 112.224L94.1409 113.224ZM94.1409 120L94.1409 121L95.1409 121L95.1409 120L94.1409 120ZM76.1009 120L75.1009 120L75.1009 121L76.1009 121L76.1009 120ZM76.1009 89.2L76.1009 88.2L75.1009 88.2L75.1009 89.2L76.1009 89.2ZM82.1409 89.2L82.1409 113.224L84.1409 113.224L84.1409 89.2L82.1409 89.2ZM83.1409 114.224L94.1409 114.224L94.1409 112.224L83.1409 112.224L83.1409 114.224ZM93.1409 113.224L93.1409 120L95.1409 120L95.1409 113.224L93.1409 113.224ZM94.1409 119L76.1009 119L76.1009 121L94.1409 121L94.1409 119ZM77.1009 120L77.1009 89.2L75.1009 89.2L75.1009 120L77.1009 120ZM76.1009 90.2L83.1409 90.2L83.1409 88.2L76.1009 88.2L76.1009 90.2ZM121.528 115.996L120.824 115.286L121.528 115.996ZM98.8238 115.996L99.5276 115.286L98.8238 115.996ZM103.752 111.2L103.045 111.907L103.752 111.2ZM116.556 111.2L115.849 110.493L116.556 111.2ZM116.556 98L115.849 98.7071L116.556 98ZM103.752 98L104.459 98.7071L103.752 98ZM120.824 115.286C117.906 118.176 114.376 119.616 110.176 119.616L110.176 121.616C114.893 121.616 118.931 119.976 122.232 116.706L120.824 115.286ZM110.176 119.616C105.975 119.616 102.446 118.176 99.5276 115.286L98.1201 116.706C101.421 119.976 105.459 121.616 110.176 121.616L110.176 119.616ZM99.5276 115.286C96.6146 112.4 95.1598 108.86 95.1598 104.6L93.1598 104.6C93.1598 109.375 94.8145 113.432 98.1201 116.706L99.5276 115.286ZM95.1598 104.6C95.1598 100.34 96.6146 96.8 99.5276 93.9144L98.1201 92.4935C94.8145 95.768 93.1598 99.8254 93.1598 104.6L95.1598 104.6ZM99.5276 93.9144C102.446 91.0238 105.975 89.584 110.176 89.584L110.176 87.584C105.459 87.584 101.421 89.2242 98.1201 92.4935L99.5276 93.9144ZM110.176 89.584C114.376 89.584 117.906 91.0238 120.824 93.9144L122.232 92.4935C118.931 89.2242 114.893 87.584 110.176 87.584L110.176 89.584ZM120.824 93.9144C123.737 96.8 125.192 100.34 125.192 104.6L127.192 104.6C127.192 99.8254 125.537 95.768 122.232 92.4935L120.824 93.9144ZM125.192 104.6C125.192 108.86 123.737 112.4 120.824 115.286L122.232 116.706C125.537 113.432 127.192 109.375 127.192 104.6L125.192 104.6ZM100.2 104.6C100.2 107.529 101.132 109.995 103.045 111.907L104.459 110.493C102.969 109.003 102.2 107.069 102.2 104.6L100.2 104.6ZM103.045 111.907C104.948 113.811 107.351 114.752 110.176 114.752L110.176 112.752C107.838 112.752 105.958 111.992 104.459 110.493L103.045 111.907ZM110.176 114.752C112.975 114.752 115.362 113.808 117.263 111.907L115.849 110.493C114.347 111.994 112.48 112.752 110.176 112.752L110.176 114.752ZM117.263 111.907C119.199 109.971 120.152 107.508 120.152 104.6L118.152 104.6C118.152 107.031 117.374 108.968 115.849 110.493L117.263 111.907ZM120.152 104.6C120.152 101.692 119.199 99.229 117.263 97.2929L115.849 98.7071C117.374 100.232 118.152 102.169 118.152 104.6L120.152 104.6ZM117.263 97.2929C115.362 95.3918 112.975 94.448 110.176 94.448L110.176 96.448C112.48 96.448 114.347 97.2056 115.849 98.7071L117.263 97.2929ZM110.176 94.448C107.351 94.448 104.948 95.3894 103.045 97.2929L104.459 98.7071C105.958 97.2079 107.838 96.448 110.176 96.448L110.176 94.448ZM103.045 97.2929C101.132 99.2053 100.2 101.671 100.2 104.6L102.2 104.6C102.2 102.131 102.969 100.197 104.459 98.7071L103.045 97.2929ZM153.916 120L153.916 121L155.651 121L154.781 119.498L153.916 120ZM146.348 120L145.48 120.498L145.769 121L146.348 121L146.348 120ZM140.54 109.88L141.407 109.382L141.119 108.88L140.54 108.88L140.54 109.88ZM137.196 109.88L137.196 108.88L136.196 108.88L136.196 109.88L137.196 109.88ZM137.196 120L137.196 121L138.196 121L138.196 120L137.196 120ZM130.156 120L129.156 120L129.156 121L130.156 121L130.156 120ZM130.156 89.2L130.156 88.2L129.156 88.2L129.156 89.2L130.156 89.2ZM149.956 92.28L150.663 91.5729V91.5729L149.956 92.28ZM151.452 104.952L150.615 104.404L150.608 104.415L151.452 104.952ZM147.36 108.692L146.9 107.804L145.968 108.286L146.495 109.194L147.36 108.692ZM137.196 95.8L137.196 94.8L136.196 94.8L136.196 95.8L137.196 95.8ZM137.196 103.72L136.196 103.72L136.196 104.72L137.196 104.72L137.196 103.72ZM144.94 102.576L144.205 101.898L144.198 101.905L144.191 101.913L144.94 102.576ZM144.94 96.944L144.191 97.6066L144.198 97.6145L144.205 97.6223L144.94 96.944ZM153.916 119L146.348 119L146.348 121L153.916 121L153.916 119ZM147.215 119.502L141.407 109.382L139.672 110.378L145.48 120.498L147.215 119.502ZM140.54 108.88L137.196 108.88L137.196 110.88L140.54 110.88L140.54 108.88ZM136.196 109.88L136.196 120L138.196 120L138.196 109.88L136.196 109.88ZM137.196 119L130.156 119L130.156 121L137.196 121L137.196 119ZM131.156 120L131.156 89.2L129.156 89.2L129.156 120L131.156 120ZM130.156 90.2L142.476 90.2L142.476 88.2L130.156 88.2L130.156 90.2ZM142.476 90.2C145.147 90.2 147.385 91.1234 149.249 92.9871L150.663 91.5729C148.42 89.3299 145.671 88.2 142.476 88.2L142.476 90.2ZM149.249 92.9871C151.112 94.8508 152.036 97.0889 152.036 99.76L154.036 99.76C154.036 96.5645 152.906 93.8159 150.663 91.5729L149.249 92.9871ZM152.036 99.76C152.036 101.405 151.569 102.946 150.615 104.404L152.288 105.5C153.446 103.731 154.036 101.811 154.036 99.76L152.036 99.76ZM150.608 104.415C149.676 105.879 148.445 107.005 146.9 107.804L147.819 109.58C149.677 108.619 151.174 107.251 152.295 105.489L150.608 104.415ZM146.495 109.194L153.051 120.502L154.781 119.498L148.225 108.19L146.495 109.194ZM142.476 94.8L137.196 94.8L137.196 96.8L142.476 96.8L142.476 94.8ZM136.196 95.8L136.196 103.72L138.196 103.72L138.196 95.8L136.196 95.8ZM137.196 104.72L142.476 104.72L142.476 102.72L137.196 102.72L137.196 104.72ZM142.476 104.72C143.747 104.72 144.835 104.203 145.689 103.239L144.191 101.913C143.695 102.474 143.141 102.72 142.476 102.72L142.476 104.72ZM145.674 103.254C146.562 102.292 146.996 101.106 146.996 99.76L144.996 99.76C144.996 100.644 144.725 101.334 144.205 101.898L145.674 103.254ZM146.996 99.76C146.996 98.4143 146.562 97.2275 145.674 96.2657L144.205 97.6223C144.725 98.1858 144.996 98.8764 144.996 99.76L146.996 99.76ZM145.689 96.2814C144.835 95.3168 143.747 94.8 142.476 94.8L142.476 96.8C143.141 96.8 143.695 97.0458 144.191 97.6066L145.689 96.2814ZM173.439 89.2L173.439 88.2L172.816 88.2L172.541 88.7581L173.439 89.2ZM181.447 89.2L182.325 89.6787L183.131 88.2L181.447 88.2L181.447 89.2ZM171.107 108.164L170.229 107.685L170.107 107.909L170.107 108.164L171.107 108.164ZM171.107 120L171.107 121L172.107 121L172.107 120L171.107 120ZM164.067 120L163.067 120L163.067 121L164.067 121L164.067 120ZM164.067 108.164L165.067 108.164L165.067 107.909L164.945 107.685L164.067 108.164ZM153.727 89.2L153.727 88.2L152.042 88.2L152.849 89.6787L153.727 89.2ZM161.735 89.2L162.632 88.7581L162.357 88.2L161.735 88.2L161.735 89.2ZM167.587 101.08L166.689 101.522L167.587 103.343L168.484 101.522L167.587 101.08ZM173.439 90.2L181.447 90.2L181.447 88.2L173.439 88.2L173.439 90.2ZM180.569 88.7213L170.229 107.685L171.985 108.643L182.325 89.6787L180.569 88.7213ZM170.107 108.164L170.107 120L172.107 120L172.107 108.164L170.107 108.164ZM171.107 119L164.067 119L164.067 121L171.107 121L171.107 119ZM165.067 120L165.067 108.164L163.067 108.164L163.067 120L165.067 120ZM164.945 107.685L154.605 88.7213L152.849 89.6787L163.189 108.643L164.945 107.685ZM153.727 90.2L161.735 90.2L161.735 88.2L153.727 88.2L153.727 90.2ZM160.837 89.6419L166.689 101.522L168.484 100.638L162.632 88.7581L160.837 89.6419ZM168.484 101.522L174.336 89.6419L172.541 88.7581L166.689 100.638L168.484 101.522Z" fill="#757575"/>
  <circle cx="110.5" cy="104.5" r="10.5" fill="#FFD700"/>
  <path d="M92.4727 143.163L92.7014 142.5H92H87.04H86.6836L86.5673 142.837L75.5273 174.837L75.2986 175.5H76H80.96H81.3164L81.4327 175.163L92.4727 143.163Z" stroke="#757575"/>
  <path d="M102.44 144.2L102.44 143.2L101.44 143.2L101.44 144.2L102.44 144.2ZM125.32 144.2L126.32 144.2L126.32 143.2L125.32 143.2L125.32 144.2ZM125.32 150.976L125.32 151.976L126.32 151.976L126.32 150.976L125.32 150.976ZM117.4 150.976L117.4 149.976L116.4 149.976L116.4 150.976L117.4 150.976ZM117.4 175L117.4 176L118.4 176L118.4 175L117.4 175ZM110.36 175L109.36 175L109.36 176L110.36 176L110.36 175ZM110.36 150.976L111.36 150.976L111.36 149.976L110.36 149.976L110.36 150.976ZM102.44 150.976L101.44 150.976L101.44 151.976L102.44 151.976L102.44 150.976ZM102.44 145.2L125.32 145.2L125.32 143.2L102.44 143.2L102.44 145.2ZM124.32 144.2L124.32 150.976L126.32 150.976L126.32 144.2L124.32 144.2ZM125.32 149.976L117.4 149.976L117.4 151.976L125.32 151.976L125.32 149.976ZM116.4 150.976L116.4 175L118.4 175L118.4 150.976L116.4 150.976ZM117.4 174L110.36 174L110.36 176L117.4 176L117.4 174ZM111.36 175L111.36 150.976L109.36 150.976L109.36 175L111.36 175ZM110.36 149.976L102.44 149.976L102.44 151.976L110.36 151.976L110.36 149.976ZM103.44 150.976L103.44 144.2L101.44 144.2L101.44 150.976L103.44 150.976ZM152.688 170.996L151.984 170.286L152.688 170.996ZM129.984 170.996L130.688 170.286L129.984 170.996ZM134.912 166.2L134.205 166.907L134.912 166.2ZM147.716 166.2L147.009 165.493L147.716 166.2ZM147.716 153L147.009 153.707L147.716 153ZM134.912 153L135.619 153.707L134.912 153ZM151.984 170.286C149.066 173.176 145.537 174.616 141.336 174.616L141.336 176.616C146.053 176.616 150.091 174.976 153.392 171.706L151.984 170.286ZM141.336 174.616C137.135 174.616 133.606 173.176 130.688 170.286L129.28 171.706C132.581 174.976 136.619 176.616 141.336 176.616L141.336 174.616ZM130.688 170.286C127.775 167.4 126.32 163.86 126.32 159.6L124.32 159.6C124.32 164.375 125.975 168.432 129.28 171.706L130.688 170.286ZM126.32 159.6C126.32 155.34 127.775 151.8 130.688 148.914L129.28 147.494C125.975 150.768 124.32 154.825 124.32 159.6L126.32 159.6ZM130.688 148.914C133.606 146.024 137.135 144.584 141.336 144.584L141.336 142.584C136.619 142.584 132.581 144.224 129.28 147.494L130.688 148.914ZM141.336 144.584C145.537 144.584 149.066 146.024 151.984 148.914L153.392 147.494C150.091 144.224 146.053 142.584 141.336 142.584L141.336 144.584ZM151.984 148.914C154.897 151.8 156.352 155.34 156.352 159.6L158.352 159.6C158.352 154.825 156.697 150.768 153.392 147.494L151.984 148.914ZM156.352 159.6C156.352 163.86 154.897 167.4 151.984 170.286L153.392 171.706C156.697 168.432 158.352 164.375 158.352 159.6L156.352 159.6ZM131.36 159.6C131.36 162.529 132.292 164.995 134.205 166.907L135.619 165.493C134.129 164.003 133.36 162.069 133.36 159.6L131.36 159.6ZM134.205 166.907C136.108 168.811 138.511 169.752 141.336 169.752L141.336 167.752C138.999 167.752 137.118 166.992 135.619 165.493L134.205 166.907ZM141.336 169.752C144.135 169.752 146.522 168.808 148.423 166.907L147.009 165.493C145.507 166.994 143.641 167.752 141.336 167.752L141.336 169.752ZM148.423 166.907C150.359 164.971 151.312 162.508 151.312 159.6L149.312 159.6C149.312 162.031 148.534 163.968 147.009 165.493L148.423 166.907ZM151.312 159.6C151.312 156.692 150.359 154.229 148.423 152.293L147.009 153.707C148.534 155.232 149.312 157.169 149.312 159.6L151.312 159.6ZM148.423 152.293C146.522 150.392 144.135 149.448 141.336 149.448L141.336 151.448C143.641 151.448 145.507 152.206 147.009 153.707L148.423 152.293ZM141.336 149.448C138.511 149.448 136.108 150.389 134.205 152.293L135.619 153.707C137.118 152.208 138.999 151.448 141.336 151.448L141.336 149.448ZM134.205 152.293C132.292 154.205 131.36 156.671 131.36 159.6L133.36 159.6C133.36 157.131 134.129 155.197 135.619 153.707L134.205 152.293ZM172.096 144.2L172.096 143.2L171.096 143.2L171.096 144.2L172.096 144.2ZM179.136 144.2L180.136 144.2L180.136 143.2L179.136 143.2L179.136 144.2ZM188.816 144.2L188.816 143.2L187.816 143.2L187.816 144.2L188.816 144.2ZM195.856 144.2L196.856 144.2L196.856 143.2L195.856 143.2L195.856 144.2ZM192.512 172.756L191.868 171.991L191.867 171.992L192.512 172.756ZM175.44 172.756L176.085 171.992L176.084 171.991L175.44 172.756ZM173.096 165.056L173.096 144.2L171.096 144.2L171.096 165.056L173.096 165.056ZM172.096 145.2L179.136 145.2L179.136 143.2L172.096 143.2L172.096 145.2ZM178.136 144.2L178.136 164.44L180.136 164.44L180.136 144.2L178.136 144.2ZM178.136 164.44C178.136 166.063 178.597 167.455 179.681 168.421C180.743 169.367 182.235 169.752 183.976 169.752L183.976 167.752C182.49 167.752 181.562 167.419 181.011 166.927C180.482 166.456 180.136 165.691 180.136 164.44L178.136 164.44ZM183.976 169.752C185.717 169.752 187.209 169.367 188.271 168.421C189.355 167.455 189.816 166.063 189.816 164.44L187.816 164.44C187.816 165.691 187.47 166.456 186.941 166.927C186.389 167.419 185.462 167.752 183.976 167.752L183.976 169.752ZM189.816 164.44L189.816 144.2L187.816 144.2L187.816 164.44L189.816 164.44ZM188.816 145.2L195.856 145.2L195.856 143.2L188.816 143.2L188.816 145.2ZM194.856 144.2L194.856 165.056L196.856 165.056L196.856 144.2L194.856 144.2ZM194.856 165.056C194.856 168.056 193.843 170.327 191.868 171.991L193.156 173.521C195.639 171.43 196.856 168.568 196.856 165.056L194.856 165.056ZM191.867 171.992C189.817 173.722 187.212 174.616 183.976 174.616L183.976 176.616C187.604 176.616 190.689 175.603 193.157 173.52L191.867 171.992ZM183.976 174.616C180.74 174.616 178.135 173.722 176.085 171.992L174.795 173.52C177.262 175.603 180.348 176.616 183.976 176.616L183.976 174.616ZM176.084 171.991C174.108 170.327 173.096 168.056 173.096 165.056L171.096 165.056C171.096 168.568 172.313 171.43 174.796 173.521L176.084 171.991ZM215.013 159.204L214.191 158.635L213.799 159.201L214.188 159.769L215.013 159.204ZM225.837 175L225.837 176L227.734 176L226.662 174.435L225.837 175ZM217.829 175L217.006 175.569L217.305 176L217.829 176L217.829 175ZM207.973 160.744L208.796 160.175L206.973 157.539L206.973 160.744L207.973 160.744ZM207.973 175L207.973 176L208.973 176L208.973 175L207.973 175ZM200.933 175L199.933 175L199.933 176L200.933 176L200.933 175ZM200.933 144.2L200.933 143.2L199.933 143.2L199.933 144.2L200.933 144.2ZM207.973 144.2L208.973 144.2L208.973 143.2L207.973 143.2L207.973 144.2ZM207.973 157.576L206.973 157.576L206.973 160.734L208.791 158.152L207.973 157.576ZM217.389 144.2L217.389 143.2L216.87 143.2L216.571 143.624L217.389 144.2ZM225.397 144.2L226.219 144.769L227.305 143.2L225.397 143.2L225.397 144.2ZM214.188 159.769L225.012 175.565L226.662 174.435L215.838 158.639L214.188 159.769ZM225.837 174L217.829 174L217.829 176L225.837 176L225.837 174ZM218.652 174.431L208.796 160.175L207.15 161.313L217.006 175.569L218.652 174.431ZM206.973 160.744L206.973 175L208.973 175L208.973 160.744L206.973 160.744ZM207.973 174L200.933 174L200.933 176L207.973 176L207.973 174ZM201.933 175L201.933 144.2L199.933 144.2L199.933 175L201.933 175ZM200.933 145.2L207.973 145.2L207.973 143.2L200.933 143.2L200.933 145.2ZM206.973 144.2L206.973 157.576L208.973 157.576L208.973 144.2L206.973 144.2ZM208.791 158.152L218.207 144.776L216.571 143.624L207.155 157L208.791 158.152ZM217.389 145.2L225.397 145.2L225.397 143.2L217.389 143.2L217.389 145.2ZM224.575 143.631L214.191 158.635L215.835 159.773L226.219 144.769L224.575 143.631ZM252.236 175L252.236 176L253.972 176L253.101 174.498L252.236 175ZM244.668 175L243.801 175.498L244.089 176L244.668 176L244.668 175ZM238.86 164.88L239.727 164.382L239.439 163.88L238.86 163.88L238.86 164.88ZM235.516 164.88L235.516 163.88L234.516 163.88L234.516 164.88L235.516 164.88ZM235.516 175L235.516 176L236.516 176L236.516 175L235.516 175ZM228.476 175L227.476 175L227.476 176L228.476 176L228.476 175ZM228.476 144.2L228.476 143.2L227.476 143.2L227.476 144.2L228.476 144.2ZM248.276 147.28L248.983 146.573V146.573L248.276 147.28ZM249.772 159.952L248.935 159.404L248.928 159.415L249.772 159.952ZM245.68 163.692L245.221 162.804L244.289 163.286L244.815 164.194L245.68 163.692ZM235.516 150.8L235.516 149.8L234.516 149.8L234.516 150.8L235.516 150.8ZM235.516 158.72L234.516 158.72L234.516 159.72L235.516 159.72L235.516 158.72ZM243.26 157.576L242.525 156.898L242.518 156.905L242.511 156.913L243.26 157.576ZM243.26 151.944L242.511 152.607L242.518 152.615L242.525 152.622L243.26 151.944ZM252.236 174L244.668 174L244.668 176L252.236 176L252.236 174ZM245.535 174.502L239.727 164.382L237.993 165.378L243.801 175.498L245.535 174.502ZM238.86 163.88L235.516 163.88L235.516 165.88L238.86 165.88L238.86 163.88ZM234.516 164.88L234.516 175L236.516 175L236.516 164.88L234.516 164.88ZM235.516 174L228.476 174L228.476 176L235.516 176L235.516 174ZM229.476 175L229.476 144.2L227.476 144.2L227.476 175L229.476 175ZM228.476 145.2L240.796 145.2L240.796 143.2L228.476 143.2L228.476 145.2ZM240.796 145.2C243.467 145.2 245.705 146.123 247.569 147.987L248.983 146.573C246.74 144.33 243.991 143.2 240.796 143.2L240.796 145.2ZM247.569 147.987C249.432 149.851 250.356 152.089 250.356 154.76L252.356 154.76C252.356 151.564 251.226 148.816 248.983 146.573L247.569 147.987ZM250.356 154.76C250.356 156.405 249.89 157.946 248.935 159.404L250.609 160.5C251.766 158.731 252.356 156.811 252.356 154.76L250.356 154.76ZM248.928 159.415C247.997 160.879 246.765 162.005 245.221 162.804L246.139 164.58C247.997 163.619 249.494 162.251 250.616 160.489L248.928 159.415ZM244.815 164.194L251.371 175.502L253.101 174.498L246.545 163.19L244.815 164.194ZM240.796 149.8L235.516 149.8L235.516 151.8L240.796 151.8L240.796 149.8ZM234.516 150.8L234.516 158.72L236.516 158.72L236.516 150.8L234.516 150.8ZM235.516 159.72L240.796 159.72L240.796 157.72L235.516 157.72L235.516 159.72ZM240.796 159.72C242.067 159.72 243.156 159.203 244.009 158.239L242.511 156.913C242.015 157.474 241.461 157.72 240.796 157.72L240.796 159.72ZM243.995 158.254C244.883 157.292 245.316 156.106 245.316 154.76L243.316 154.76C243.316 155.644 243.045 156.334 242.525 156.898L243.995 158.254ZM245.316 154.76C245.316 153.414 244.883 152.228 243.995 151.266L242.525 152.622C243.045 153.186 243.316 153.876 243.316 154.76L245.316 154.76ZM244.009 151.281C243.156 150.317 242.067 149.8 240.796 149.8L240.796 151.8C241.461 151.8 242.015 152.046 242.511 152.607L244.009 151.281ZM282.826 175L282.826 176L284.222 176L283.773 174.678L282.826 175ZM275.126 175L274.173 175.303L274.395 176L275.126 176L275.126 175ZM273.586 170.16L274.539 169.857L274.317 169.16L273.586 169.16L273.586 170.16ZM262.146 170.16L262.146 169.16L261.415 169.16L261.193 169.857L262.146 170.16ZM260.606 175L260.606 176L261.337 176L261.559 175.303L260.606 175ZM252.906 175L251.959 174.678L251.51 176L252.906 176L252.906 175ZM263.378 144.2L263.378 143.2L262.662 143.2L262.431 143.878L263.378 144.2ZM272.354 144.2L273.301 143.878L273.07 143.2L272.354 143.2L272.354 144.2ZM267.866 152.252L268.819 151.948L267.866 148.962L266.914 151.948L267.866 152.252ZM264.258 163.56L263.306 163.256L262.89 164.56L264.258 164.56L264.258 163.56ZM271.474 163.56L271.474 164.56L272.843 164.56L272.427 163.256L271.474 163.56ZM282.826 174L275.126 174L275.126 176L282.826 176L282.826 174ZM276.079 174.697L274.539 169.857L272.633 170.463L274.173 175.303L276.079 174.697ZM273.586 169.16L262.146 169.16L262.146 171.16L273.586 171.16L273.586 169.16ZM261.193 169.857L259.653 174.697L261.559 175.303L263.099 170.463L261.193 169.857ZM260.606 174L252.906 174L252.906 176L260.606 176L260.606 174ZM253.853 175.322L264.325 144.522L262.431 143.878L251.959 174.678L253.853 175.322ZM263.378 145.2L272.354 145.2L272.354 143.2L263.378 143.2L263.378 145.2ZM271.407 144.522L281.879 175.322L283.773 174.678L273.301 143.878L271.407 144.522ZM266.914 151.948L263.306 163.256L265.211 163.864L268.819 152.556L266.914 151.948ZM264.258 164.56L271.474 164.56L271.474 162.56L264.258 162.56L264.258 164.56ZM272.427 163.256L268.819 151.948L266.914 152.556L270.522 163.864L272.427 163.256ZM285.452 175L284.452 175L284.452 176L285.452 176L285.452 175ZM285.452 144.2L285.452 143.2L284.452 143.2L284.452 144.2L285.452 144.2ZM292.493 144.2L293.493 144.2L293.493 143.2L292.493 143.2L292.493 144.2ZM292.493 175L292.493 176L293.493 176L293.493 175L292.493 175ZM286.452 175L286.452 144.2L284.452 144.2L284.452 175L286.452 175ZM285.452 145.2L292.493 145.2L292.493 143.2L285.452 143.2L285.452 145.2ZM291.493 144.2L291.493 175L293.493 175L293.493 144.2L291.493 144.2ZM292.493 174L285.452 174L285.452 176L292.493 176L292.493 174ZM314.945 160.92L314.129 161.499L315.945 164.054L315.945 160.92L314.945 160.92ZM314.945 144.2L314.945 143.2L313.945 143.2L313.945 144.2L314.945 144.2ZM321.985 144.2L322.985 144.2L322.985 143.2L321.985 143.2L321.985 144.2ZM321.985 175L321.985 176L322.985 176L322.985 175L321.985 175ZM316.705 175L315.889 175.579L316.188 176L316.705 176L316.705 175ZM304.825 158.28L305.64 157.701L303.825 155.146L303.825 158.28L304.825 158.28ZM304.825 175L304.825 176L305.825 176L305.825 175L304.825 175ZM297.785 175L296.785 175L296.785 176L297.785 176L297.785 175ZM297.785 144.2L297.785 143.2L296.785 143.2L296.785 144.2L297.785 144.2ZM303.065 144.2L303.88 143.621L303.581 143.2L303.065 143.2L303.065 144.2ZM315.945 160.92L315.945 144.2L313.945 144.2L313.945 160.92L315.945 160.92ZM314.945 145.2L321.985 145.2L321.985 143.2L314.945 143.2L314.945 145.2ZM320.985 144.2L320.985 175L322.985 175L322.985 144.2L320.985 144.2ZM321.985 174L316.705 174L316.705 176L321.985 176L321.985 174ZM317.52 174.421L305.64 157.701L304.009 158.859L315.889 175.579L317.52 174.421ZM303.825 158.28L303.825 175L305.825 175L305.825 158.28L303.825 158.28ZM304.825 174L297.785 174L297.785 176L304.825 176L304.825 174ZM298.785 175L298.785 144.2L296.785 144.2L296.785 175L298.785 175ZM297.785 145.2L303.065 145.2L303.065 143.2L297.785 143.2L297.785 145.2ZM302.249 144.779L314.129 161.499L315.76 160.341L303.88 143.621L302.249 144.779ZM334.301 162.768L334.301 161.768L333.301 161.768L333.301 162.768L334.301 162.768ZM334.301 168.224L333.301 168.224L333.301 169.224L334.301 169.224L334.301 168.224ZM346.621 168.224L347.621 168.224L347.621 167.224L346.621 167.224L346.621 168.224ZM346.621 175L346.621 176L347.621 176L347.621 175L346.621 175ZM327.261 175L326.261 175L326.261 176L327.261 176L327.261 175ZM327.261 144.2L327.261 143.2L326.261 143.2L326.261 144.2L327.261 144.2ZM346.401 144.2L347.401 144.2L347.401 143.2L346.401 143.2L346.401 144.2ZM346.401 150.976L346.401 151.976L347.401 151.976L347.401 150.976L346.401 150.976ZM334.301 150.976L334.301 149.976L333.301 149.976L333.301 150.976L334.301 150.976ZM334.301 156.08L333.301 156.08L333.301 157.08L334.301 157.08L334.301 156.08ZM345.301 156.08L346.301 156.08L346.301 155.08L345.301 155.08L345.301 156.08ZM345.301 162.768L345.301 163.768L346.301 163.768L346.301 162.768L345.301 162.768ZM333.301 162.768L333.301 168.224L335.301 168.224L335.301 162.768L333.301 162.768ZM334.301 169.224L346.621 169.224L346.621 167.224L334.301 167.224L334.301 169.224ZM345.621 168.224L345.621 175L347.621 175L347.621 168.224L345.621 168.224ZM346.621 174L327.261 174L327.261 176L346.621 176L346.621 174ZM328.261 175L328.261 144.2L326.261 144.2L326.261 175L328.261 175ZM327.261 145.2L346.401 145.2L346.401 143.2L327.261 143.2L327.261 145.2ZM345.401 144.2L345.401 150.976L347.401 150.976L347.401 144.2L345.401 144.2ZM346.401 149.976L334.301 149.976L334.301 151.976L346.401 151.976L346.401 149.976ZM333.301 150.976L333.301 156.08L335.301 156.08L335.301 150.976L333.301 150.976ZM334.301 157.08L345.301 157.08L345.301 155.08L334.301 155.08L334.301 157.08ZM344.301 156.08L344.301 162.768L346.301 162.768L346.301 156.08L344.301 156.08ZM345.301 161.768L334.301 161.768L334.301 163.768L345.301 163.768L345.301 161.768ZM356.753 164L356.753 165L357.64 165L357.746 164.119L356.753 164ZM351.473 164L350.48 164.119L350.586 165L351.473 165L351.473 164ZM350.153 153L349.153 153L349.153 153.06L349.16 153.119L350.153 153ZM350.153 144.2L350.153 143.2L349.153 143.2L349.153 144.2L350.153 144.2ZM358.073 144.2L359.073 144.2L359.073 143.2L358.073 143.2L358.073 144.2ZM358.073 153L359.066 153.119L359.073 153.06L359.073 153L358.073 153ZM357.061 174.384L357.768 175.091L357.061 174.384ZM351.165 174.384L351.872 173.677V173.677L351.165 174.384ZM351.165 168.488L351.872 169.195L351.165 168.488ZM357.061 168.488L357.768 167.781L357.061 168.488ZM356.753 163L351.473 163L351.473 165L356.753 165L356.753 163ZM352.466 163.881L351.146 152.881L349.16 153.119L350.48 164.119L352.466 163.881ZM351.153 153L351.153 144.2L349.153 144.2L349.153 153L351.153 153ZM350.153 145.2L358.073 145.2L358.073 143.2L350.153 143.2L350.153 145.2ZM357.073 144.2L357.073 153L359.073 153L359.073 144.2L357.073 144.2ZM357.08 152.881L355.76 163.881L357.746 164.119L359.066 153.119L357.08 152.881ZM357.293 171.436C357.293 172.31 356.991 173.04 356.354 173.677L357.768 175.091C358.774 174.085 359.293 172.85 359.293 171.436L357.293 171.436ZM356.354 173.677C355.717 174.314 354.987 174.616 354.113 174.616L354.113 176.616C355.527 176.616 356.763 176.097 357.768 175.091L356.354 173.677ZM354.113 174.616C353.239 174.616 352.509 174.314 351.872 173.677L350.458 175.091C351.464 176.097 352.699 176.616 354.113 176.616L354.113 174.616ZM351.872 173.677C351.235 173.04 350.933 172.31 350.933 171.436L348.933 171.436C348.933 172.85 349.452 174.085 350.458 175.091L351.872 173.677ZM350.933 171.436C350.933 170.562 351.235 169.832 351.872 169.195L350.458 167.781C349.452 168.787 348.933 170.022 348.933 171.436L350.933 171.436ZM351.872 169.195C352.509 168.558 353.239 168.256 354.113 168.256L354.113 166.256C352.699 166.256 351.464 166.775 350.458 167.781L351.872 169.195ZM354.113 168.256C354.987 168.256 355.717 168.558 356.354 169.195L357.768 167.781C356.763 166.775 355.527 166.256 354.113 166.256L354.113 168.256ZM356.354 169.195C356.991 169.832 357.293 170.562 357.293 171.436L359.293 171.436C359.293 170.022 358.774 168.787 357.768 167.781L356.354 169.195Z" fill="#757575"/>
  <circle cx="141.5" cy="159.5" r="10.5" fill="#0057B7"/>
</svg>