<svg xmlns="http://www.w3.org/2000/svg" viewBox="0 0 30 30"><path fill-rule="evenodd" d="M3.333 0A3.333 3.333 0 0 0 0 3.333V10a3.333 3.333 0 0 0 3.333 3.333H10A3.333 3.333 0 0 0 13.333 10V3.333A3.333 3.333 0 0 0 10 0H3.333Zm0 3.333H10V10H3.333V3.333ZM20 0a3.333 3.333 0 0 0-3.333 3.333V10A3.333 3.333 0 0 0 20 13.333h6.667A3.333 3.333 0 0 0 30 10V3.333A3.333 3.333 0 0 0 26.667 0H20Zm0 3.333h6.667V10H20V3.333ZM16.667 20A3.333 3.333 0 0 1 20 16.667h6.667A3.333 3.333 0 0 1 30 20v6.667A3.333 3.333 0 0 1 26.667 30H20a3.333 3.333 0 0 1-3.333-3.333V20Zm10 0H20v6.667h6.667V20ZM3.333 16.667A3.333 3.333 0 0 0 0 20v6.667A3.333 3.333 0 0 0 3.333 30H10a3.333 3.333 0 0 0 3.333-3.333V20A3.333 3.333 0 0 0 10 16.667H3.333Zm0 3.333H10v6.667H3.333V20Z" clip-rule="evenodd"/></svg>