<svg xmlns="http://www.w3.org/2000/svg"  viewBox="0 0 46 31"><path fill="#070707" d="M18.093 14.287c.362-.28.807-.361 1.209-.523.364-.202.485-.607.364-1.009-.04-.162-.121-.283-.283-.323-.605-.162-1.13.161-1.735.08-.121-.04-.242-.12-.242-.242.08-.443.202-.888.364-1.332.928-2.259 2.017-4.398 2.986-6.616.202-.564.606-1.13.404-1.734-.162-.566-.928-.405-1.37-.243-.528.243-.971.564-1.456.845-.284.162-.645.081-.928.243-.848.606-1.171 1.534-1.573 2.381-.483.928-.807 1.856-1.211 2.784-.686 1.616-1.492 3.148-2.218 4.761l-3.922.886s2.79-6.534 3.96-9.884c.04-.162 0-.404-.121-.524-.445-.364-1.05-.161-1.532 0-.888 2.058-1.743 4.09-2.663 6.175-.605 1.37-.958 2.025-1.482 3.438-.08.203-.455 1.363-.455 1.363-2.264.833-3.417 1.136-5.206 1.694-.12.524-.402.969-.483 1.494.443.04.968 0 1.33.162.283.121.122.605.324.847.445.364 1.009.485 1.373.969.202.242.242.564.242.887-.04.888-.483 1.694-.766 2.582a85.242 85.242 0 0 1-1.17 3.429c-.122.323.08.685.161 1.009.121.202.364.321.605.161.202-.161.323-.404.444-.604.405-.807.686-1.614 1.01-2.42.685-1.856 1.25-3.712 1.936-5.568 1.37-.283 2.703-.685 4.116-.685.081 0 .04.202.04.323-.685 2.825-1.653 5.287-2.298 8.07-.081.243-.162.565-.04.686a14.969 14.969 0 0 1 2.017 2.46c.04.041.121.081.202.081.283.04.605.04.847.04.324-.04.364-.525.486-.806 1.09-2.541 1.734-5.125 2.54-7.747.284-.847.565-1.654.808-2.541.202-.807.404-1.573.725-2.34.122-.242.324-.404.524-.566.683-.772 1.288-1.536 2.137-2.143Zm26.67-13.034c-.485-.725-1.534-.564-2.139-.12-1.613 1.21-1.936 3.147-2.703 4.841-.202.405-.444.766-.604 1.13-1.896 3.955-3.39 7.91-5.246 11.864-.417.83-.706 1.714-1.05 2.703-.04.04-.08.04-.121.08-.121-.242-.485-.404-.445-.685.202-3.428.686-6.738 1.13-10.21a47.2 47.2 0 0 1 .405-2.338c.161-.969.404-1.776.604-2.744.162-.685.202-1.33.243-2.018 0-.685.04-1.453-.243-2.098-.202-.485-.604-1.09-1.251-.928-.243.08-.443.283-.686.364-.685.162-1.613-.04-1.936.685-2.501 5.972-4.432 12.005-6.213 18.238-.243.847-.564 1.613-.685 2.5-.122.808-.324 1.533-.486 2.342-.161.928-.523 1.775-.604 2.703-.081.483-.081.928-.043 1.411.152.445 1.02-.06 1.292-.442.122-.888.324-1.735.526-2.663.364-1.896.928-3.631 1.492-5.447a94.304 94.304 0 0 1 2.905-7.99c.081-.242.121-.565.404-.766 0 1.775-.323 3.51-.364 5.287-.04 2.703-.161 5.366-.161 8.07 0 .284.283.444.485.646.807.645 1.587 1.223 2.044 2.15.089.18.378-.135.538-.294.404-.445.726-.969.928-1.494.442-1.05.847-2.059 1.292-3.108 1.492-3.469 2.986-6.9 4.72-10.248.04.04.081.081.081.122-.523 5.246-1.532 10.29-1.815 15.494 0 .283.323.485.442.726.283.685.605 1.372 1.252 1.734.485.243 1.13.04 1.292-.445.08-.363.08-.766.121-1.17.08-.404.202-.807.243-1.211.161-1.05.364-2.018.564-3.107.283-1.695.564-3.23.887-4.923 1.05-5.568 2.099-10.572 3.108-16.14.16-.845.321-1.773-.203-2.5ZM21.401 21.168c-.556-.186-1.084.502-1.412.868-.202-.364-.364-.928-.08-1.211.568-.568.79-1.007.525-1.856-.242-.847-1.332-1.05-2.098-.767-.552.193-.77.945-.718 1.624.02.279.085.546.192.758.08.162.162.443.283.605-.52.141-1.357 1.146-1.866 2.193-.26.538-.435 1.088-.435 1.539 0 .847 1.191 1.41 1.897 1.188.475-.15.806-.483 1.251-.725.404.321.685.766 1.17 1.09.043 0 .122 0 .122-.041.162-.807-.202-1.613.162-2.3.283-.484.726-.807 1.049-1.293.338-.507.526-1.504-.043-1.672Zm-2.744 2.764c-.04.324-.323.445-.645.524-.162.04-.323-.04-.445-.202a.647.647 0 0 1-.07-.514c.04-.148.105-.288.192-.414.12-.203.408-.338.645-.243.404.164.404.528.323.85Zm.564-3.752c-.198-.05-.323-.259-.398-.473a1.85 1.85 0 0 1-.085-.374c-.024-.204.162-.38.364-.364.232.02.564.162.523.485-.04.283-.08.766-.404.726Z"/></svg>
