<svg xmlns="http://www.w3.org/2000/svg" viewBox="0 0 63 29"><path fill="#000" d="M22.557 6.245v9.114c0 2.693-1.9 4.627-4.61 4.627-1.397 0-2.942-.611-4.041-1.47l1.669-4.182c.248.645.537 1.421 1.306 1.421.793 0 .859-.9.859-1.47v-8.04h4.817Zm6.321 0 1.504 3.536h.14c.141-.43.273-.86.447-1.272l.967-2.264h5.536l-4.627 7.692v5.834h-4.81v-5.834l-4.718-7.692h5.561Zm9.04 8.684.248.198c.876.686 1.934 1.24 3.066 1.24.487 0 1.255-.198 1.255-.81 0-.611-.644-.661-1.09-.752l-.983-.182c-1.918-.338-3.537-1.47-3.537-3.586 0-3.214 2.925-5.007 5.867-5.007 1.545 0 2.958.38 4.288 1.181l-1.33 3.463c-.843-.57-1.793-1.025-2.851-1.025-.43 0-1.058.165-1.058.719 0 .504.612.57.984.66l1.115.249c2.082.463 3.586 1.578 3.586 3.875 0 3.231-2.941 4.826-5.866 4.826-1.703 0-3.677-.463-5.206-1.24l1.512-3.809Zm11.023-8.684h4.792l-.107 5.866h.107c.108-.553.414-1.04.678-1.528l2.371-4.338h5.363l-4.23 6.585 4.684 6.941h-5.701l-2.33-4.09c-.29-.52-.719-1.025-.826-1.578h-.108l.108 5.668h-4.793V6.245h-.008ZM5.717 3.41a.699.699 0 0 0-.495.207.667.667 0 0 0-.182.504c.008.306.173.645.446.909.47.454 1.09.545 1.421.207a.687.687 0 0 0 .182-.488c0-.297-.157-.644-.446-.925-.273-.273-.62-.422-.926-.414Z"/><path fill="#000" d="M7.65 28.06c.199-.727.257-1.487.257-1.487.024-.207.04-.413.05-.628.123-2.562-.794-5.743-2.686-8.288-1.917-2.586-3.132-4.462-3.132-6.032 0-1.57 1.149-2.322 1.958-2.503.818-.182 2.959-.182 3.735-.843.769-.645 1.207-1.57 1.116-2.71-.083-1.15-.364-3.653-4.24-3.835-1.363-.057-2.792.496-3.759 1.24V.949a8.782 8.782 0 0 1 3.909-.9c3.197 0 4.668 2.049 4.668 2.049s1.9.785 3.223 1.81c1.33 1.024 2.412 2.14 2.503 2.288.091.15.33.728-.479.992-.818.273-2.437.57-4.098.57 0 0-1.083 1.934-2.801 2.529-1.72.603-3.71.024-3.801 1.594-.058 1.083.9 2.38 1.264 2.892.363.513 4.487 4.62 4.247 10.916-.05 1.355-.264 2.363-.264 2.363l-1.67.008Zm3.124-21.888s.934.124 1.719.148c.784.033.66-.33.66-.33-.363-.298-2.503-1.504-2.503-1.504-.298.777.124 1.686.124 1.686Z"/></svg>
