<svg xmlns="http://www.w3.org/2000/svg"  viewBox="0 0 55 26"><path fill="#070707" d="M52.932.848a1.423 1.423 0 0 0-1.424 1.427 1.422 1.422 0 0 0 1.424 1.423 1.422 1.422 0 0 0 1.32-1.97 1.424 1.424 0 0 0-1.32-.88Zm0 .281c.634 0 1.15.513 1.15 1.146a1.144 1.144 0 1 1-2.29 0c0-.633.508-1.146 1.14-1.146Zm.726 1.889-.17-.297c-.15-.261-.192-.3-.317-.347v-.006c.25-.03.398-.192.398-.414 0-.234-.148-.411-.466-.411h-.734v1.475h.304v-.604h.054c.13 0 .183.013.243.073.058.06.149.185.202.29l.118.241h.368Zm-.986-.842v-.403h.274c.202 0 .307.07.307.2 0 .104-.066.203-.271.203h-.31Zm-7.104 6.828c-.061 1.52-2.288 7.597-3.079 8.938-.343.582-.729 1.062-1.426 1.06-.607 0-.878-.43-.895-.922-.044-1.371 2.473-8.246 3.334-9.365.382-.59.81-.685 1.298-.678.714.009.785.525.768.967Zm4.058 2.481c-.506 2.519-1.643 5.498-2.88 7.719-2.015 3.624-4.462 4.13-6.598 4.105-2.134-.026-4.546-.814-4.563-4.11-.013-2.368 1.007-5.708 1.875-7.897 1.51-3.97 3.054-7.206 7.934-7.148 5.69.066 4.676 5.128 4.232 7.331Zm-18.07-3.53c-.824 0-1.362.521-1.763 1.085-.881 1.238-2.794 6.202-3.091 8.24-.202 1.398.4 1.681 1.06 1.681 1.058 0 2.242-1.118 2.647-2.964 0 0-2.013-.05-1.458-1.835.538-1.733 1.563-2.107 3.258-2.177 3.342-.137 3.011 2.33 2.744 3.646-.868 4.273-3.909 7.705-8.21 7.705-2.946 0-4.773-1.63-4.773-4.633 0-2.138 1.062-5.497 1.902-7.462 1.791-4.184 3.67-7.113 8.455-7.113 2.87 0 5.135 1.032 4.802 3.721-.243 1.974-1.23 3.134-3.024 3.274-.502.039-2.557-.014-1.875-1.957.237-.678.336-1.21-.673-1.21Zm-14.97 7.398c-.198.534-.57 1.65-.87 2.833.975-.242 1.708-.415 2.963-.382 1.431.034 2.346.628 2.346 1.81 0 2.867-3.17 3.71-5.368 3.71-2.415 0-4.534-1.376-4.534-4.014 0-3.096 1.677-7.787 3.25-10.913 1.935-3.839 3.91-4.35 7.313-4.35 1.495 0 3.217.64 3.217 2.05 0 1.957-1.658 2.703-3.302 2.8-.701.038-1.781.078-2.427.032 0 0-.547.835-1.13 2.319 3.045-.429 4.336.263 3.822 2.023-.695 2.377-2.757 2.535-5.28 2.082Zm-9.695 2.75c2.978-.516 3.727.561 3.632 1.555-.28 2.985-3.018 3.651-5.395 3.596-1.724-.04-3.273-.83-3.317-2.83C1.736 16.921 5.307 8.822 6.99 6.137c.775-1.275 1.721-1.904 3.23-1.904 1.428 0 1.784.733 1.762 1.612-.055 2.345-3.846 9.473-5.09 12.258ZM45.176 2.377c-3.074 0-5.199 1.22-6.637 2.92a3.792 3.792 0 0 0-.688-1.026c-1.177-1.33-3.07-1.952-5.61-1.952-2.48 0-4.55.775-5.985 1.996-.746-1.212-2.523-2.017-4.667-2.017-2.802 0-5.853.398-7.664 3.315-.042-1.05-.139-1.605-.73-2.232-.717-.758-1.878-.958-3.01-.958-2.062 0-3.612.9-4.728 2.735C3.838 7.743-.088 16.255.002 20.375c.055 2.665 1.842 4.582 5.039 4.657 2.498.06 4.457-.608 5.704-1.864 1.118 1.212 2.824 1.926 4.865 1.926 2.273 0 4.562-.681 5.914-2.174 1.139 1.397 2.93 2.21 5.232 2.2 3.013-.014 5.656-1.442 7.385-3.631.946 2.58 3.35 3.605 5.977 3.605 5.754 0 8.28-3.955 10.386-10.213.474-1.41 1.107-3.762 1.213-5.737.173-3.29-1.218-6.768-6.541-6.768Z"/></svg>
