<svg xmlns="http://www.w3.org/2000/svg" viewBox="0 0 34 34"><path fill-rule="evenodd" d="M20.107.443c-.92.009-1.658.782-1.65 1.728.008.946.76 1.706 1.68 1.697l7.808-.072-11.248 11.57a1.747 1.747 0 0 0 0 2.422c.65.668 1.704.668 2.355 0L30.3 6.218l-.07 8.032c-.009.945.73 1.719 1.65 1.727.92.009 1.671-.75 1.68-1.697l.106-12.219A1.738 1.738 0 0 0 33.18.835a1.641 1.641 0 0 0-1.192-.502l-11.88.11Zm-18.109.685c-.92 0-1.665.767-1.665 1.713v29.113c0 .946.746 1.712 1.665 1.712h29.969c.92 0 1.665-.766 1.665-1.712V23.39c0-.946-.745-1.712-1.665-1.712s-1.665.766-1.665 1.712v6.85H3.663V4.553h7.492c.92 0 1.665-.766 1.665-1.712s-.745-1.713-1.665-1.713H1.998Z" clip-rule="evenodd"/></svg>