<svg height="75" viewBox="0 0 36 50" xmlns="http://www.w3.org/2000/svg">
<path fill-rule="evenodd" fill="#fff" clip-rule="evenodd" d="M28.7532 24.6382L18 42.3752L7.24683 24.6382C2.03123 16.0352 8.09108 4.92727 18 4.92727C27.9089 4.92727 33.9688 16.0352 28.7532 24.6382ZM3.14393 27.2316C-4.06171 15.3462 4.3103 0 18 0C31.6897 0 40.0617 15.3462 32.8561 27.2316L19.6067 49.0861C18.868 50.3046 17.132 50.3046 16.3933 49.0861L3.14393 27.2316ZM18.0005 12.3182C15.3355 12.3182 13.175 14.5242 13.175 17.2454C13.175 19.9667 15.3355 22.1727 18.0005 22.1727C20.6655 22.1727 22.8259 19.9667 22.8259 17.2454C22.8259 14.5242 20.6655 12.3182 18.0005 12.3182Z" />
</svg>
