<svg xmlns="http://www.w3.org/2000/svg" viewBox="0 0 755.34 201.2">
  <g>
    <path class="arrow arrow-left" d="M46.74,50H89L42.21,113.31h17a15,15,0,0,1,12.06,23.9L42.21,176.62,0,113.31Z"/>
    <path class="arrow arrow-right" d="M108.89,157.86H68.15a.6.6,0,0,1-.47-1L113,95.49a.59.59,0,0,0-.47-.94H96.69A15,15,0,0,1,84.63,70.64l28.59-38.72a.59.59,0,0,1,1,0L155.7,94.2a.6.6,0,0,1,0,.68l-46.32,62.74A.58.58,0,0,1,108.89,157.86Z"/>
  </g>
  <g>
    <path class="letter" d="M297.71,68.37l-46.62,63.39h48.82v26.17H213.05v-18.6l46.4-63.39h-44.2V49.76h82.46Z"/>
    <path class="letter" d="M397.55,62.52V49.76h28.37V157.93H397.55V145.17Q384.8,161,361.71,161q-22,0-37.83-16.44-15.61-16.67-15.61-40.67,0-23.8,15.61-40.46,15.84-16.66,37.83-16.66Q384.8,46.73,397.55,62.52Zm-52.34,63.39q8.58,8.44,21.78,8.44t21.77-8.44q8.79-8.64,8.79-22.06T388.76,82q-8.58-8.66-21.77-8.66T345.21,82q-8.56,8.43-8.57,21.85T345.21,125.91Z"/>
    <path class="letter" d="M515.64,46.73q22.22,0,37.83,16.66,15.82,16.67,15.83,40.46,0,24.22-15.83,40.67Q538.07,161,515.64,161q-23.08,0-35.62-15.79v56H451.65V49.76H480V62.52Q492.55,46.74,515.64,46.73Zm-27.05,79.18q8.58,8.44,21.77,8.44t21.77-8.44q8.8-8.64,8.8-22.06T532.13,82q-8.57-8.66-21.77-8.66T488.59,82Q480,90.43,480,103.85T488.59,125.91Z"/>
    <path class="letter" d="M672.87,62.52V49.76h28.37V157.93H672.87V145.17Q660.12,161,637,161q-22,0-37.83-16.44-15.62-16.67-15.61-40.67,0-23.8,15.61-40.46Q615,46.73,637,46.73,660.12,46.73,672.87,62.52Zm-52.33,63.39q8.57,8.44,21.77,8.44t21.77-8.44q8.79-8.64,8.79-22.06T664.08,82q-8.58-8.66-21.77-8.66T620.54,82Q612,90.43,612,103.85T620.54,125.91Z"/>
    <path class="letter" d="M755.34,157.93H727V0h28.37Z"/>
  </g>
</svg>