<svg xmlns="http://www.w3.org/2000/svg" viewBox="0 0 755.34 201.2"><path d="M108.89 157.86H68.15a.6.6 0 0 1-.47-1L113 95.49a.59.59 0 0 0-.47-.94H96.69a15 15 0 0 1-12.06-23.91l28.59-38.72a.59.59 0 0 1 1 0L155.7 94.2a.6.6 0 0 1 0 .68l-46.32 62.74a.58.58 0 0 1-.49.24Z"/><path d="M46.74 50H89l-46.79 63.31h17a15 15 0 0 1 12.06 23.9l-29.06 39.41L0 113.31ZM297.71 68.37l-46.62 63.39h48.82v26.17h-86.86v-18.6l46.4-63.39h-44.2V49.76h82.46Zm99.84-5.85V49.76h28.37v108.17h-28.37v-12.76Q384.8 161 361.71 161q-22 0-37.83-16.44-15.61-16.67-15.61-40.67 0-23.8 15.61-40.46 15.84-16.66 37.83-16.66 23.09-.04 35.84 15.75Zm-52.34 63.39q8.58 8.44 21.78 8.44t21.77-8.44q8.79-8.64 8.79-22.06T388.76 82q-8.58-8.66-21.77-8.66T345.21 82q-8.56 8.43-8.57 21.85t8.57 22.06Zm170.43-79.18q22.22 0 37.83 16.66 15.82 16.67 15.83 40.46 0 24.22-15.83 40.67Q538.07 161 515.64 161q-23.08 0-35.62-15.79v56h-28.37V49.76H480v12.76q12.55-15.78 35.64-15.79Zm-27.05 79.18q8.58 8.44 21.77 8.44t21.77-8.44q8.8-8.64 8.8-22.06T532.13 82q-8.57-8.66-21.77-8.66T488.59 82Q480 90.43 480 103.85t8.59 22.06Zm184.28-63.39V49.76h28.37v108.17h-28.37v-12.76Q660.12 161 637 161q-22 0-37.83-16.44-15.62-16.67-15.61-40.67 0-23.8 15.61-40.46Q615 46.73 637 46.73q23.12 0 35.87 15.79Zm-52.33 63.39q8.57 8.44 21.77 8.44t21.77-8.44q8.79-8.64 8.79-22.06T664.08 82q-8.58-8.66-21.77-8.66T620.54 82Q612 90.43 612 103.85t8.54 22.06ZM755.34 157.93H727V0h28.37Z"/></svg>