<svg xmlns="http://www.w3.org/2000/svg"  viewBox="0 0 59 8"><path fill="#000" fill-rule="evenodd" d="M40.817.51h1.193v6.11h5.17l-.759 1.194h-5.604V.51ZM31.45 7.814 27.04.854c-.271-.452-.994-.452-1.302.018l-4.375 6.942h1.446l1.32-2.097h2.82l.742-1.193h-2.82l1.537-2.405 3.598 5.695h1.445ZM34.136.512c-2.016 0-3.343 1.634-3.343 3.65s1.328 3.65 3.343 3.65l4.9-.006.768-1.183h-5.632c-1.359 0-2.154-1.102-2.154-2.46 0-1.36.795-2.462 2.154-2.462h5.017l.74-1.192-5.793.003Zm-30.59 1.19h5.17c1.36 0 2.154 1.101 2.154 2.46 0 1.36-.794 2.461-2.154 2.461h-5.17c-1.36 0-2.154-1.102-2.154-2.46 0-1.36.795-2.462 2.154-2.462Zm0-1.19C1.53.512.203 2.146.203 4.162s1.327 3.65 3.343 3.65h5.17c2.016 0 3.343-1.634 3.343-3.65S10.732.512 8.716.512h-5.17Zm44.909 4.229c.194 1.08.937 1.882 2.098 1.882h5.631l-.767 1.183-4.9.006c-2.017 0-3.343-1.634-3.343-3.65s1.327-3.65 3.342-3.65L56.31.51l-.74 1.192h-5.017c-1.144 0-1.89.79-2.098 1.847h7.079l-.76 1.193h-6.319Zm-29.65.106a2.168 2.168 0 0 0 0-4.335L12.72.51v7.304h1.338V1.701h4.746a.978.978 0 1 1 0 1.956h-3.806l4.293 4.149h1.727l-3.073-2.957.859-.002ZM57.56.517c.31 0 .555.245.555.57 0 .33-.245.573-.556.573a.554.554 0 0 1-.558-.573c0-.325.244-.57.559-.57V.402a.686.686 0 1 0 0 1.372.685.685 0 1 0 0-1.372v.115Z" clip-rule="evenodd"/></svg>