<svg xmlns="http://www.w3.org/2000/svg" viewBox="0 0 24 34"><path fill="inherit" fill-rule="evenodd" d="m19.169 16.759-7.17 11.825-7.168-11.825C1.354 11.024 5.394 3.619 12 3.619s10.646 7.405 7.169 13.14ZM2.096 18.488C-2.708 10.564 2.873.333 12 .333c9.126 0 14.708 10.231 9.904 18.155l-8.833 14.57a1.246 1.246 0 0 1-2.142 0l-8.833-14.57ZM12 8.546c-1.776 0-3.217 1.47-3.217 3.285 0 1.814 1.44 3.284 3.217 3.284 1.777 0 3.217-1.47 3.217-3.284 0-1.815-1.44-3.285-3.217-3.285Z" clip-rule="evenodd"/></svg>