<svg xmlns="http://www.w3.org/2000/svg" viewBox="0 0 30 34"><path fill-rule="evenodd" d="M5 .333c-2.761 0-5 2.265-5 5.06v18.154a5.066 5.066 0 0 0 2.764 4.525l10 5.06a4.948 4.948 0 0 0 4.472 0l10-5.06A5.066 5.066 0 0 0 30 23.547V5.393c0-2.795-2.239-5.06-5-5.06H5Zm-1.667 5.06c0-.932.747-1.687 1.667-1.687h20c.92 0 1.667.755 1.667 1.687v18.154c0 .639-.357 1.223-.922 1.508l-10 5.06a1.65 1.65 0 0 1-1.49 0l-10-5.06a1.689 1.689 0 0 1-.922-1.508V5.393Zm17.18 7.74a1.7 1.7 0 0 0-.364-2.357 1.654 1.654 0 0 0-2.329.37l-3.569 4.952-1.277-1.633a1.654 1.654 0 0 0-2.342-.275 1.7 1.7 0 0 0-.272 2.369l2.639 3.373c.323.414.819.65 1.34.64a1.661 1.661 0 0 0 1.313-.693l4.861-6.746Z" clip-rule="evenodd"/></svg>