<svg xmlns="http://www.w3.org/2000/svg"  viewBox="0 0 44 44"><path fill="#000" d="M22.225.4C10.419.4.85 9.97.85 21.775c0 11.806 9.57 21.375 21.375 21.375S43.6 33.58 43.6 21.775C43.6 9.971 34.03.402 22.225.4Zm9.803 30.828a1.331 1.331 0 0 1-1.832.444c-5.02-3.068-11.338-3.76-18.778-2.061a1.331 1.331 0 0 1-1.595-1.002 1.33 1.33 0 0 1 1.002-1.596c8.141-1.86 15.126-1.059 20.76 2.383.628.387.828 1.205.443 1.832Zm2.615-5.818a1.668 1.668 0 0 1-2.293.549c-5.744-3.532-14.504-4.554-21.3-2.492a1.669 1.669 0 0 1-2.08-1.11 1.67 1.67 0 0 1 1.112-2.078c7.763-2.356 17.414-1.215 24.01 2.84a1.665 1.665 0 0 1 .55 2.291Zm.224-6.062c-6.89-4.09-18.255-4.467-24.833-2.472a1.998 1.998 0 1 1-1.16-3.826c7.551-2.291 20.102-1.85 28.034 2.86a2 2 0 0 1-2.04 3.438Z"/></svg>
