<svg  viewBox="0 0 1432 323" fill="none" xmlns="http://www.w3.org/2000/svg">
<path d="M516.9 176L518.9 176L518.9 174L516.9 174L516.9 176ZM516.9 197.56L516.9 199.56L518.9 199.56L518.9 197.56L516.9 197.56ZM479.8 197.56L479.8 195.56L477.8 195.56L477.8 197.56L479.8 197.56ZM479.8 216.46L477.8 216.46L477.8 218.46L479.8 218.46L479.8 216.46ZM516.2 216.46L518.2 216.46L518.2 214.46L516.2 214.46L516.2 216.46ZM516.2 238.02L516.2 240.02L518.2 240.02L518.2 238.02L516.2 238.02ZM479.8 238.02L479.8 236.02L477.8 236.02L477.8 238.02L479.8 238.02ZM479.8 274L479.8 276L481.8 276L481.8 274L479.8 274ZM457.4 274L455.4 274L455.4 276L457.4 276L457.4 274ZM457.4 176L457.4 174L455.4 174L455.4 176L457.4 176ZM514.9 176L514.9 197.56L518.9 197.56L518.9 176L514.9 176ZM516.9 195.56L479.8 195.56L479.8 199.56L516.9 199.56L516.9 195.56ZM477.8 197.56L477.8 216.46L481.8 216.46L481.8 197.56L477.8 197.56ZM479.8 218.46L516.2 218.46L516.2 214.46L479.8 214.46L479.8 218.46ZM514.2 216.46L514.2 238.02L518.2 238.02L518.2 216.46L514.2 216.46ZM516.2 236.02L479.8 236.02L479.8 240.02L516.2 240.02L516.2 236.02ZM477.8 238.02L477.8 274L481.8 274L481.8 238.02L477.8 238.02ZM479.8 272L457.4 272L457.4 276L479.8 276L479.8 272ZM459.4 274L459.4 176L455.4 176L455.4 274L459.4 274ZM457.4 178L516.9 178L516.9 174L457.4 174L457.4 178ZM605.734 274L605.734 276L609.206 276L607.465 272.997L605.734 274ZM581.654 274L579.92 274.996L580.496 276L581.654 276L581.654 274ZM563.174 241.8L564.909 240.804L564.333 239.8L563.174 239.8L563.174 241.8ZM552.534 241.8L552.534 239.8L550.534 239.8L550.534 241.8L552.534 241.8ZM552.534 274L552.534 276L554.534 276L554.534 274L552.534 274ZM530.134 274L528.134 274L528.134 276L530.134 276L530.134 274ZM530.134 176L530.134 174L528.134 174L528.134 176L530.134 176ZM593.134 185.8L594.549 184.386L593.134 185.8ZM597.894 226.12L596.221 225.025L596.214 225.035L596.207 225.046L597.894 226.12ZM584.874 238.02L583.956 236.244L582.092 237.208L583.144 239.023L584.874 238.02ZM552.534 197L552.534 195L550.534 195L550.534 197L552.534 197ZM552.534 222.2L550.534 222.2L550.534 224.2L552.534 224.2L552.534 222.2ZM577.174 218.56L575.705 217.203L575.69 217.219L575.676 217.235L577.174 218.56ZM577.174 200.64L575.676 201.965L575.69 201.981L575.705 201.997L577.174 200.64ZM605.734 272L581.654 272L581.654 276L605.734 276L605.734 272ZM583.389 273.004L564.909 240.804L561.44 242.796L579.92 274.996L583.389 273.004ZM563.174 239.8L552.534 239.8L552.534 243.8L563.174 243.8L563.174 239.8ZM550.534 241.8L550.534 274L554.534 274L554.534 241.8L550.534 241.8ZM552.534 272L530.134 272L530.134 276L552.534 276L552.534 272ZM532.134 274L532.134 176L528.134 176L528.134 274L532.134 274ZM530.134 178L569.334 178L569.334 174L530.134 174L530.134 178ZM569.334 178C578.143 178 585.566 181.06 591.72 187.214L594.549 184.386C587.636 177.473 579.192 174 569.334 174L569.334 178ZM591.72 187.214C597.874 193.368 600.934 200.791 600.934 209.6L604.934 209.6C604.934 199.742 601.461 191.298 594.549 184.386L591.72 187.214ZM600.934 209.6C600.934 215.073 599.378 220.202 596.221 225.025L599.568 227.215C603.131 221.771 604.934 215.887 604.934 209.6L600.934 209.6ZM596.207 225.046C593.13 229.881 589.056 233.606 583.956 236.244L585.793 239.796C591.52 236.834 596.125 232.626 599.582 227.194L596.207 225.046ZM583.144 239.023L604.004 275.003L607.465 272.997L586.605 237.017L583.144 239.023ZM569.334 195L552.534 195L552.534 199L569.334 199L569.334 195ZM550.534 197L550.534 222.2L554.534 222.2L554.534 197L550.534 197ZM552.534 224.2L569.334 224.2L569.334 220.2L552.534 220.2L552.534 224.2ZM569.334 224.2C573.02 224.2 576.168 222.716 578.672 219.885L575.676 217.235C573.887 219.258 571.809 220.2 569.334 220.2L569.334 224.2ZM578.644 219.917C581.252 217.092 582.534 213.609 582.534 209.6L578.534 209.6C578.534 212.685 577.577 215.175 575.705 217.203L578.644 219.917ZM582.534 209.6C582.534 205.591 581.252 202.108 578.644 199.283L575.705 201.997C577.577 204.025 578.534 206.515 578.534 209.6L582.534 209.6ZM578.672 199.315C576.168 196.484 573.02 195 569.334 195L569.334 199C571.809 199 573.887 199.942 575.676 201.965L578.672 199.315ZM697.78 261.26L696.373 259.839L697.78 261.26ZM625.54 261.26L626.947 259.839L625.54 261.26ZM641.22 246L639.806 247.414L641.22 246ZM681.96 246L680.546 244.586L681.96 246ZM681.96 204L680.546 205.414L681.96 204ZM641.22 204L642.634 205.414L641.22 204ZM696.373 259.839C686.861 269.26 675.331 273.96 661.66 273.96L661.66 277.96C676.363 277.96 688.912 272.86 699.187 262.681L696.373 259.839ZM661.66 273.96C647.989 273.96 636.459 269.26 626.947 259.839L624.133 262.681C634.408 272.86 646.957 277.96 661.66 277.96L661.66 273.96ZM626.947 259.839C617.447 250.428 612.7 238.859 612.7 225L608.7 225C608.7 239.888 613.847 252.492 624.133 262.681L626.947 259.839ZM612.7 225C612.7 211.141 617.447 199.572 626.947 190.161L624.133 187.319C613.847 197.508 608.7 210.112 608.7 225L612.7 225ZM626.947 190.161C636.459 180.74 647.989 176.04 661.66 176.04L661.66 172.04C646.957 172.04 634.408 177.14 624.133 187.319L626.947 190.161ZM661.66 176.04C675.331 176.04 686.861 180.74 696.373 190.161L699.187 187.319C688.912 177.14 676.363 172.04 661.66 172.04L661.66 176.04ZM696.373 190.161C705.873 199.572 710.62 211.141 710.62 225L714.62 225C714.62 210.112 709.473 197.508 699.187 187.319L696.373 190.161ZM710.62 225C710.62 238.859 705.873 250.428 696.373 259.839L699.187 262.681C709.473 252.492 714.62 239.888 714.62 225L710.62 225ZM631.1 225C631.1 234.047 633.97 241.579 639.806 247.414L642.634 244.586C637.643 239.595 635.1 233.127 635.1 225L631.1 225ZM639.806 247.414C645.623 253.232 652.959 256.12 661.66 256.12L661.66 252.12C653.934 252.12 647.643 249.595 642.634 244.586L639.806 247.414ZM661.66 256.12C670.275 256.12 677.561 253.227 683.374 247.414L680.546 244.586C675.532 249.6 669.285 252.12 661.66 252.12L661.66 256.12ZM683.374 247.414C689.292 241.497 692.22 233.971 692.22 225L688.22 225C688.22 233.016 685.642 239.49 680.546 244.586L683.374 247.414ZM692.22 225C692.22 216.029 689.292 208.503 683.374 202.586L680.546 205.414C685.642 210.51 688.22 216.984 688.22 225L692.22 225ZM683.374 202.586C677.561 196.773 670.275 193.88 661.66 193.88L661.66 197.88C669.285 197.88 675.532 200.4 680.546 205.414L683.374 202.586ZM661.66 193.88C652.959 193.88 645.623 196.768 639.806 202.586L642.634 205.414C647.643 200.405 653.934 197.88 661.66 197.88L661.66 193.88ZM639.806 202.586C633.97 208.421 631.1 215.953 631.1 225L635.1 225C635.1 216.873 637.643 210.405 642.634 205.414L639.806 202.586ZM800.832 176L800.832 174L799.71 174L799.125 174.957L800.832 176ZM823.232 176L825.232 176L825.232 174L823.232 174L823.232 176ZM823.232 274L823.232 276L825.232 276L825.232 274L823.232 274ZM800.832 274L798.832 274L798.832 276L800.832 276L800.832 274ZM800.832 217.02L802.832 217.02L802.832 209.895L799.124 215.979L800.832 217.02ZM775.492 258.6L775.492 260.6L776.615 260.6L777.2 259.641L775.492 258.6ZM772.972 258.6L771.264 259.641L771.849 260.6L772.972 260.6L772.972 258.6ZM747.632 217.02L749.34 215.979L745.632 209.895L745.632 217.02L747.632 217.02ZM747.632 274L747.632 276L749.632 276L749.632 274L747.632 274ZM725.232 274L723.232 274L723.232 276L725.232 276L725.232 274ZM725.232 176L725.232 174L723.232 174L723.232 176L725.232 176ZM747.632 176L749.339 174.957L748.754 174L747.632 174L747.632 176ZM774.232 219.54L772.525 220.583L774.232 223.376L775.939 220.583L774.232 219.54ZM800.832 178L823.232 178L823.232 174L800.832 174L800.832 178ZM821.232 176L821.232 274L825.232 274L825.232 176L821.232 176ZM823.232 272L800.832 272L800.832 276L823.232 276L823.232 272ZM802.832 274L802.832 217.02L798.832 217.02L798.832 274L802.832 274ZM799.124 215.979L773.784 257.559L777.2 259.641L802.54 218.061L799.124 215.979ZM775.492 256.6L772.972 256.6L772.972 260.6L775.492 260.6L775.492 256.6ZM774.68 257.559L749.34 215.979L745.924 218.061L771.264 259.641L774.68 257.559ZM745.632 217.02L745.632 274L749.632 274L749.632 217.02L745.632 217.02ZM747.632 272L725.232 272L725.232 276L747.632 276L747.632 272ZM727.232 274L727.232 176L723.232 176L723.232 274L727.232 274ZM725.232 178L747.632 178L747.632 174L725.232 174L725.232 178ZM745.925 177.043L772.525 220.583L775.939 218.497L749.339 174.957L745.925 177.043ZM775.939 220.583L802.539 177.043L799.125 174.957L772.525 218.497L775.939 220.583ZM961.876 274L961.876 276L964.668 276L963.769 273.356L961.876 274ZM937.376 274L935.47 274.606L935.913 276L937.376 276L937.376 274ZM932.476 258.6L934.382 257.994L933.938 256.6L932.476 256.6L932.476 258.6ZM896.076 258.6L896.076 256.6L894.613 256.6L894.17 257.994L896.076 258.6ZM891.176 274L891.176 276L892.638 276L893.082 274.606L891.176 274ZM866.676 274L864.782 273.356L863.883 276L866.676 276L866.676 274ZM899.996 176L899.996 174L898.563 174L898.102 175.356L899.996 176ZM928.556 176L930.449 175.356L929.988 174L928.556 174L928.556 176ZM914.276 201.62L916.181 201.012L914.276 195.04L912.37 201.012L914.276 201.62ZM902.796 237.6L900.89 236.992L900.058 239.6L902.796 239.6L902.796 237.6ZM925.756 237.6L925.756 239.6L928.493 239.6L927.661 236.992L925.756 237.6ZM961.876 272L937.376 272L937.376 276L961.876 276L961.876 272ZM939.282 273.394L934.382 257.994L930.57 259.206L935.47 274.606L939.282 273.394ZM932.476 256.6L896.076 256.6L896.076 260.6L932.476 260.6L932.476 256.6ZM894.17 257.994L889.27 273.394L893.082 274.606L897.982 259.206L894.17 257.994ZM891.176 272L866.676 272L866.676 276L891.176 276L891.176 272ZM868.569 274.644L901.889 176.644L898.102 175.356L864.782 273.356L868.569 274.644ZM899.996 178L928.556 178L928.556 174L899.996 174L899.996 178ZM926.662 176.644L959.982 274.644L963.769 273.356L930.449 175.356L926.662 176.644ZM912.37 201.012L900.89 236.992L904.701 238.208L916.181 202.228L912.37 201.012ZM902.796 239.6L925.756 239.6L925.756 235.6L902.796 235.6L902.796 239.6ZM927.661 236.992L916.181 201.012L912.37 202.228L923.85 238.208L927.661 236.992ZM1030.99 223.18L1029.69 221.658L1027.66 223.395L1029.9 224.856L1030.99 223.18ZM1033.93 266.02L1035.25 267.524L1033.93 266.02ZM970.232 274L968.232 274L968.232 276L970.232 276L970.232 274ZM970.232 176L970.232 174L968.232 174L968.232 176L970.232 176ZM1030.57 183.84L1029.26 185.345L1029.26 185.351L1029.27 185.357L1030.57 183.84ZM992.632 197L992.632 195L990.632 195L990.632 197L992.632 197ZM992.632 214.36L990.632 214.36L990.632 216.36L992.632 216.36L992.632 214.36ZM1014.75 211.98L1016.17 213.394L1016.19 213.374L1016.21 213.353L1014.75 211.98ZM1014.75 199.52L1013.3 200.893L1013.32 200.914L1013.34 200.934L1014.75 199.52ZM992.632 253L990.632 253L990.632 255L992.632 255L992.632 253ZM1018.11 250.48L1019.53 251.894L1019.55 251.875L1019.56 251.855L1018.11 250.48ZM1018.11 236.9L1016.66 238.275L1016.68 238.295L1016.7 238.314L1018.11 236.9ZM992.632 234.24L992.632 232.24L990.632 232.24L990.632 234.24L992.632 234.24ZM1029.9 224.856C1037.36 229.716 1041.03 236.461 1041.03 245.3L1045.03 245.3C1045.03 235.099 1040.67 227.097 1032.08 221.504L1029.9 224.856ZM1041.03 245.3C1041.03 253.252 1038.22 259.598 1032.61 264.516L1035.25 267.524C1041.78 261.802 1045.03 254.335 1045.03 245.3L1041.03 245.3ZM1032.61 264.516C1026.95 269.48 1019.92 272 1011.39 272L1011.39 276C1020.78 276 1028.78 273.2 1035.25 267.524L1032.61 264.516ZM1011.39 272L970.232 272L970.232 276L1011.39 276L1011.39 272ZM972.232 274L972.232 176L968.232 176L968.232 274L972.232 274ZM970.232 178L1008.59 178L1008.59 174L970.232 174L970.232 178ZM1008.59 178C1016.84 178 1023.68 180.468 1029.26 185.345L1031.89 182.335C1025.52 176.758 1017.71 174 1008.59 174L1008.59 178ZM1029.27 185.357C1034.77 190.087 1037.53 196.24 1037.53 204L1041.53 204C1041.53 195.147 1038.32 187.859 1031.88 182.323L1029.27 185.357ZM1037.53 204C1037.53 211.388 1034.91 217.21 1029.69 221.658L1032.29 224.702C1038.46 219.443 1041.53 212.479 1041.53 204L1037.53 204ZM1008.59 195L992.632 195L992.632 199L1008.59 199L1008.59 195ZM990.632 197L990.632 214.36L994.632 214.36L994.632 197L990.632 197ZM992.632 216.36L1008.59 216.36L1008.59 212.36L992.632 212.36L992.632 216.36ZM1008.59 216.36C1011.57 216.36 1014.16 215.404 1016.17 213.394L1013.34 210.566C1012.17 211.73 1010.65 212.36 1008.59 212.36L1008.59 216.36ZM1016.21 213.353C1018.18 211.267 1019.13 208.66 1019.13 205.68L1015.13 205.68C1015.13 207.74 1014.5 209.333 1013.3 210.607L1016.21 213.353ZM1019.13 205.68C1019.13 202.701 1018.18 200.115 1016.17 198.106L1013.34 200.934C1014.5 202.098 1015.13 203.619 1015.13 205.68L1019.13 205.68ZM1016.21 198.147C1014.21 196.028 1011.61 195 1008.59 195L1008.59 199C1010.62 199 1012.13 199.652 1013.3 200.893L1016.21 198.147ZM992.632 255L1011.39 255L1011.39 251L992.632 251L992.632 255ZM1011.39 255C1014.62 255 1017.4 254.016 1019.53 251.894L1016.7 249.066C1015.46 250.304 1013.76 251 1011.39 251L1011.39 255ZM1019.56 251.855C1021.65 249.656 1022.63 246.851 1022.63 243.62L1018.63 243.62C1018.63 245.989 1017.94 247.757 1016.66 249.105L1019.56 251.855ZM1022.63 243.62C1022.63 240.391 1021.65 237.607 1019.53 235.486L1016.7 238.314C1017.94 239.553 1018.63 241.249 1018.63 243.62L1022.63 243.62ZM1019.56 235.525C1017.45 233.293 1014.65 232.24 1011.39 232.24L1011.39 236.24C1013.73 236.24 1015.41 236.96 1016.66 238.275L1019.56 235.525ZM1011.39 232.24L992.632 232.24L992.632 236.24L1011.39 236.24L1011.39 232.24ZM990.632 234.24L990.632 253L994.632 253L994.632 234.24L990.632 234.24ZM1129.78 274L1129.78 276L1133.25 276L1131.51 272.997L1129.78 274ZM1105.7 274L1103.96 274.996L1104.54 276L1105.7 276L1105.7 274ZM1087.22 241.8L1088.95 240.804L1088.38 239.8L1087.22 239.8L1087.22 241.8ZM1076.58 241.8L1076.58 239.8L1074.58 239.8L1074.58 241.8L1076.58 241.8ZM1076.58 274L1076.58 276L1078.58 276L1078.58 274L1076.58 274ZM1054.18 274L1052.18 274L1052.18 276L1054.18 276L1054.18 274ZM1054.18 176L1054.18 174L1052.18 174L1052.18 176L1054.18 176ZM1117.18 185.8L1118.59 184.386L1117.18 185.8ZM1121.94 226.12L1120.26 225.025L1120.26 225.035L1120.25 225.046L1121.94 226.12ZM1108.92 238.02L1108 236.244L1106.13 237.208L1107.19 239.023L1108.92 238.02ZM1076.58 197L1076.58 195L1074.58 195L1074.58 197L1076.58 197ZM1076.58 222.2L1074.58 222.2L1074.58 224.2L1076.58 224.2L1076.58 222.2ZM1101.22 218.56L1099.75 217.203L1099.73 217.219L1099.72 217.235L1101.22 218.56ZM1101.22 200.64L1099.72 201.965L1099.73 201.981L1099.75 201.997L1101.22 200.64ZM1129.78 272L1105.7 272L1105.7 276L1129.78 276L1129.78 272ZM1107.43 273.004L1088.95 240.804L1085.48 242.796L1103.96 274.996L1107.43 273.004ZM1087.22 239.8L1076.58 239.8L1076.58 243.8L1087.22 243.8L1087.22 239.8ZM1074.58 241.8L1074.58 274L1078.58 274L1078.58 241.8L1074.58 241.8ZM1076.58 272L1054.18 272L1054.18 276L1076.58 276L1076.58 272ZM1056.18 274L1056.18 176L1052.18 176L1052.18 274L1056.18 274ZM1054.18 178L1093.38 178L1093.38 174L1054.18 174L1054.18 178ZM1093.38 178C1102.19 178 1109.61 181.06 1115.76 187.214L1118.59 184.386C1111.68 177.473 1103.24 174 1093.38 174L1093.38 178ZM1115.76 187.214C1121.92 193.368 1124.98 200.791 1124.98 209.6L1128.98 209.6C1128.98 199.742 1125.5 191.298 1118.59 184.386L1115.76 187.214ZM1124.98 209.6C1124.98 215.073 1123.42 220.202 1120.26 225.025L1123.61 227.215C1127.17 221.771 1128.98 215.887 1128.98 209.6L1124.98 209.6ZM1120.25 225.046C1117.17 229.881 1113.1 233.606 1108 236.244L1109.84 239.796C1115.56 236.834 1120.17 232.626 1123.62 227.194L1120.25 225.046ZM1107.19 239.023L1128.05 275.003L1131.51 272.997L1110.65 237.017L1107.19 239.023ZM1093.38 195L1076.58 195L1076.58 199L1093.38 199L1093.38 195ZM1074.58 197L1074.58 222.2L1078.58 222.2L1078.58 197L1074.58 197ZM1076.58 224.2L1093.38 224.2L1093.38 220.2L1076.58 220.2L1076.58 224.2ZM1093.38 224.2C1097.06 224.2 1100.21 222.716 1102.72 219.885L1099.72 217.235C1097.93 219.258 1095.85 220.2 1093.38 220.2L1093.38 224.2ZM1102.69 219.917C1105.29 217.092 1106.58 213.609 1106.58 209.6L1102.58 209.6C1102.58 212.685 1101.62 215.175 1099.75 217.203L1102.69 219.917ZM1106.58 209.6C1106.58 205.591 1105.29 202.108 1102.69 199.283L1099.75 201.997C1101.62 204.025 1102.58 206.515 1102.58 209.6L1106.58 209.6ZM1102.72 199.315C1100.21 196.484 1097.06 195 1093.38 195L1093.38 199C1095.85 199 1097.93 199.942 1099.72 201.965L1102.72 199.315ZM1221.82 261.26L1220.42 259.839L1221.82 261.26ZM1149.58 261.26L1150.99 259.839L1149.58 261.26ZM1165.26 246L1163.85 247.414L1165.26 246ZM1206 246L1204.59 244.586L1206 246ZM1206 204L1204.59 205.414L1206 204ZM1165.26 204L1166.68 205.414L1165.26 204ZM1220.42 259.839C1210.9 269.26 1199.37 273.96 1185.7 273.96L1185.7 277.96C1200.41 277.96 1212.95 272.86 1223.23 262.681L1220.42 259.839ZM1185.7 273.96C1172.03 273.96 1160.5 269.26 1150.99 259.839L1148.18 262.681C1158.45 272.86 1171 277.96 1185.7 277.96L1185.7 273.96ZM1150.99 259.839C1141.49 250.428 1136.74 238.859 1136.74 225L1132.74 225C1132.74 239.888 1137.89 252.492 1148.18 262.681L1150.99 259.839ZM1136.74 225C1136.74 211.141 1141.49 199.572 1150.99 190.161L1148.18 187.319C1137.89 197.508 1132.74 210.112 1132.74 225L1136.74 225ZM1150.99 190.161C1160.5 180.74 1172.03 176.04 1185.7 176.04L1185.7 172.04C1171 172.04 1158.45 177.14 1148.18 187.319L1150.99 190.161ZM1185.7 176.04C1199.37 176.04 1210.9 180.74 1220.42 190.161L1223.23 187.319C1212.95 177.14 1200.41 172.04 1185.7 172.04L1185.7 176.04ZM1220.42 190.161C1229.92 199.572 1234.66 211.141 1234.66 225L1238.66 225C1238.66 210.112 1233.52 197.508 1223.23 187.319L1220.42 190.161ZM1234.66 225C1234.66 238.859 1229.92 250.428 1220.42 259.839L1223.23 262.681C1233.52 252.492 1238.66 239.888 1238.66 225L1234.66 225ZM1155.14 225C1155.14 234.047 1158.01 241.579 1163.85 247.414L1166.68 244.586C1161.69 239.595 1159.14 233.127 1159.14 225L1155.14 225ZM1163.85 247.414C1169.67 253.232 1177 256.12 1185.7 256.12L1185.7 252.12C1177.98 252.12 1171.69 249.595 1166.68 244.586L1163.85 247.414ZM1185.7 256.12C1194.32 256.12 1201.6 253.227 1207.42 247.414L1204.59 244.586C1199.58 249.6 1193.33 252.12 1185.7 252.12L1185.7 256.12ZM1207.42 247.414C1213.33 241.497 1216.26 233.971 1216.26 225L1212.26 225C1212.26 233.016 1209.68 239.49 1204.59 244.586L1207.42 247.414ZM1216.26 225C1216.26 216.029 1213.33 208.503 1207.42 202.586L1204.59 205.414C1209.68 210.51 1212.26 216.984 1212.26 225L1216.26 225ZM1207.42 202.586C1201.6 196.773 1194.32 193.88 1185.7 193.88L1185.7 197.88C1193.33 197.88 1199.58 200.4 1204.59 205.414L1207.42 202.586ZM1185.7 193.88C1177 193.88 1169.67 196.768 1163.85 202.586L1166.68 205.414C1171.69 200.405 1177.98 197.88 1185.7 197.88L1185.7 193.88ZM1163.85 202.586C1158.01 208.421 1155.14 215.953 1155.14 225L1159.14 225C1159.14 216.873 1161.69 210.405 1166.68 205.414L1163.85 202.586ZM1332.52 274L1332.52 276L1335.31 276L1334.41 273.356L1332.52 274ZM1308.02 274L1306.11 274.606L1306.56 276L1308.02 276L1308.02 274ZM1303.12 258.6L1305.03 257.994L1304.58 256.6L1303.12 256.6L1303.12 258.6ZM1266.72 258.6L1266.72 256.6L1265.26 256.6L1264.81 257.994L1266.72 258.6ZM1261.82 274L1261.82 276L1263.28 276L1263.73 274.606L1261.82 274ZM1237.32 274L1235.43 273.356L1234.53 276L1237.32 276L1237.32 274ZM1270.64 176L1270.64 174L1269.21 174L1268.75 175.356L1270.64 176ZM1299.2 176L1301.09 175.356L1300.63 174L1299.2 174L1299.2 176ZM1284.92 201.62L1286.83 201.012L1284.92 195.04L1283.01 201.012L1284.92 201.62ZM1273.44 237.6L1271.53 236.992L1270.7 239.6L1273.44 239.6L1273.44 237.6ZM1296.4 237.6L1296.4 239.6L1299.14 239.6L1298.31 236.992L1296.4 237.6ZM1332.52 272L1308.02 272L1308.02 276L1332.52 276L1332.52 272ZM1309.93 273.394L1305.03 257.994L1301.21 259.206L1306.11 274.606L1309.93 273.394ZM1303.12 256.6L1266.72 256.6L1266.72 260.6L1303.12 260.6L1303.12 256.6ZM1264.81 257.994L1259.91 273.394L1263.73 274.606L1268.63 259.206L1264.81 257.994ZM1261.82 272L1237.32 272L1237.32 276L1261.82 276L1261.82 272ZM1239.21 274.644L1272.53 176.644L1268.75 175.356L1235.43 273.356L1239.21 274.644ZM1270.64 178L1299.2 178L1299.2 174L1270.64 174L1270.64 178ZM1297.31 176.644L1330.63 274.644L1334.41 273.356L1301.09 175.356L1297.31 176.644ZM1283.01 201.012L1271.53 236.992L1275.35 238.208L1286.83 202.228L1283.01 201.012ZM1273.44 239.6L1296.4 239.6L1296.4 235.6L1273.44 235.6L1273.44 239.6ZM1298.31 236.992L1286.83 201.012L1283.01 202.228L1294.49 238.208L1298.31 236.992ZM1340.88 176L1340.88 174L1338.88 174L1338.88 176L1340.88 176ZM1413.96 260L1412.52 258.607L1412.52 258.607L1413.96 260ZM1340.88 274L1338.88 274L1338.88 276L1340.88 276L1340.88 274ZM1363.28 252.44L1361.28 252.44L1361.28 254.44L1363.28 254.44L1363.28 252.44ZM1398.84 245.02L1397.41 243.619L1397.4 243.626L1397.4 243.633L1398.84 245.02ZM1398.84 205.12L1397.38 206.493L1397.4 206.514L1397.42 206.534L1398.84 205.12ZM1363.28 197.56L1363.28 195.56L1361.28 195.56L1361.28 197.56L1363.28 197.56ZM1340.88 178L1380.08 178L1380.08 174L1340.88 174L1340.88 178ZM1380.08 178C1392.99 178 1403.76 182.504 1412.52 191.533L1415.39 188.747C1405.86 178.922 1394.04 174 1380.08 174L1380.08 178ZM1412.52 191.533C1421.29 200.565 1425.68 211.677 1425.68 225L1429.68 225C1429.68 210.696 1424.92 198.568 1415.39 188.747L1412.52 191.533ZM1425.68 225C1425.68 238.42 1421.28 249.577 1412.52 258.607L1415.39 261.393C1424.92 251.569 1429.68 239.393 1429.68 225L1425.68 225ZM1412.52 258.607C1403.86 267.535 1393.09 272 1380.08 272L1380.08 276C1394.13 276 1405.95 271.132 1415.39 261.393L1412.52 258.607ZM1380.08 272L1340.88 272L1340.88 276L1380.08 276L1380.08 272ZM1342.88 274L1342.88 176L1338.88 176L1338.88 274L1342.88 274ZM1363.28 254.44L1380.08 254.44L1380.08 250.44L1363.28 250.44L1363.28 254.44ZM1380.08 254.44C1388.29 254.44 1395.09 251.797 1400.28 246.407L1397.4 243.633C1393.06 248.136 1387.36 250.44 1380.08 250.44L1380.08 254.44ZM1400.26 246.421C1405.56 241.023 1408.12 233.806 1408.12 225L1404.12 225C1404.12 232.994 1401.82 239.123 1397.41 243.619L1400.26 246.421ZM1408.12 225C1408.12 216.196 1405.56 209.015 1400.25 203.706L1397.42 206.534C1401.82 210.932 1404.12 217.004 1404.12 225L1408.12 225ZM1400.29 203.747C1395.11 198.258 1388.3 195.56 1380.08 195.56L1380.08 199.56C1387.34 199.56 1393.05 201.902 1397.38 206.493L1400.29 203.747ZM1380.08 195.56L1363.28 195.56L1363.28 199.56L1380.08 199.56L1380.08 195.56ZM1361.28 197.56L1361.28 252.44L1365.28 252.44L1365.28 197.56L1361.28 197.56Z" fill="#757575"/>
<path d="M407.943 176.332L408.412 175H407L391.5 175H390.792L390.557 175.668L356.057 273.668L355.588 275H357H372.5H373.208L373.443 274.332L407.943 176.332Z" stroke="#757575" stroke-width="2"/>
<path d="M42.7 127.96C32.9 127.96 24.64 125.86 17.92 121.66C11.2 117.367 6.39333 111.393 3.5 103.74L22.82 92.54C26.74 101.593 33.6 106.12 43.4 106.12C52.2667 106.12 56.7 103.46 56.7 98.14C56.7 95.1533 55.2533 92.9133 52.36 91.42C49.3733 89.6467 44.0533 87.7333 36.4 85.68C28.56 83.5333 21.9333 80.4533 16.52 76.44C10.5467 71.5867 7.56 64.7267 7.56 55.86C7.56 46.8067 10.78 39.5733 17.22 34.16C23.7533 28.7467 31.5 26.04 40.46 26.04C48.4867 26.04 55.58 27.9533 61.74 31.78C67.9 35.5133 72.7533 40.9733 76.3 48.16L57.4 59.22C53.8533 51.66 48.2067 47.88 40.46 47.88C37.1933 47.88 34.6267 48.58 32.76 49.98C30.8933 51.38 29.96 53.1533 29.96 55.3C29.96 57.6333 31.08 59.7333 33.32 61.6C35.7467 63.4667 40.5067 65.4267 47.6 67.48L56.7 70.42C59.0333 71.1667 61.74 72.4267 64.82 74.2C68.18 75.88 70.7 77.7 72.38 79.66C76.86 84.5133 79.1 90.58 79.1 97.86C79.1 107.1 75.74 114.473 69.02 119.98C62.3 125.3 53.5267 127.96 42.7 127.96ZM89.5945 94.36L89.5945 28L111.995 28L111.995 92.4C111.995 101.547 117.128 106.12 127.395 106.12C137.661 106.12 142.795 101.547 142.795 92.4L142.795 28L165.195 28L165.195 94.36C165.195 104.72 161.648 112.887 154.555 118.86C147.368 124.927 138.315 127.96 127.395 127.96C116.475 127.96 107.421 124.927 100.235 118.86C93.1412 112.887 89.5945 104.72 89.5945 94.36ZM181.349 28L218.449 28C228.156 28 236.276 31.2667 242.809 37.8C249.436 44.4267 252.749 52.36 252.749 61.6C252.749 70.84 249.436 78.7733 242.809 85.4C236.276 91.9333 228.156 95.2 218.449 95.2L203.749 95.2L203.749 126L181.349 126L181.349 28ZM203.749 74.2L218.449 74.2C221.903 74.2 224.749 72.9867 226.989 70.56C229.229 68.1333 230.349 65.1467 230.349 61.6C230.349 58.0533 229.229 55.0667 226.989 52.64C224.749 50.2133 221.903 49 218.449 49L203.749 49L203.749 74.2ZM263.927 28L301.027 28C310.734 28 318.854 31.2667 325.387 37.8C332.014 44.4267 335.327 52.36 335.327 61.6C335.327 70.84 332.014 78.7733 325.387 85.4C318.854 91.9333 310.734 95.2 301.027 95.2L286.327 95.2L286.327 126L263.927 126L263.927 28ZM286.327 74.2L301.027 74.2C304.481 74.2 307.327 72.9867 309.567 70.56C311.807 68.1333 312.927 65.1467 312.927 61.6C312.927 58.0533 311.807 55.0667 309.567 52.64C307.327 50.2133 304.481 49 301.027 49L286.327 49L286.327 74.2ZM428.702 113.26C418.809 123.06 406.769 127.96 392.582 127.96C378.395 127.96 366.355 123.06 356.462 113.26C346.569 103.46 341.622 91.3733 341.622 77C341.622 62.6267 346.569 50.54 356.462 40.74C366.355 30.94 378.395 26.04 392.582 26.04C406.769 26.04 418.809 30.94 428.702 40.74C438.595 50.54 443.542 62.6267 443.542 77C443.542 91.3733 438.595 103.46 428.702 113.26ZM364.022 77C364.022 85.5867 366.729 92.5867 372.142 98C377.555 103.413 384.369 106.12 392.582 106.12C400.702 106.12 407.469 103.413 412.882 98C418.389 92.4933 421.142 85.4933 421.142 77C421.142 68.5067 418.389 61.5067 412.882 56C407.469 50.5867 400.702 47.88 392.582 47.88C384.369 47.88 377.555 50.5867 372.142 56C366.729 61.4133 364.022 68.4133 364.022 77ZM531.754 126L507.674 126L489.194 93.8L478.554 93.8L478.554 126L456.154 126L456.154 28L495.354 28C504.687 28 512.621 31.2667 519.154 37.8C525.687 44.3333 528.954 52.2667 528.954 61.6C528.954 67.48 527.274 72.9867 523.914 78.12C520.647 83.2533 516.307 87.22 510.894 90.02L531.754 126ZM495.354 49L478.554 49L478.554 74.2L495.354 74.2C498.434 74.2 501.047 72.9867 503.194 70.56C505.434 68.1333 506.554 65.1467 506.554 61.6C506.554 58.0533 505.434 55.0667 503.194 52.64C501.047 50.2133 498.434 49 495.354 49ZM533.236 28L606.036 28L606.036 49.56L580.836 49.56L580.836 126L558.436 126L558.436 49.56L533.236 49.56L533.236 28ZM650.141 94.36L650.141 28L672.541 28L672.541 92.4C672.541 101.547 677.675 106.12 687.941 106.12C698.208 106.12 703.341 101.547 703.341 92.4L703.341 28L725.741 28L725.741 94.36C725.741 104.72 722.195 112.887 715.101 118.86C707.915 124.927 698.861 127.96 687.941 127.96C677.021 127.96 667.968 124.927 660.781 118.86C653.688 112.887 650.141 104.72 650.141 94.36ZM786.696 75.74L821.136 126L795.656 126L764.296 80.64L764.296 126L741.896 126L741.896 28L764.296 28L764.296 70.56L794.256 28L819.736 28L786.696 75.74ZM905.133 126L881.053 126L862.573 93.8L851.933 93.8L851.933 126L829.533 126L829.533 28L868.733 28C878.066 28 885.999 31.2667 892.533 37.8C899.066 44.3333 902.333 52.2667 902.333 61.6C902.333 67.48 900.653 72.9867 897.293 78.12C894.026 83.2533 889.686 87.22 884.273 90.02L905.133 126ZM868.733 49L851.933 49L851.933 74.2L868.733 74.2C871.813 74.2 874.426 72.9867 876.573 70.56C878.813 68.1333 879.933 65.1467 879.933 61.6C879.933 58.0533 878.813 55.0667 876.573 52.64C874.426 50.2133 871.813 49 868.733 49ZM1002.47 126L977.966 126L973.066 110.6L936.666 110.6L931.766 126L907.266 126L940.586 28L969.146 28L1002.47 126ZM954.866 53.62L943.386 89.6L966.346 89.6L954.866 53.62ZM1010.82 126L1010.82 28L1033.22 28L1033.22 126L1010.82 126ZM1104.66 81.2L1104.66 28L1127.06 28L1127.06 126L1110.26 126L1072.46 72.8L1072.46 126L1050.06 126L1050.06 28L1066.86 28L1104.66 81.2ZM1166.25 87.08L1166.25 104.44L1205.45 104.44L1205.45 126L1143.85 126L1143.85 28L1204.75 28L1204.75 49.56L1166.25 49.56L1166.25 65.8L1201.25 65.8L1201.25 87.08L1166.25 87.08Z" fill="white"/>
<circle cx="661.5" cy="224.5" r="31.5" fill="#FFD700"/>
<circle cx="392.5" cy="76.5" r="31.5" fill="#0057B7"/>
</svg>
