<svg  viewBox="0 0 383 108" fill="none" xmlns="http://www.w3.org/2000/svg">
<path d="M49.34 71.976L49.34 72.976L50.34 72.976L50.34 71.976L49.34 71.976ZM37.68 71.976L37.68 70.976L36.68 70.976L36.68 71.976L37.68 71.976ZM37.68 77.916L36.68 77.916L36.68 78.916L37.68 78.916L37.68 77.916ZM49.12 77.916L50.12 77.916L50.12 76.916L49.12 76.916L49.12 77.916ZM49.12 84.692L49.12 85.692L50.12 85.692L50.12 84.692L49.12 84.692ZM37.68 84.692L37.68 83.692L36.68 83.692L36.68 84.692L37.68 84.692ZM37.68 96L37.68 97L38.68 97L38.68 96L37.68 96ZM30.64 96L29.64 96L29.64 97L30.64 97L30.64 96ZM30.64 65.2L30.64 64.2L29.64 64.2L29.64 65.2L30.64 65.2ZM49.34 65.2L50.34 65.2L50.34 64.2L49.34 64.2L49.34 65.2ZM49.34 70.976L37.68 70.976L37.68 72.976L49.34 72.976L49.34 70.976ZM36.68 71.976L36.68 77.916L38.68 77.916L38.68 71.976L36.68 71.976ZM37.68 78.916L49.12 78.916L49.12 76.916L37.68 76.916L37.68 78.916ZM48.12 77.916L48.12 84.692L50.12 84.692L50.12 77.916L48.12 77.916ZM49.12 83.692L37.68 83.692L37.68 85.692L49.12 85.692L49.12 83.692ZM36.68 84.692L36.68 96L38.68 96L38.68 84.692L36.68 84.692ZM37.68 95L30.64 95L30.64 97L37.68 97L37.68 95ZM31.64 96L31.64 65.2L29.64 65.2L29.64 96L31.64 96ZM30.64 66.2L49.34 66.2L49.34 64.2L30.64 64.2L30.64 66.2ZM48.34 65.2L48.34 71.976L50.34 71.976L50.34 65.2L48.34 65.2ZM69.6914 96L68.8241 96.4978L69.1123 97L69.6914 97L69.6914 96ZM63.8834 85.88L64.7507 85.3822L64.4624 84.88L63.8834 84.88L63.8834 85.88ZM60.5394 85.88L60.5394 84.88L59.5394 84.88L59.5394 85.88L60.5394 85.88ZM60.5394 96L60.5394 97L61.5394 97L61.5394 96L60.5394 96ZM53.4994 96L52.4994 96L52.4994 97L53.4994 97L53.4994 96ZM53.4994 65.2L53.4994 64.2L52.4994 64.2L52.4994 65.2L53.4994 65.2ZM73.2994 68.28L74.0065 67.5729L74.0065 67.5729L73.2994 68.28ZM74.7954 80.996L73.9587 80.4483L73.9562 80.4521L74.7954 80.996ZM70.7034 84.692L70.244 83.8038L69.312 84.2858L69.8383 85.1936L70.7034 84.692ZM77.2594 96L77.2594 97L78.9951 97L78.1245 95.4984L77.2594 96ZM60.5394 71.8L60.5394 70.8L59.5394 70.8L59.5394 71.8L60.5394 71.8ZM60.5394 79.72L59.5394 79.72L59.5394 80.72L60.5394 80.72L60.5394 79.72ZM68.2834 78.576L67.5486 77.8977L67.5414 77.9055L67.5344 77.9134L68.2834 78.576ZM68.2834 72.944L67.5344 73.6066L67.5414 73.6145L67.5486 73.6223L68.2834 72.944ZM70.5587 95.5022L64.7507 85.3822L63.0161 86.3778L68.8241 96.4978L70.5587 95.5022ZM63.8834 84.88L60.5394 84.88L60.5394 86.88L63.8834 86.88L63.8834 84.88ZM59.5394 85.88L59.5394 96L61.5394 96L61.5394 85.88L59.5394 85.88ZM60.5394 95L53.4994 95L53.4994 97L60.5394 97L60.5394 95ZM54.4994 96L54.4994 65.2L52.4994 65.2L52.4994 96L54.4994 96ZM53.4994 66.2L65.8194 66.2L65.8194 64.2L53.4994 64.2L53.4994 66.2ZM65.8194 66.2C68.4905 66.2 70.7286 67.1234 72.5923 68.9871L74.0065 67.5729C71.7635 65.3299 69.0149 64.2 65.8194 64.2L65.8194 66.2ZM72.5923 68.9871C74.4559 70.8508 75.3794 73.0889 75.3794 75.76L77.3794 75.76C77.3794 72.5645 76.2495 69.8159 74.0065 67.5729L72.5923 68.9871ZM75.3794 75.76C75.3794 77.4373 74.9112 78.9931 73.9587 80.4483L75.6321 81.5437C76.7916 79.7722 77.3794 77.8374 77.3794 75.76L75.3794 75.76ZM73.9562 80.4521C73.0255 81.888 71.7933 83.0024 70.244 83.8038L71.1628 85.5802C73.0161 84.6216 74.5119 83.2719 75.6345 81.5399L73.9562 80.4521ZM69.8383 85.1936L76.3943 96.5016L78.1245 95.4984L71.5685 84.1904L69.8383 85.1936ZM77.2594 95L69.6914 95L69.6914 97L77.2594 97L77.2594 95ZM59.5394 71.8L59.5394 79.72L61.5394 79.72L61.5394 71.8L59.5394 71.8ZM60.5394 80.72L65.8194 80.72L65.8194 78.72L60.5394 78.72L60.5394 80.72ZM65.8194 80.72C67.0903 80.72 68.1791 80.2032 69.0324 79.2386L67.5344 77.9134C67.0383 78.4742 66.4844 78.72 65.8194 78.72L65.8194 80.72ZM69.0182 79.2543C69.906 78.2925 70.3394 77.1057 70.3394 75.76L68.3394 75.76C68.3394 76.6436 68.0688 77.3342 67.5486 77.8977L69.0182 79.2543ZM70.3394 75.76C70.3394 74.4143 69.906 73.2275 69.0182 72.2657L67.5486 73.6223C68.0688 74.1858 68.3394 74.8764 68.3394 75.76L70.3394 75.76ZM69.0324 72.2814C68.1791 71.3168 67.0903 70.8 65.8194 70.8L65.8194 72.8C66.4844 72.8 67.0383 73.0458 67.5344 73.6066L69.0324 72.2814ZM65.8194 70.8L60.5394 70.8L60.5394 72.8L65.8194 72.8L65.8194 70.8ZM106.188 91.996L105.484 91.2855L106.188 91.996ZM83.484 91.996L84.1877 91.2855L83.484 91.996ZM88.412 87.2L87.7049 87.9071L87.711 87.9131L88.412 87.2ZM101.216 87.2L100.515 86.4868L100.509 86.4929L101.216 87.2ZM101.216 74L100.509 74.7071L100.515 74.7131L101.216 74ZM88.412 74L87.7109 73.2868L87.7049 73.2929L88.412 74ZM105.484 91.2855C102.566 94.1762 99.0366 95.616 94.836 95.616L94.836 97.616C99.5527 97.616 103.591 95.9758 106.892 92.7065L105.484 91.2855ZM94.836 95.616C90.6354 95.616 87.1059 94.1762 84.1877 91.2855L82.7803 92.7064C86.0807 95.9758 90.1193 97.616 94.836 97.616L94.836 95.616ZM84.1877 91.2855C81.2747 88.4 79.82 84.8601 79.82 80.6L77.82 80.6C77.82 85.3746 79.4746 89.432 82.7803 92.7064L84.1877 91.2855ZM79.82 80.6C79.82 76.3399 81.2747 72.8 84.1877 69.9144L82.7803 68.4935C79.4746 71.768 77.82 75.8254 77.82 80.6L79.82 80.6ZM84.1877 69.9144C87.1059 67.0238 90.6354 65.584 94.836 65.584L94.836 63.584C90.1193 63.584 86.0807 65.2242 82.7803 68.4935L84.1877 69.9144ZM94.836 65.584C99.0366 65.584 102.566 67.0238 105.484 69.9144L106.892 68.4935C103.591 65.2242 99.5527 63.584 94.836 63.584L94.836 65.584ZM105.484 69.9144C108.397 72.8 109.852 76.3399 109.852 80.6L111.852 80.6C111.852 75.8254 110.197 71.768 106.892 68.4935L105.484 69.9144ZM109.852 80.6C109.852 84.8601 108.397 88.4 105.484 91.2855L106.892 92.7065C110.197 89.432 111.852 85.3746 111.852 80.6L109.852 80.6ZM87.711 87.9131C89.6391 89.8086 92.0367 90.752 94.836 90.752L94.836 88.752C92.5313 88.752 90.6463 87.9941 89.113 86.4869L87.711 87.9131ZM94.836 90.752C97.6354 90.752 100.022 89.8082 101.923 87.9071L100.509 86.4929C99.0074 87.9944 97.1406 88.752 94.836 88.752L94.836 90.752ZM101.917 87.9131C103.861 86.0019 104.812 83.5339 104.812 80.6L102.812 80.6C102.812 83.0635 102.032 84.9955 100.515 86.4869L101.917 87.9131ZM104.812 80.6C104.812 77.6661 103.861 75.1981 101.917 73.2869L100.515 74.7131C102.032 76.2045 102.812 78.1365 102.812 80.6L104.812 80.6ZM101.923 73.2929C100.022 71.3918 97.6354 70.448 94.836 70.448L94.836 72.448C97.1406 72.448 99.0074 73.2056 100.509 74.7071L101.923 73.2929ZM94.836 70.448C92.0367 70.448 89.6391 71.3914 87.711 73.2869L89.113 74.7131C90.6463 73.2059 92.5313 72.448 94.836 72.448L94.836 70.448ZM87.7049 73.2929C85.7925 75.2053 84.86 77.6714 84.86 80.6L86.86 80.6C86.86 78.1313 87.6288 76.1974 89.1191 74.7071L87.7049 73.2929ZM84.86 80.6C84.86 83.5286 85.7925 85.9947 87.7049 87.9071L89.1191 86.4929C87.6288 85.0026 86.86 83.0687 86.86 80.6L84.86 80.6ZM145.616 65.2L146.616 65.2L146.616 64.2L145.616 64.2L145.616 65.2ZM145.616 96L145.616 97L146.616 97L146.616 96L145.616 96ZM138.576 96L137.576 96L137.576 97L138.576 97L138.576 96ZM138.576 78.092L139.576 78.092L139.576 74.5295L137.722 77.5716L138.576 78.092ZM130.612 91.16L130.612 92.16L131.173 92.16L131.466 91.6804L130.612 91.16ZM129.82 91.16L128.966 91.6804L129.258 92.16L129.82 92.16L129.82 91.16ZM121.856 78.092L122.71 77.5716L120.856 74.5295L120.856 78.092L121.856 78.092ZM121.856 96L121.856 97L122.856 97L122.856 96L121.856 96ZM114.816 96L113.816 96L113.816 97L114.816 97L114.816 96ZM114.816 65.2L114.816 64.2L113.816 64.2L113.816 65.2L114.816 65.2ZM121.856 65.2L122.709 64.6787L122.417 64.2L121.856 64.2L121.856 65.2ZM130.216 78.884L129.362 79.4053L130.216 80.8021L131.069 79.4053L130.216 78.884ZM138.576 65.2L138.576 64.2L138.015 64.2L137.722 64.6787L138.576 65.2ZM144.616 65.2L144.616 96L146.616 96L146.616 65.2L144.616 65.2ZM145.616 95L138.576 95L138.576 97L145.616 97L145.616 95ZM139.576 96L139.576 78.092L137.576 78.092L137.576 96L139.576 96ZM137.722 77.5716L129.758 90.6396L131.466 91.6804L139.43 78.6124L137.722 77.5716ZM130.612 90.16L129.82 90.16L129.82 92.16L130.612 92.16L130.612 90.16ZM130.674 90.6396L122.71 77.5716L121.002 78.6124L128.966 91.6804L130.674 90.6396ZM120.856 78.092L120.856 96L122.856 96L122.856 78.092L120.856 78.092ZM121.856 95L114.816 95L114.816 97L121.856 97L121.856 95ZM115.816 96L115.816 65.2L113.816 65.2L113.816 96L115.816 96ZM114.816 66.2L121.856 66.2L121.856 64.2L114.816 64.2L114.816 66.2ZM121.002 65.7213L129.362 79.4053L131.069 78.3627L122.709 64.6787L121.002 65.7213ZM131.069 79.4053L139.429 65.7213L137.722 64.6787L129.362 78.3627L131.069 79.4053ZM138.576 66.2L145.616 66.2L145.616 64.2L138.576 64.2L138.576 66.2ZM181.49 96L180.537 96.3032L180.758 97L181.49 97L181.49 96ZM179.95 91.16L180.902 90.8568L180.681 90.16L179.95 90.16L179.95 91.16ZM168.51 91.16L168.51 90.16L167.778 90.16L167.557 90.8568L168.51 91.16ZM166.97 96L166.97 97L167.701 97L167.922 96.3032L166.97 96ZM159.27 96L158.323 95.6781L157.873 97L159.27 97L159.27 96ZM169.742 65.2L169.742 64.2L169.025 64.2L168.795 64.8781L169.742 65.2ZM178.718 65.2L179.664 64.8781L179.434 64.2L178.718 64.2L178.718 65.2ZM189.19 96L189.19 97L190.586 97L190.136 95.6781L189.19 96ZM170.622 84.56L169.669 84.256L169.253 85.56L170.622 85.56L170.622 84.56ZM177.838 84.56L177.838 85.56L179.206 85.56L178.79 84.256L177.838 84.56ZM174.23 73.252L175.182 72.948L174.23 69.9622L173.277 72.948L174.23 73.252ZM182.442 95.6968L180.902 90.8568L178.997 91.4632L180.537 96.3032L182.442 95.6968ZM179.95 90.16L168.51 90.16L168.51 92.16L179.95 92.16L179.95 90.16ZM167.557 90.8568L166.017 95.6968L167.922 96.3032L169.462 91.4632L167.557 90.8568ZM166.97 95L159.27 95L159.27 97L166.97 97L166.97 95ZM160.216 96.3219L170.688 65.5219L168.795 64.8781L158.323 95.6781L160.216 96.3219ZM169.742 66.2L178.718 66.2L178.718 64.2L169.742 64.2L169.742 66.2ZM177.771 65.5219L188.243 96.3219L190.136 95.6781L179.664 64.8781L177.771 65.5219ZM189.19 95L181.49 95L181.49 97L189.19 97L189.19 95ZM170.622 85.56L177.838 85.56L177.838 83.56L170.622 83.56L170.622 85.56ZM178.79 84.256L175.182 72.948L173.277 73.556L176.885 84.864L178.79 84.256ZM173.277 72.948L169.669 84.256L171.574 84.864L175.182 73.556L173.277 72.948ZM210.912 80.028L210.256 79.2731L209.247 80.1501L210.373 80.8704L210.912 80.028ZM211.836 93.492L212.495 94.2439L212.495 94.2439L211.836 93.492ZM191.816 96L190.816 96L190.816 97L191.816 97L191.816 96ZM191.816 65.2L191.816 64.2L190.816 64.2L190.816 65.2L191.816 65.2ZM210.78 67.664L210.115 68.4114L210.122 68.417L210.128 68.4224L210.78 67.664ZM198.856 71.8L198.856 70.8L197.856 70.8L197.856 71.8L198.856 71.8ZM198.856 77.256L197.856 77.256L197.856 78.256L198.856 78.256L198.856 77.256ZM205.808 76.508L206.515 77.2151L206.525 77.205L206.535 77.1946L205.808 76.508ZM205.808 72.592L205.081 73.2786L205.091 73.289L205.101 73.2991L205.808 72.592ZM206.864 88.608L207.571 89.3151L207.58 89.3056L207.59 89.2957L206.864 88.608ZM206.864 84.34L206.138 85.0277L206.147 85.0376L206.157 85.0471L206.864 84.34ZM198.856 83.504L198.856 82.504L197.856 82.504L197.856 83.504L198.856 83.504ZM198.856 89.4L197.856 89.4L197.856 90.4L198.856 90.4L198.856 89.4ZM210.373 80.8704C212.605 82.298 213.696 84.296 213.696 86.98L215.696 86.98C215.696 83.6213 214.264 80.9847 211.451 79.1856L210.373 80.8704ZM213.696 86.98C213.696 89.3786 212.854 91.2691 211.176 92.7401L212.495 94.2439C214.631 92.3709 215.696 89.9201 215.696 86.98L213.696 86.98ZM211.176 92.7401C209.473 94.2342 207.354 95 204.752 95L204.752 97C207.782 97 210.385 96.0938 212.495 94.2439L211.176 92.7401ZM204.752 95L191.816 95L191.816 97L204.752 97L204.752 95ZM192.816 96L192.816 65.2L190.816 65.2L190.816 96L192.816 96ZM191.816 66.2L203.872 66.2L203.872 64.2L191.816 64.2L191.816 66.2ZM203.872 66.2C206.415 66.2 208.472 66.9505 210.115 68.4114L211.444 66.9166C209.392 65.0921 206.844 64.2 203.872 64.2L203.872 66.2ZM210.128 68.4224C211.771 69.8342 212.596 71.6626 212.596 74L214.596 74C214.596 71.116 213.543 68.7204 211.432 66.9056L210.128 68.4224ZM212.596 74C212.596 76.1875 211.817 77.9168 210.256 79.2731L211.568 80.7829C213.585 79.0299 214.596 76.7405 214.596 74L212.596 74ZM203.872 70.8L198.856 70.8L198.856 72.8L203.872 72.8L203.872 70.8ZM197.856 71.8L197.856 77.256L199.856 77.256L199.856 71.8L197.856 71.8ZM198.856 78.256L203.872 78.256L203.872 76.256L198.856 76.256L198.856 78.256ZM203.872 78.256C204.893 78.256 205.805 77.9251 206.515 77.2151L205.101 75.8009C204.813 76.0882 204.434 76.256 203.872 76.256L203.872 78.256ZM206.535 77.1946C207.225 76.4634 207.556 75.5501 207.556 74.528L205.556 74.528C205.556 75.0899 205.388 75.4966 205.081 75.8214L206.535 77.1946ZM207.556 74.528C207.556 73.5064 207.225 72.5949 206.515 71.8849L205.101 73.2991C205.388 73.5865 205.556 73.9656 205.556 74.528L207.556 74.528ZM206.535 71.9054C205.829 71.1581 204.911 70.8 203.872 70.8L203.872 72.8C204.416 72.8 204.789 72.9699 205.081 73.2786L206.535 71.9054ZM204.752 90.4C205.846 90.4 206.822 90.0638 207.571 89.3151L206.157 87.9009C205.849 88.2082 205.418 88.4 204.752 88.4L204.752 90.4ZM207.59 89.2957C208.32 88.5253 208.656 87.5476 208.656 86.452L206.656 86.452C206.656 87.1164 206.464 87.576 206.138 87.9203L207.59 89.2957ZM208.656 86.452C208.656 85.3577 208.32 84.3816 207.571 83.6329L206.157 85.0471C206.464 85.3544 206.656 85.7863 206.656 86.452L208.656 86.452ZM207.59 83.6523C206.845 82.8658 205.862 82.504 204.752 82.504L204.752 84.504C205.401 84.504 205.827 84.6996 206.138 85.0277L207.59 83.6523ZM204.752 82.504L198.856 82.504L198.856 84.504L204.752 84.504L204.752 82.504ZM197.856 83.504L197.856 89.4L199.856 89.4L199.856 83.504L197.856 83.504ZM198.856 90.4L204.752 90.4L204.752 88.4L198.856 88.4L198.856 90.4ZM234.391 96L233.523 96.4978L233.812 97L234.391 97L234.391 96ZM228.583 85.88L229.45 85.3822L229.162 84.88L228.583 84.88L228.583 85.88ZM225.239 85.88L225.239 84.88L224.239 84.88L224.239 85.88L225.239 85.88ZM225.239 96L225.239 97L226.239 97L226.239 96L225.239 96ZM218.199 96L217.199 96L217.199 97L218.199 97L218.199 96ZM218.199 65.2L218.199 64.2L217.199 64.2L217.199 65.2L218.199 65.2ZM237.999 68.28L238.706 67.5729L238.706 67.5729L237.999 68.28ZM239.495 80.996L238.658 80.4483L238.655 80.4521L239.495 80.996ZM235.403 84.692L234.943 83.8038L234.011 84.2858L234.537 85.1936L235.403 84.692ZM241.959 96L241.959 97L243.694 97L242.824 95.4984L241.959 96ZM225.239 71.8L225.239 70.8L224.239 70.8L224.239 71.8L225.239 71.8ZM225.239 79.72L224.239 79.72L224.239 80.72L225.239 80.72L225.239 79.72ZM232.983 78.576L232.248 77.8977L232.241 77.9055L232.234 77.9134L232.983 78.576ZM232.983 72.944L232.234 73.6066L232.241 73.6145L232.248 73.6223L232.983 72.944ZM235.258 95.5022L229.45 85.3822L227.715 86.3778L233.523 96.4978L235.258 95.5022ZM228.583 84.88L225.239 84.88L225.239 86.88L228.583 86.88L228.583 84.88ZM224.239 85.88L224.239 96L226.239 96L226.239 85.88L224.239 85.88ZM225.239 95L218.199 95L218.199 97L225.239 97L225.239 95ZM219.199 96L219.199 65.2L217.199 65.2L217.199 96L219.199 96ZM218.199 66.2L230.519 66.2L230.519 64.2L218.199 64.2L218.199 66.2ZM230.519 66.2C233.19 66.2 235.428 67.1234 237.291 68.9871L238.706 67.5729C236.463 65.3299 233.714 64.2 230.519 64.2L230.519 66.2ZM237.291 68.9871C239.155 70.8508 240.079 73.0889 240.079 75.76L242.079 75.76C242.079 72.5645 240.949 69.8159 238.706 67.5729L237.291 68.9871ZM240.079 75.76C240.079 77.4373 239.61 78.9931 238.658 80.4483L240.331 81.5437C241.491 79.7722 242.079 77.8374 242.079 75.76L240.079 75.76ZM238.655 80.4521C237.725 81.8881 236.493 83.0024 234.943 83.8038L235.862 85.5802C237.715 84.6216 239.211 83.272 240.334 81.5399L238.655 80.4521ZM234.537 85.1936L241.093 96.5016L242.824 95.4984L236.268 84.1904L234.537 85.1936ZM241.959 95L234.391 95L234.391 97L241.959 97L241.959 95ZM224.239 71.8L224.239 79.72L226.239 79.72L226.239 71.8L224.239 71.8ZM225.239 80.72L230.519 80.72L230.519 78.72L225.239 78.72L225.239 80.72ZM230.519 80.72C231.79 80.72 232.878 80.2032 233.732 79.2386L232.234 77.9134C231.738 78.4742 231.184 78.72 230.519 78.72L230.519 80.72ZM233.717 79.2543C234.605 78.2925 235.039 77.1057 235.039 75.76L233.039 75.76C233.039 76.6436 232.768 77.3342 232.248 77.8977L233.717 79.2543ZM235.039 75.76C235.039 74.4143 234.605 73.2275 233.717 72.2657L232.248 73.6223C232.768 74.1858 233.039 74.8764 233.039 75.76L235.039 75.76ZM233.732 72.2814C232.878 71.3168 231.79 70.8 230.519 70.8L230.519 72.8C231.184 72.8 231.738 73.0458 232.234 73.6066L233.732 72.2814ZM230.519 70.8L225.239 70.8L225.239 72.8L230.519 72.8L230.519 70.8ZM270.887 91.996L270.183 91.2856L270.887 91.996ZM248.183 91.996L248.887 91.2856L248.183 91.996ZM253.111 87.2L252.404 87.9071L252.41 87.9131L253.111 87.2ZM265.915 87.2L265.214 86.4869L265.208 86.4929L265.915 87.2ZM265.915 74L265.208 74.7071L265.214 74.7131L265.915 74ZM253.111 74L252.41 73.2869L252.404 73.2929L253.111 74ZM270.183 91.2856C267.265 94.1762 263.736 95.616 259.535 95.616L259.535 97.616C264.252 97.616 268.29 95.9758 271.591 92.7065L270.183 91.2856ZM259.535 95.616C255.335 95.616 251.805 94.1762 248.887 91.2856L247.479 92.7065C250.78 95.9758 254.819 97.616 259.535 97.616L259.535 95.616ZM248.887 91.2856C245.974 88.4 244.519 84.8601 244.519 80.6L242.519 80.6C242.519 85.3746 244.174 89.432 247.479 92.7065L248.887 91.2856ZM244.519 80.6C244.519 76.3399 245.974 72.8 248.887 69.9144L247.479 68.4935C244.174 71.768 242.519 75.8254 242.519 80.6L244.519 80.6ZM248.887 69.9144C251.805 67.0238 255.335 65.584 259.535 65.584L259.535 63.584C254.819 63.584 250.78 65.2242 247.479 68.4935L248.887 69.9144ZM259.535 65.584C263.736 65.584 267.265 67.0238 270.183 69.9144L271.591 68.4935C268.29 65.2242 264.252 63.584 259.535 63.584L259.535 65.584ZM270.183 69.9144C273.096 72.8 274.551 76.3399 274.551 80.6L276.551 80.6C276.551 75.8254 274.897 71.768 271.591 68.4935L270.183 69.9144ZM274.551 80.6C274.551 84.8601 273.096 88.4 270.183 91.2856L271.591 92.7065C274.897 89.432 276.551 85.3746 276.551 80.6L274.551 80.6ZM252.41 87.9131C254.338 89.8086 256.736 90.752 259.535 90.752L259.535 88.752C257.23 88.752 255.345 87.9941 253.812 86.4869L252.41 87.9131ZM259.535 90.752C262.335 90.752 264.721 89.8082 266.622 87.9071L265.208 86.4929C263.707 87.9944 261.84 88.752 259.535 88.752L259.535 90.752ZM266.616 87.9131C268.56 86.0019 269.511 83.5339 269.511 80.6L267.511 80.6C267.511 83.0635 266.731 84.9955 265.214 86.4869L266.616 87.9131ZM269.511 80.6C269.511 77.6661 268.56 75.1981 266.616 73.2869L265.214 74.7131C266.731 76.2045 267.511 78.1365 267.511 80.6L269.511 80.6ZM266.622 73.2929C264.721 71.3918 262.335 70.448 259.535 70.448L259.535 72.448C261.84 72.448 263.707 73.2056 265.208 74.7071L266.622 73.2929ZM259.535 70.448C256.736 70.448 254.338 71.3914 252.41 73.2869L253.812 74.7131C255.345 73.2059 257.23 72.448 259.535 72.448L259.535 70.448ZM252.404 73.2929C250.492 75.2053 249.559 77.6714 249.559 80.6L251.559 80.6C251.559 78.1313 252.328 76.1974 253.818 74.7071L252.404 73.2929ZM249.559 80.6C249.559 83.5286 250.492 85.9947 252.404 87.9071L253.818 86.4929C252.328 85.0026 251.559 83.0687 251.559 80.6L249.559 80.6ZM297.978 96L297.025 96.3032L297.247 97L297.978 97L297.978 96ZM296.438 91.16L297.391 90.8568L297.169 90.16L296.438 90.16L296.438 91.16ZM284.998 91.16L284.998 90.16L284.267 90.16L284.045 90.8568L284.998 91.16ZM283.458 96L283.458 97L284.189 97L284.411 96.3032L283.458 96ZM275.758 96L274.811 95.6781L274.362 97L275.758 97L275.758 96ZM286.23 65.2L286.23 64.2L285.514 64.2L285.283 64.8781L286.23 65.2ZM295.206 65.2L296.153 64.8781L295.922 64.2L295.206 64.2L295.206 65.2ZM305.678 96L305.678 97L307.074 97L306.625 95.6781L305.678 96ZM287.11 84.56L286.157 84.256L285.741 85.56L287.11 85.56L287.11 84.56ZM294.326 84.56L294.326 85.56L295.695 85.56L295.278 84.256L294.326 84.56ZM290.718 73.252L291.67 72.948L290.718 69.9622L289.765 72.948L290.718 73.252ZM298.931 95.6968L297.391 90.8568L295.485 91.4632L297.025 96.3032L298.931 95.6968ZM296.438 90.16L284.998 90.16L284.998 92.16L296.438 92.16L296.438 90.16ZM284.045 90.8568L282.505 95.6968L284.411 96.3032L285.951 91.4632L284.045 90.8568ZM283.458 95L275.758 95L275.758 97L283.458 97L283.458 95ZM276.705 96.3219L287.177 65.5219L285.283 64.8781L274.811 95.6781L276.705 96.3219ZM286.23 66.2L295.206 66.2L295.206 64.2L286.23 64.2L286.23 66.2ZM294.259 65.5219L304.731 96.3219L306.625 95.6781L296.153 64.8781L294.259 65.5219ZM305.678 95L297.978 95L297.978 97L305.678 97L305.678 95ZM287.11 85.56L294.326 85.56L294.326 83.56L287.11 83.56L287.11 85.56ZM295.278 84.256L291.67 72.948L289.765 73.556L293.373 84.864L295.278 84.256ZM289.765 72.948L286.157 84.256L288.062 84.864L291.67 73.556L289.765 72.948ZM331.272 69.644L330.551 70.3367L330.558 70.3439L331.272 69.644ZM331.272 91.6L330.554 90.9036L330.554 90.9037L331.272 91.6ZM308.304 96L307.304 96L307.304 97L308.304 97L308.304 96ZM308.304 65.2L308.304 64.2L307.304 64.2L307.304 65.2L308.304 65.2ZM326.52 86.892L325.8 86.1984L325.799 86.1986L326.52 86.892ZM326.52 74.352L325.793 75.0386L325.8 75.0455L325.806 75.0523L326.52 74.352ZM315.344 71.976L315.344 70.976L314.344 70.976L314.344 71.976L315.344 71.976ZM315.344 89.224L314.344 89.224L314.344 90.224L315.344 90.224L315.344 89.224ZM320.624 66.2C324.616 66.2 327.901 67.578 330.551 70.3367L331.993 68.9513C328.952 65.7846 325.139 64.2 320.624 64.2L320.624 66.2ZM330.558 70.3439C333.237 73.0775 334.584 76.4725 334.584 80.6L336.584 80.6C336.584 75.9862 335.057 72.0772 331.986 68.9441L330.558 70.3439ZM334.584 80.6C334.584 84.7276 333.237 88.1393 330.554 90.9036L331.99 92.2964C335.057 89.1353 336.584 85.2138 336.584 80.6L334.584 80.6ZM330.554 90.9037C327.906 93.6342 324.619 95 320.624 95L320.624 97C325.136 97 328.948 95.4325 331.99 92.2963L330.554 90.9037ZM320.624 95L308.304 95L308.304 97L320.624 97L320.624 95ZM309.304 96L309.304 65.2L307.304 65.2L307.304 96L309.304 96ZM308.304 66.2L320.624 66.2L320.624 64.2L308.304 64.2L308.304 66.2ZM320.624 90.224C323.292 90.224 325.531 89.362 327.241 87.5854L325.799 86.1986C324.517 87.5314 322.825 88.224 320.624 88.224L320.624 90.224ZM327.24 87.5856C328.978 85.7811 329.808 83.4176 329.808 80.6L327.808 80.6C327.808 83.0037 327.113 84.8349 325.8 86.1984L327.24 87.5856ZM329.808 80.6C329.808 77.783 328.978 75.4295 327.234 73.6517L325.806 75.0523C327.113 76.3838 327.808 78.1957 327.808 80.6L329.808 80.6ZM327.247 73.6654C325.539 71.8568 323.298 70.976 320.624 70.976L320.624 72.976C322.819 72.976 324.509 73.6792 325.793 75.0386L327.247 73.6654ZM320.624 70.976L315.344 70.976L315.344 72.976L320.624 72.976L320.624 70.976ZM314.344 71.976L314.344 89.224L316.344 89.224L316.344 71.976L314.344 71.976ZM315.344 90.224L320.624 90.224L320.624 88.224L315.344 88.224L315.344 90.224Z" fill="#757575"/>
<circle cx="94.8999" cy="80.5996" r="10.5" fill="#FFD700"/>
<path d="M18.4727 65.1631L18.7014 64.5H18H13.04H12.6836L12.5673 64.8369L1.52734 96.8369L1.29858 97.5H2H6.96H7.31642L7.43266 97.1631L18.4727 65.1631Z" stroke="#757575"/>
<path d="M15.42 42.616C12.2813 42.616 9.656 41.9413 7.544 40.592C5.46133 39.2133 3.98 37.3507 3.1 35.004L9.172 31.484C10.404 34.3293 12.56 35.752 15.64 35.752C18.4267 35.752 19.82 34.916 19.82 33.244C19.82 32.3347 19.3653 31.6307 18.456 31.132C17.576 30.604 15.904 30.0027 13.44 29.328C12.1493 28.976 11.02 28.58 10.052 28.14C9.084 27.7 8.13067 27.128 7.192 26.424C6.28267 25.6907 5.57867 24.7813 5.08 23.696C4.61067 22.6107 4.376 21.364 4.376 19.956C4.376 17.1107 5.388 14.8373 7.412 13.136C9.46533 11.4347 11.9 10.584 14.716 10.584C17.2387 10.584 19.468 11.1853 21.404 12.388C23.34 13.5613 24.8653 15.2773 25.98 17.536L20.04 21.012C19.4827 19.8387 18.7933 18.9587 17.972 18.372C17.1507 17.756 16.0653 17.448 14.716 17.448C13.66 17.448 12.8387 17.6827 12.252 18.152C11.6947 18.592 11.416 19.1347 11.416 19.78C11.416 20.5427 11.768 21.2027 12.472 21.76C13.2053 22.3173 14.7013 22.9333 16.96 23.608C18.192 23.9893 19.1453 24.2973 19.82 24.532C20.4947 24.7667 21.3453 25.1627 22.372 25.72C23.428 26.248 24.22 26.82 24.748 27.436C25.3053 28.0227 25.7893 28.8147 26.2 29.812C26.64 30.78 26.86 31.8947 26.86 33.156C26.86 36.0893 25.804 38.4067 23.692 40.108C21.58 41.78 18.8227 42.616 15.42 42.616ZM50.5743 39.756C48.3449 41.6627 45.4996 42.616 42.0383 42.616C38.5769 42.616 35.7316 41.6627 33.5023 39.756C31.2729 37.8493 30.1583 35.2827 30.1583 32.056L30.1583 11.2L37.1983 11.2L37.1983 31.44C37.1983 34.3147 38.8116 35.752 42.0383 35.752C45.2649 35.752 46.8783 34.3147 46.8783 31.44L46.8783 11.2L53.9183 11.2L53.9183 32.056C53.9183 35.2827 52.8036 37.8493 50.5743 39.756ZM70.6555 11.2C73.6768 11.2 76.2288 12.2267 78.3115 14.28C80.3941 16.3333 81.4355 18.8267 81.4355 21.76C81.4355 24.6933 80.3941 27.1867 78.3115 29.24C76.2288 31.2933 73.6768 32.32 70.6555 32.32L66.0355 32.32L66.0355 42L58.9955 42L58.9955 11.2L70.6555 11.2ZM70.6555 25.72C71.7408 25.72 72.6355 25.3387 73.3395 24.576C74.0435 23.8133 74.3955 22.8747 74.3955 21.76C74.3955 20.6453 74.0435 19.7067 73.3395 18.944C72.6355 18.1813 71.7408 17.8 70.6555 17.8L66.0355 17.8L66.0355 25.72L70.6555 25.72ZM96.6086 11.2C99.6299 11.2 102.182 12.2267 104.265 14.28C106.347 16.3333 107.389 18.8267 107.389 21.76C107.389 24.6933 106.347 27.1867 104.265 29.24C102.182 31.2933 99.6299 32.32 96.6086 32.32L91.9886 32.32L91.9886 42L84.9486 42L84.9486 11.2L96.6086 11.2ZM96.6086 25.72C97.6939 25.72 98.5886 25.3387 99.2926 24.576C99.9966 23.8133 100.349 22.8747 100.349 21.76C100.349 20.6453 99.9966 19.7067 99.2926 18.944C98.5886 18.1813 97.6939 17.8 96.6086 17.8L91.9886 17.8L91.9886 25.72L96.6086 25.72ZM136.735 37.996C133.626 41.076 129.842 42.616 125.383 42.616C120.924 42.616 117.14 41.076 114.031 37.996C110.922 34.916 109.367 31.1173 109.367 26.6C109.367 22.0827 110.922 18.284 114.031 15.204C117.14 12.124 120.924 10.584 125.383 10.584C129.842 10.584 133.626 12.124 136.735 15.204C139.844 18.284 141.399 22.0827 141.399 26.6C141.399 31.1173 139.844 34.916 136.735 37.996ZM118.959 33.2C120.69 34.9013 122.831 35.752 125.383 35.752C127.935 35.752 130.062 34.9013 131.763 33.2C133.494 31.4987 134.359 29.2987 134.359 26.6C134.359 23.9013 133.494 21.7013 131.763 20C130.062 18.2987 127.935 17.448 125.383 17.448C122.831 17.448 120.69 18.2987 118.959 20C117.258 21.7013 116.407 23.9013 116.407 26.6C116.407 29.2987 117.258 31.4987 118.959 33.2ZM161.555 42L155.747 31.88L152.403 31.88L152.403 42L145.363 42L145.363 11.2L157.683 11.2C160.616 11.2 163.109 12.2267 165.163 14.28C167.216 16.3333 168.243 18.8267 168.243 21.76C168.243 23.6373 167.715 25.3827 166.659 26.996C165.632 28.58 164.268 29.812 162.567 30.692L169.123 42L161.555 42ZM152.403 17.8L152.403 25.72L157.683 25.72C158.651 25.72 159.472 25.3387 160.147 24.576C160.851 23.8133 161.203 22.8747 161.203 21.76C161.203 20.6453 160.851 19.7067 160.147 18.944C159.472 18.1813 158.651 17.8 157.683 17.8L152.403 17.8ZM192.468 11.2L192.468 17.976L184.548 17.976L184.548 42L177.508 42L177.508 17.976L169.588 17.976L169.588 11.2L192.468 11.2ZM226.746 39.756C224.517 41.6627 221.671 42.616 218.21 42.616C214.749 42.616 211.903 41.6627 209.674 39.756C207.445 37.8493 206.33 35.2827 206.33 32.056L206.33 11.2L213.37 11.2L213.37 31.44C213.37 34.3147 214.983 35.752 218.21 35.752C221.437 35.752 223.05 34.3147 223.05 31.44L223.05 11.2L230.09 11.2L230.09 32.056C230.09 35.2827 228.975 37.8493 226.746 39.756ZM260.071 42L252.063 42L242.207 27.744L242.207 42L235.167 42L235.167 11.2L242.207 11.2L242.207 24.576L251.623 11.2L259.631 11.2L249.247 26.204L260.071 42ZM278.902 42L273.094 31.88L269.75 31.88L269.75 42L262.71 42L262.71 11.2L275.03 11.2C277.964 11.2 280.457 12.2267 282.51 14.28C284.564 16.3333 285.59 18.8267 285.59 21.76C285.59 23.6373 285.062 25.3827 284.006 26.996C282.98 28.58 281.616 29.812 279.914 30.692L286.47 42L278.902 42ZM269.75 17.8L269.75 25.72L275.03 25.72C275.998 25.72 276.82 25.3387 277.494 24.576C278.198 23.8133 278.55 22.8747 278.55 21.76C278.55 20.6453 278.198 19.7067 277.494 18.944C276.82 18.1813 275.998 17.8 275.03 17.8L269.75 17.8ZM309.361 42L307.821 37.16L296.381 37.16L294.841 42L287.141 42L297.613 11.2L306.589 11.2L317.061 42L309.361 42ZM298.493 30.56L305.709 30.56L302.101 19.252L298.493 30.56ZM319.687 11.2L326.727 11.2L326.727 42L319.687 42L319.687 11.2ZM349.179 11.2L356.219 11.2L356.219 42L350.939 42L339.059 25.28L339.059 42L332.019 42L332.019 11.2L337.299 11.2L349.179 27.92L349.179 11.2ZM368.535 35.224L380.855 35.224L380.855 42L361.495 42L361.495 11.2L380.635 11.2L380.635 17.976L368.535 17.976L368.535 23.08L379.535 23.08L379.535 29.768L368.535 29.768L368.535 35.224Z" fill="white"/>
<circle cx="125.5" cy="26.5" r="10.5" fill="#0057B7"/>
</svg>
