<svg  viewBox="0 0 436 165" fill="none" xmlns="http://www.w3.org/2000/svg">
<path d="M49.34 119.2L50.34 119.2L50.34 118.2L49.34 118.2L49.34 119.2ZM49.34 125.976L49.34 126.976L50.34 126.976L50.34 125.976L49.34 125.976ZM37.68 125.976L37.68 124.976L36.68 124.976L36.68 125.976L37.68 125.976ZM37.68 131.916L36.68 131.916L36.68 132.916L37.68 132.916L37.68 131.916ZM49.12 131.916L50.12 131.916L50.12 130.916L49.12 130.916L49.12 131.916ZM49.12 138.692L49.12 139.692L50.12 139.692L50.12 138.692L49.12 138.692ZM37.68 138.692L37.68 137.692L36.68 137.692L36.68 138.692L37.68 138.692ZM37.68 150L37.68 151L38.68 151L38.68 150L37.68 150ZM30.64 150L29.64 150L29.64 151L30.64 151L30.64 150ZM30.64 119.2L30.64 118.2L29.64 118.2L29.64 119.2L30.64 119.2ZM48.34 119.2L48.34 125.976L50.34 125.976L50.34 119.2L48.34 119.2ZM49.34 124.976L37.68 124.976L37.68 126.976L49.34 126.976L49.34 124.976ZM36.68 125.976L36.68 131.916L38.68 131.916L38.68 125.976L36.68 125.976ZM37.68 132.916L49.12 132.916L49.12 130.916L37.68 130.916L37.68 132.916ZM48.12 131.916L48.12 138.692L50.12 138.692L50.12 131.916L48.12 131.916ZM49.12 137.692L37.68 137.692L37.68 139.692L49.12 139.692L49.12 137.692ZM36.68 138.692L36.68 150L38.68 150L38.68 138.692L36.68 138.692ZM37.68 149L30.64 149L30.64 151L37.68 151L37.68 149ZM31.64 150L31.64 119.2L29.64 119.2L29.64 150L31.64 150ZM30.64 120.2L49.34 120.2L49.34 118.2L30.64 118.2L30.64 120.2ZM77.2594 150L77.2594 151L78.9951 151L78.1245 149.498L77.2594 150ZM69.6914 150L68.8241 150.498L69.1123 151L69.6914 151L69.6914 150ZM63.8834 139.88L64.7507 139.382L64.4624 138.88L63.8834 138.88L63.8834 139.88ZM60.5394 139.88L60.5394 138.88L59.5394 138.88L59.5394 139.88L60.5394 139.88ZM60.5394 150L60.5394 151L61.5394 151L61.5394 150L60.5394 150ZM53.4994 150L52.4994 150L52.4994 151L53.4994 151L53.4994 150ZM53.4994 119.2L53.4994 118.2L52.4994 118.2L52.4994 119.2L53.4994 119.2ZM73.2994 122.28L74.0065 121.573L74.0065 121.573L73.2994 122.28ZM74.7954 134.952L73.9586 134.404L73.9517 134.415L74.7954 134.952ZM70.7034 138.692L70.244 137.804L69.312 138.286L69.8383 139.194L70.7034 138.692ZM60.5394 125.8L60.5394 124.8L59.5394 124.8L59.5394 125.8L60.5394 125.8ZM60.5394 133.72L59.5394 133.72L59.5394 134.72L60.5394 134.72L60.5394 133.72ZM68.2834 132.576L67.5486 131.898L67.5414 131.905L67.5344 131.913L68.2834 132.576ZM68.2834 126.944L67.5344 127.607L67.5414 127.615L67.5486 127.622L68.2834 126.944ZM77.2594 149L69.6914 149L69.6914 151L77.2594 151L77.2594 149ZM70.5587 149.502L64.7507 139.382L63.0161 140.378L68.8241 150.498L70.5587 149.502ZM63.8834 138.88L60.5394 138.88L60.5394 140.88L63.8834 140.88L63.8834 138.88ZM59.5394 139.88L59.5394 150L61.5394 150L61.5394 139.88L59.5394 139.88ZM60.5394 149L53.4994 149L53.4994 151L60.5394 151L60.5394 149ZM54.4994 150L54.4994 119.2L52.4994 119.2L52.4994 150L54.4994 150ZM53.4994 120.2L65.8194 120.2L65.8194 118.2L53.4994 118.2L53.4994 120.2ZM65.8194 120.2C68.4905 120.2 70.7286 121.123 72.5923 122.987L74.0065 121.573C71.7635 119.33 69.0149 118.2 65.8194 118.2L65.8194 120.2ZM72.5923 122.987C74.4559 124.851 75.3794 127.089 75.3794 129.76L77.3794 129.76C77.3794 126.564 76.2495 123.816 74.0065 121.573L72.5923 122.987ZM75.3794 129.76C75.3794 131.405 74.913 132.946 73.9587 134.404L75.6321 135.5C76.7897 133.731 77.3794 131.811 77.3794 129.76L75.3794 129.76ZM73.9517 134.415C73.02 135.879 71.7887 137.005 70.244 137.804L71.1628 139.58C73.0207 138.619 74.5174 137.251 75.639 135.489L73.9517 134.415ZM69.8383 139.194L76.3943 150.502L78.1245 149.498L71.5685 138.19L69.8383 139.194ZM65.8194 124.8L60.5394 124.8L60.5394 126.8L65.8194 126.8L65.8194 124.8ZM59.5394 125.8L59.5394 133.72L61.5394 133.72L61.5394 125.8L59.5394 125.8ZM60.5394 134.72L65.8194 134.72L65.8194 132.72L60.5394 132.72L60.5394 134.72ZM65.8194 134.72C67.0903 134.72 68.1791 134.203 69.0324 133.239L67.5344 131.913C67.0383 132.474 66.4844 132.72 65.8194 132.72L65.8194 134.72ZM69.0182 133.254C69.906 132.292 70.3394 131.106 70.3394 129.76L68.3394 129.76C68.3394 130.644 68.0688 131.334 67.5486 131.898L69.0182 133.254ZM70.3394 129.76C70.3394 128.414 69.906 127.228 69.0182 126.266L67.5486 127.622C68.0688 128.186 68.3394 128.876 68.3394 129.76L70.3394 129.76ZM69.0324 126.281C68.1791 125.317 67.0903 124.8 65.8194 124.8L65.8194 126.8C66.4844 126.8 67.0383 127.046 67.5344 127.607L69.0324 126.281ZM106.188 145.996L105.484 145.286L106.188 145.996ZM83.484 145.996L84.1877 145.286L83.484 145.996ZM88.412 141.2L87.7049 141.907L88.412 141.2ZM101.216 141.2L100.509 140.493L101.216 141.2ZM101.216 128L100.509 128.707L101.216 128ZM88.412 128L89.1191 128.707L88.412 128ZM105.484 145.286C102.566 148.176 99.0366 149.616 94.836 149.616L94.836 151.616C99.5527 151.616 103.591 149.976 106.892 146.706L105.484 145.286ZM94.836 149.616C90.6354 149.616 87.1059 148.176 84.1877 145.286L82.7803 146.706C86.0807 149.976 90.1193 151.616 94.836 151.616L94.836 149.616ZM84.1877 145.286C81.2747 142.4 79.82 138.86 79.82 134.6L77.82 134.6C77.82 139.375 79.4746 143.432 82.7803 146.706L84.1877 145.286ZM79.82 134.6C79.82 130.34 81.2747 126.8 84.1877 123.914L82.7803 122.494C79.4746 125.768 77.82 129.825 77.82 134.6L79.82 134.6ZM84.1877 123.914C87.1059 121.024 90.6354 119.584 94.836 119.584L94.836 117.584C90.1193 117.584 86.0807 119.224 82.7803 122.494L84.1877 123.914ZM94.836 119.584C99.0366 119.584 102.566 121.024 105.484 123.914L106.892 122.494C103.591 119.224 99.5527 117.584 94.836 117.584L94.836 119.584ZM105.484 123.914C108.397 126.8 109.852 130.34 109.852 134.6L111.852 134.6C111.852 129.825 110.197 125.768 106.892 122.494L105.484 123.914ZM109.852 134.6C109.852 138.86 108.397 142.4 105.484 145.286L106.892 146.706C110.197 143.432 111.852 139.375 111.852 134.6L109.852 134.6ZM84.86 134.6C84.86 137.529 85.7925 139.995 87.7049 141.907L89.1191 140.493C87.6288 139.003 86.86 137.069 86.86 134.6L84.86 134.6ZM87.7049 141.907C89.6084 143.811 92.0108 144.752 94.836 144.752L94.836 142.752C92.4985 142.752 90.6183 141.992 89.1191 140.493L87.7049 141.907ZM94.836 144.752C97.6354 144.752 100.022 143.808 101.923 141.907L100.509 140.493C99.0074 141.994 97.1406 142.752 94.836 142.752L94.836 144.752ZM101.923 141.907C103.859 139.971 104.812 137.508 104.812 134.6L102.812 134.6C102.812 137.031 102.034 138.968 100.509 140.493L101.923 141.907ZM104.812 134.6C104.812 131.692 103.859 129.229 101.923 127.293L100.509 128.707C102.034 130.232 102.812 132.169 102.812 134.6L104.812 134.6ZM101.923 127.293C100.022 125.392 97.6354 124.448 94.836 124.448L94.836 126.448C97.1406 126.448 99.0074 127.206 100.509 128.707L101.923 127.293ZM94.836 124.448C92.0108 124.448 89.6084 125.389 87.7049 127.293L89.1191 128.707C90.6183 127.208 92.4985 126.448 94.836 126.448L94.836 124.448ZM87.7049 127.293C85.7925 129.205 84.86 131.671 84.86 134.6L86.86 134.6C86.86 132.131 87.6288 130.197 89.1191 128.707L87.7049 127.293ZM138.576 119.2L138.576 118.2L138.015 118.2L137.722 118.679L138.576 119.2ZM145.616 119.2L146.616 119.2L146.616 118.2L145.616 118.2L145.616 119.2ZM145.616 150L145.616 151L146.616 151L146.616 150L145.616 150ZM138.576 150L137.576 150L137.576 151L138.576 151L138.576 150ZM138.576 132.092L139.576 132.092L139.576 128.53L137.722 131.572L138.576 132.092ZM130.612 145.16L130.612 146.16L131.173 146.16L131.466 145.68L130.612 145.16ZM129.82 145.16L128.966 145.68L129.258 146.16L129.82 146.16L129.82 145.16ZM121.856 132.092L122.71 131.572L120.856 128.53L120.856 132.092L121.856 132.092ZM121.856 150L121.856 151L122.856 151L122.856 150L121.856 150ZM114.816 150L113.816 150L113.816 151L114.816 151L114.816 150ZM114.816 119.2L114.816 118.2L113.816 118.2L113.816 119.2L114.816 119.2ZM121.856 119.2L122.709 118.679L122.417 118.2L121.856 118.2L121.856 119.2ZM130.216 132.884L129.362 133.405L130.216 134.802L131.069 133.405L130.216 132.884ZM138.576 120.2L145.616 120.2L145.616 118.2L138.576 118.2L138.576 120.2ZM144.616 119.2L144.616 150L146.616 150L146.616 119.2L144.616 119.2ZM145.616 149L138.576 149L138.576 151L145.616 151L145.616 149ZM139.576 150L139.576 132.092L137.576 132.092L137.576 150L139.576 150ZM137.722 131.572L129.758 144.64L131.466 145.68L139.43 132.612L137.722 131.572ZM130.612 144.16L129.82 144.16L129.82 146.16L130.612 146.16L130.612 144.16ZM130.674 144.64L122.71 131.572L121.002 132.612L128.966 145.68L130.674 144.64ZM120.856 132.092L120.856 150L122.856 150L122.856 132.092L120.856 132.092ZM121.856 149L114.816 149L114.816 151L121.856 151L121.856 149ZM115.816 150L115.816 119.2L113.816 119.2L113.816 150L115.816 150ZM114.816 120.2L121.856 120.2L121.856 118.2L114.816 118.2L114.816 120.2ZM121.002 119.721L129.362 133.405L131.069 132.363L122.709 118.679L121.002 119.721ZM131.069 133.405L139.429 119.721L137.722 118.679L129.362 132.363L131.069 133.405ZM189.19 150L189.19 151L190.586 151L190.136 149.678L189.19 150ZM181.49 150L180.537 150.303L180.758 151L181.49 151L181.49 150ZM179.95 145.16L180.902 144.857L180.681 144.16L179.95 144.16L179.95 145.16ZM168.51 145.16L168.51 144.16L167.778 144.16L167.557 144.857L168.51 145.16ZM166.97 150L166.97 151L167.701 151L167.922 150.303L166.97 150ZM159.27 150L158.323 149.678L157.873 151L159.27 151L159.27 150ZM169.742 119.2L169.742 118.2L169.025 118.2L168.795 118.878L169.742 119.2ZM178.718 119.2L179.664 118.878L179.434 118.2L178.718 118.2L178.718 119.2ZM174.23 127.252L175.182 126.948L174.23 123.962L173.277 126.948L174.23 127.252ZM170.622 138.56L169.669 138.256L169.253 139.56L170.622 139.56L170.622 138.56ZM177.838 138.56L177.838 139.56L179.206 139.56L178.79 138.256L177.838 138.56ZM189.19 149L181.49 149L181.49 151L189.19 151L189.19 149ZM182.442 149.697L180.902 144.857L178.997 145.463L180.537 150.303L182.442 149.697ZM179.95 144.16L168.51 144.16L168.51 146.16L179.95 146.16L179.95 144.16ZM167.557 144.857L166.017 149.697L167.922 150.303L169.462 145.463L167.557 144.857ZM166.97 149L159.27 149L159.27 151L166.97 151L166.97 149ZM160.216 150.322L170.688 119.522L168.795 118.878L158.323 149.678L160.216 150.322ZM169.742 120.2L178.718 120.2L178.718 118.2L169.742 118.2L169.742 120.2ZM177.771 119.522L188.243 150.322L190.136 149.678L179.664 118.878L177.771 119.522ZM173.277 126.948L169.669 138.256L171.574 138.864L175.182 127.556L173.277 126.948ZM170.622 139.56L177.838 139.56L177.838 137.56L170.622 137.56L170.622 139.56ZM178.79 138.256L175.182 126.948L173.277 127.556L176.885 138.864L178.79 138.256ZM210.912 134.028L210.263 133.267L209.244 134.135L210.366 134.866L210.912 134.028ZM211.836 147.492L212.495 148.244L211.836 147.492ZM191.816 150L190.816 150L190.816 151L191.816 151L191.816 150ZM191.816 119.2L191.816 118.2L190.816 118.2L190.816 119.2L191.816 119.2ZM210.78 121.664L210.121 122.417L210.128 122.422L210.78 121.664ZM198.856 125.8L198.856 124.8L197.856 124.8L197.856 125.8L198.856 125.8ZM198.856 131.256L197.856 131.256L197.856 132.256L198.856 132.256L198.856 131.256ZM205.808 130.508L206.515 131.215L206.525 131.205L206.535 131.195L205.808 130.508ZM205.808 126.592L205.081 127.279L205.091 127.289L205.101 127.299L205.808 126.592ZM198.856 143.4L197.856 143.4L197.856 144.4L198.856 144.4L198.856 143.4ZM206.864 142.608L207.571 143.315L207.58 143.306L207.59 143.296L206.864 142.608ZM206.864 138.34L206.138 139.028L206.147 139.038L206.157 139.047L206.864 138.34ZM198.856 137.504L198.856 136.504L197.856 136.504L197.856 137.504L198.856 137.504ZM210.366 134.866C212.607 136.325 213.696 138.329 213.696 140.98L215.696 140.98C215.696 137.647 214.261 135.016 211.457 133.19L210.366 134.866ZM213.696 140.98C213.696 143.379 212.854 145.269 211.176 146.74L212.495 148.244C214.631 146.371 215.696 143.92 215.696 140.98L213.696 140.98ZM211.176 146.74C209.473 148.234 207.354 149 204.752 149L204.752 151C207.782 151 210.385 150.094 212.495 148.244L211.176 146.74ZM204.752 149L191.816 149L191.816 151L204.752 151L204.752 149ZM192.816 150L192.816 119.2L190.816 119.2L190.816 150L192.816 150ZM191.816 120.2L203.872 120.2L203.872 118.2L191.816 118.2L191.816 120.2ZM203.872 120.2C206.382 120.2 208.444 120.949 210.121 122.417L211.438 120.911C209.361 119.094 206.818 118.2 203.872 118.2L203.872 120.2ZM210.128 122.422C211.771 123.834 212.596 125.663 212.596 128L214.596 128C214.596 125.116 213.543 122.72 211.432 120.906L210.128 122.422ZM212.596 128C212.596 130.221 211.815 131.944 210.263 133.267L211.561 134.789C213.588 133.061 214.596 130.766 214.596 128L212.596 128ZM203.872 124.8L198.856 124.8L198.856 126.8L203.872 126.8L203.872 124.8ZM197.856 125.8L197.856 131.256L199.856 131.256L199.856 125.8L197.856 125.8ZM198.856 132.256L203.872 132.256L203.872 130.256L198.856 130.256L198.856 132.256ZM203.872 132.256C204.893 132.256 205.805 131.925 206.515 131.215L205.101 129.801C204.813 130.088 204.434 130.256 203.872 130.256L203.872 132.256ZM206.535 131.195C207.225 130.463 207.556 129.55 207.556 128.528L205.556 128.528C205.556 129.09 205.388 129.497 205.081 129.821L206.535 131.195ZM207.556 128.528C207.556 127.506 207.225 126.595 206.515 125.885L205.101 127.299C205.388 127.586 205.556 127.966 205.556 128.528L207.556 128.528ZM206.535 125.905C205.829 125.158 204.911 124.8 203.872 124.8L203.872 126.8C204.416 126.8 204.789 126.97 205.081 127.279L206.535 125.905ZM198.856 144.4L204.752 144.4L204.752 142.4L198.856 142.4L198.856 144.4ZM204.752 144.4C205.846 144.4 206.822 144.064 207.571 143.315L206.157 141.901C205.849 142.208 205.418 142.4 204.752 142.4L204.752 144.4ZM207.59 143.296C208.32 142.525 208.656 141.548 208.656 140.452L206.656 140.452C206.656 141.116 206.464 141.576 206.138 141.92L207.59 143.296ZM208.656 140.452C208.656 139.358 208.32 138.382 207.571 137.633L206.157 139.047C206.464 139.354 206.656 139.786 206.656 140.452L208.656 140.452ZM207.59 137.652C206.845 136.866 205.862 136.504 204.752 136.504L204.752 138.504C205.401 138.504 205.827 138.7 206.138 139.028L207.59 137.652ZM204.752 136.504L198.856 136.504L198.856 138.504L204.752 138.504L204.752 136.504ZM197.856 137.504L197.856 143.4L199.856 143.4L199.856 137.504L197.856 137.504ZM241.959 150L241.959 151L243.694 151L242.824 149.498L241.959 150ZM234.391 150L233.523 150.498L233.812 151L234.391 151L234.391 150ZM228.583 139.88L229.45 139.382L229.162 138.88L228.583 138.88L228.583 139.88ZM225.239 139.88L225.239 138.88L224.239 138.88L224.239 139.88L225.239 139.88ZM225.239 150L225.239 151L226.239 151L226.239 150L225.239 150ZM218.199 150L217.199 150L217.199 151L218.199 151L218.199 150ZM218.199 119.2L218.199 118.2L217.199 118.2L217.199 119.2L218.199 119.2ZM237.999 122.28L238.706 121.573V121.573L237.999 122.28ZM239.495 134.952L238.658 134.404L238.651 134.415L239.495 134.952ZM235.403 138.692L234.943 137.804L234.011 138.286L234.537 139.194L235.403 138.692ZM225.239 125.8L225.239 124.8L224.239 124.8L224.239 125.8L225.239 125.8ZM225.239 133.72L224.239 133.72L224.239 134.72L225.239 134.72L225.239 133.72ZM232.983 132.576L232.248 131.898L232.241 131.905L232.234 131.913L232.983 132.576ZM232.983 126.944L232.234 127.607L232.241 127.615L232.248 127.622L232.983 126.944ZM241.959 149L234.391 149L234.391 151L241.959 151L241.959 149ZM235.258 149.502L229.45 139.382L227.715 140.378L233.523 150.498L235.258 149.502ZM228.583 138.88L225.239 138.88L225.239 140.88L228.583 140.88L228.583 138.88ZM224.239 139.88L224.239 150L226.239 150L226.239 139.88L224.239 139.88ZM225.239 149L218.199 149L218.199 151L225.239 151L225.239 149ZM219.199 150L219.199 119.2L217.199 119.2L217.199 150L219.199 150ZM218.199 120.2L230.519 120.2L230.519 118.2L218.199 118.2L218.199 120.2ZM230.519 120.2C233.19 120.2 235.428 121.123 237.291 122.987L238.706 121.573C236.463 119.33 233.714 118.2 230.519 118.2L230.519 120.2ZM237.291 122.987C239.155 124.851 240.079 127.089 240.079 129.76L242.079 129.76C242.079 126.564 240.949 123.816 238.706 121.573L237.291 122.987ZM240.079 129.76C240.079 131.405 239.612 132.946 238.658 134.404L240.331 135.5C241.489 133.731 242.079 131.811 242.079 129.76L240.079 129.76ZM238.651 134.415C237.719 135.879 236.488 137.005 234.943 137.804L235.862 139.58C237.72 138.619 239.217 137.251 240.338 135.489L238.651 134.415ZM234.537 139.194L241.093 150.502L242.824 149.498L236.268 138.19L234.537 139.194ZM230.519 124.8L225.239 124.8L225.239 126.8L230.519 126.8L230.519 124.8ZM224.239 125.8L224.239 133.72L226.239 133.72L226.239 125.8L224.239 125.8ZM225.239 134.72L230.519 134.72L230.519 132.72L225.239 132.72L225.239 134.72ZM230.519 134.72C231.79 134.72 232.878 134.203 233.732 133.239L232.234 131.913C231.738 132.474 231.184 132.72 230.519 132.72L230.519 134.72ZM233.717 133.254C234.605 132.292 235.039 131.106 235.039 129.76L233.039 129.76C233.039 130.644 232.768 131.334 232.248 131.898L233.717 133.254ZM235.039 129.76C235.039 128.414 234.605 127.228 233.717 126.266L232.248 127.622C232.768 128.186 233.039 128.876 233.039 129.76L235.039 129.76ZM233.732 126.281C232.878 125.317 231.79 124.8 230.519 124.8L230.519 126.8C231.184 126.8 231.738 127.046 232.234 127.607L233.732 126.281ZM270.887 145.996L270.183 145.286L270.887 145.996ZM248.183 145.996L248.887 145.286L248.183 145.996ZM253.111 141.2L252.404 141.907L253.111 141.2ZM265.915 141.2L265.208 140.493L265.915 141.2ZM265.915 128L265.208 128.707L265.915 128ZM253.111 128L253.818 128.707L253.111 128ZM270.183 145.286C267.265 148.176 263.736 149.616 259.535 149.616L259.535 151.616C264.252 151.616 268.29 149.976 271.591 146.706L270.183 145.286ZM259.535 149.616C255.335 149.616 251.805 148.176 248.887 145.286L247.479 146.706C250.78 149.976 254.819 151.616 259.535 151.616L259.535 149.616ZM248.887 145.286C245.974 142.4 244.519 138.86 244.519 134.6L242.519 134.6C242.519 139.375 244.174 143.432 247.479 146.706L248.887 145.286ZM244.519 134.6C244.519 130.34 245.974 126.8 248.887 123.914L247.479 122.494C244.174 125.768 242.519 129.825 242.519 134.6L244.519 134.6ZM248.887 123.914C251.805 121.024 255.335 119.584 259.535 119.584L259.535 117.584C254.819 117.584 250.78 119.224 247.479 122.494L248.887 123.914ZM259.535 119.584C263.736 119.584 267.265 121.024 270.183 123.914L271.591 122.494C268.29 119.224 264.252 117.584 259.535 117.584L259.535 119.584ZM270.183 123.914C273.096 126.8 274.551 130.34 274.551 134.6L276.551 134.6C276.551 129.825 274.897 125.768 271.591 122.494L270.183 123.914ZM274.551 134.6C274.551 138.86 273.096 142.4 270.183 145.286L271.591 146.706C274.897 143.432 276.551 139.375 276.551 134.6L274.551 134.6ZM249.559 134.6C249.559 137.529 250.492 139.995 252.404 141.907L253.818 140.493C252.328 139.003 251.559 137.069 251.559 134.6L249.559 134.6ZM252.404 141.907C254.308 143.811 256.71 144.752 259.535 144.752L259.535 142.752C257.198 142.752 255.318 141.992 253.818 140.493L252.404 141.907ZM259.535 144.752C262.335 144.752 264.721 143.808 266.622 141.907L265.208 140.493C263.707 141.994 261.84 142.752 259.535 142.752L259.535 144.752ZM266.622 141.907C268.558 139.971 269.511 137.508 269.511 134.6L267.511 134.6C267.511 137.031 266.733 138.968 265.208 140.493L266.622 141.907ZM269.511 134.6C269.511 131.692 268.558 129.229 266.622 127.293L265.208 128.707C266.733 130.232 267.511 132.169 267.511 134.6L269.511 134.6ZM266.622 127.293C264.721 125.392 262.335 124.448 259.535 124.448L259.535 126.448C261.84 126.448 263.707 127.206 265.208 128.707L266.622 127.293ZM259.535 124.448C256.71 124.448 254.308 125.389 252.404 127.293L253.818 128.707C255.318 127.208 257.198 126.448 259.535 126.448L259.535 124.448ZM252.404 127.293C250.492 129.205 249.559 131.671 249.559 134.6L251.559 134.6C251.559 132.131 252.328 130.197 253.818 128.707L252.404 127.293ZM305.678 150L305.678 151L307.074 151L306.625 149.678L305.678 150ZM297.978 150L297.025 150.303L297.247 151L297.978 151L297.978 150ZM296.438 145.16L297.391 144.857L297.169 144.16L296.438 144.16L296.438 145.16ZM284.998 145.16L284.998 144.16L284.267 144.16L284.045 144.857L284.998 145.16ZM283.458 150L283.458 151L284.189 151L284.411 150.303L283.458 150ZM275.758 150L274.811 149.678L274.362 151L275.758 151L275.758 150ZM286.23 119.2L286.23 118.2L285.514 118.2L285.283 118.878L286.23 119.2ZM295.206 119.2L296.153 118.878L295.922 118.2L295.206 118.2L295.206 119.2ZM290.718 127.252L291.671 126.948L290.718 123.962L289.765 126.948L290.718 127.252ZM287.11 138.56L286.157 138.256L285.741 139.56L287.11 139.56L287.11 138.56ZM294.326 138.56L294.326 139.56L295.695 139.56L295.279 138.256L294.326 138.56ZM305.678 149L297.978 149L297.978 151L305.678 151L305.678 149ZM298.931 149.697L297.391 144.857L295.485 145.463L297.025 150.303L298.931 149.697ZM296.438 144.16L284.998 144.16L284.998 146.16L296.438 146.16L296.438 144.16ZM284.045 144.857L282.505 149.697L284.411 150.303L285.951 145.463L284.045 144.857ZM283.458 149L275.758 149L275.758 151L283.458 151L283.458 149ZM276.705 150.322L287.177 119.522L285.283 118.878L274.811 149.678L276.705 150.322ZM286.23 120.2L295.206 120.2L295.206 118.2L286.23 118.2L286.23 120.2ZM294.259 119.522L304.731 150.322L306.625 149.678L296.153 118.878L294.259 119.522ZM289.765 126.948L286.157 138.256L288.062 138.864L291.671 127.556L289.765 126.948ZM287.11 139.56L294.326 139.56L294.326 137.56L287.11 137.56L287.11 139.56ZM295.279 138.256L291.671 126.948L289.765 127.556L293.373 138.864L295.279 138.256ZM308.304 119.2L308.304 118.2L307.304 118.2L307.304 119.2L308.304 119.2ZM331.272 145.6L330.554 144.904L330.554 144.904L331.272 145.6ZM308.304 150L307.304 150L307.304 151L308.304 151L308.304 150ZM315.344 143.224L314.344 143.224L314.344 144.224L315.344 144.224L315.344 143.224ZM326.52 140.892L325.806 140.192L325.799 140.199L326.52 140.892ZM326.52 128.352L325.793 129.039L325.803 129.049L325.813 129.059L326.52 128.352ZM315.344 125.976L315.344 124.976L314.344 124.976L314.344 125.976L315.344 125.976ZM308.304 120.2L320.624 120.2L320.624 118.2L308.304 118.2L308.304 120.2ZM320.624 120.2C324.585 120.2 327.873 121.577 330.554 124.34L331.99 122.948C328.922 119.786 325.111 118.2 320.624 118.2L320.624 120.2ZM330.554 124.34C333.238 127.106 334.584 130.504 334.584 134.6L336.584 134.6C336.584 130.014 335.056 126.107 331.99 122.948L330.554 124.34ZM334.584 134.6C334.584 138.728 333.237 142.139 330.554 144.904L331.99 146.296C335.057 143.135 336.584 139.214 336.584 134.6L334.584 134.6ZM330.554 144.904C327.906 147.634 324.619 149 320.624 149L320.624 151C325.136 151 328.948 149.432 331.99 146.296L330.554 144.904ZM320.624 149L308.304 149L308.304 151L320.624 151L320.624 149ZM309.304 150L309.304 119.2L307.304 119.2L307.304 150L309.304 150ZM315.344 144.224L320.624 144.224L320.624 142.224L315.344 142.224L315.344 144.224ZM320.624 144.224C323.292 144.224 325.531 143.362 327.241 141.585L325.799 140.199C324.517 141.531 322.825 142.224 320.624 142.224L320.624 144.224ZM327.234 141.592C328.98 139.812 329.808 137.443 329.808 134.6L327.808 134.6C327.808 137.037 327.111 138.862 325.806 140.192L327.234 141.592ZM329.808 134.6C329.808 131.758 328.98 129.398 327.227 127.645L325.813 129.059C327.11 130.357 327.808 132.162 327.808 134.6L329.808 134.6ZM327.247 127.665C325.539 125.857 323.298 124.976 320.624 124.976L320.624 126.976C322.819 126.976 324.509 127.679 325.793 129.039L327.247 127.665ZM320.624 124.976L315.344 124.976L315.344 126.976L320.624 126.976L320.624 124.976ZM314.344 125.976L314.344 143.224L316.344 143.224L316.344 125.976L314.344 125.976Z" fill="#757575"/>
<circle cx="94.8999" cy="134.6" r="10.5" fill="#FFD700"/>
<path d="M18.4727 118.163L18.7014 117.5H18H13.04H12.6836L12.5673 117.837L1.52734 149.837L1.29858 150.5H2H6.96H7.31642L7.43266 150.163L18.4727 118.163Z" stroke="#757575"/>
<path d="M15.42 40.616C12.34 40.616 9.744 39.956 7.632 38.636C5.52 37.2867 4.00933 35.4093 3.1 33.004L9.172 29.484C10.404 32.3293 12.56 33.752 15.64 33.752C18.4267 33.752 19.82 32.916 19.82 31.244C19.82 30.3053 19.3653 29.6013 18.456 29.132C17.5173 28.5747 15.8453 27.9733 13.44 27.328C10.976 26.6533 8.89333 25.6853 7.192 24.424C5.31467 22.8987 4.376 20.7427 4.376 17.956C4.376 15.1107 5.388 12.8373 7.412 11.136C9.46533 9.43467 11.9 8.584 14.716 8.584C17.2387 8.584 19.468 9.18533 21.404 10.388C23.34 11.5613 24.8653 13.2773 25.98 15.536L20.04 19.012C18.9253 16.636 17.1507 15.448 14.716 15.448C13.6893 15.448 12.8827 15.668 12.296 16.108C11.7093 16.548 11.416 17.1053 11.416 17.78C11.416 18.5133 11.768 19.1733 12.472 19.76C13.2347 20.3467 14.7307 20.9627 16.96 21.608L19.82 22.532C20.5533 22.7667 21.404 23.1627 22.372 23.72C23.428 24.248 24.22 24.82 24.748 25.436C26.156 26.9613 26.86 28.868 26.86 31.156C26.86 34.06 25.804 36.3773 23.692 38.108C21.58 39.78 18.8227 40.616 15.42 40.616ZM30.1583 30.056L30.1583 9.2L37.1983 9.2L37.1983 29.44C37.1983 32.3147 38.8116 33.752 42.0383 33.752C45.2649 33.752 46.8783 32.3147 46.8783 29.44L46.8783 9.2L53.9183 9.2L53.9183 30.056C53.9183 33.312 52.8036 35.8787 50.5743 37.756C48.3156 39.6627 45.4703 40.616 42.0383 40.616C38.6063 40.616 35.7609 39.6627 33.5023 37.756C31.2729 35.8787 30.1583 33.312 30.1583 30.056ZM58.9955 9.2L70.6555 9.2C73.7061 9.2 76.2581 10.2267 78.3115 12.28C80.3941 14.3627 81.4355 16.856 81.4355 19.76C81.4355 22.664 80.3941 25.1573 78.3115 27.24C76.2581 29.2933 73.7061 30.32 70.6555 30.32L66.0355 30.32L66.0355 40L58.9955 40L58.9955 9.2ZM66.0355 23.72L70.6555 23.72C71.7408 23.72 72.6355 23.3387 73.3395 22.576C74.0435 21.8133 74.3955 20.8747 74.3955 19.76C74.3955 18.6453 74.0435 17.7067 73.3395 16.944C72.6355 16.1813 71.7408 15.8 70.6555 15.8L66.0355 15.8L66.0355 23.72ZM84.9486 9.2L96.6086 9.2C99.6593 9.2 102.211 10.2267 104.265 12.28C106.347 14.3627 107.389 16.856 107.389 19.76C107.389 22.664 106.347 25.1573 104.265 27.24C102.211 29.2933 99.6593 30.32 96.6086 30.32L91.9886 30.32L91.9886 40L84.9486 40L84.9486 9.2ZM91.9886 23.72L96.6086 23.72C97.6939 23.72 98.5886 23.3387 99.2926 22.576C99.9966 21.8133 100.349 20.8747 100.349 19.76C100.349 18.6453 99.9966 17.7067 99.2926 16.944C98.5886 16.1813 97.6939 15.8 96.6086 15.8L91.9886 15.8L91.9886 23.72ZM136.735 35.996C133.626 39.076 129.842 40.616 125.383 40.616C120.924 40.616 117.14 39.076 114.031 35.996C110.922 32.916 109.367 29.1173 109.367 24.6C109.367 20.0827 110.922 16.284 114.031 13.204C117.14 10.124 120.924 8.584 125.383 8.584C129.842 8.584 133.626 10.124 136.735 13.204C139.844 16.284 141.399 20.0827 141.399 24.6C141.399 29.1173 139.844 32.916 136.735 35.996ZM116.407 24.6C116.407 27.2987 117.258 29.4987 118.959 31.2C120.66 32.9013 122.802 33.752 125.383 33.752C127.935 33.752 130.062 32.9013 131.763 31.2C133.494 29.4693 134.359 27.2693 134.359 24.6C134.359 21.9307 133.494 19.7307 131.763 18C130.062 16.2987 127.935 15.448 125.383 15.448C122.802 15.448 120.66 16.2987 118.959 18C117.258 19.7013 116.407 21.9013 116.407 24.6ZM169.123 40L161.555 40L155.747 29.88L152.403 29.88L152.403 40L145.363 40L145.363 9.2L157.683 9.2C160.616 9.2 163.109 10.2267 165.163 12.28C167.216 14.3333 168.243 16.8267 168.243 19.76C168.243 21.608 167.715 23.3387 166.659 24.952C165.632 26.5653 164.268 27.812 162.567 28.692L169.123 40ZM157.683 15.8L152.403 15.8L152.403 23.72L157.683 23.72C158.651 23.72 159.472 23.3387 160.147 22.576C160.851 21.8133 161.203 20.8747 161.203 19.76C161.203 18.6453 160.851 17.7067 160.147 16.944C159.472 16.1813 158.651 15.8 157.683 15.8ZM169.588 9.2L192.468 9.2L192.468 15.976L184.548 15.976L184.548 40L177.508 40L177.508 15.976L169.588 15.976L169.588 9.2ZM4.42 85.056L4.42 64.2L11.46 64.2L11.46 84.44C11.46 87.3147 13.0733 88.752 16.3 88.752C19.5267 88.752 21.14 87.3147 21.14 84.44L21.14 64.2L28.18 64.2L28.18 85.056C28.18 88.312 27.0653 90.8787 24.836 92.756C22.5773 94.6627 19.732 95.616 16.3 95.616C12.868 95.616 10.0227 94.6627 7.764 92.756C5.53467 90.8787 4.42 88.312 4.42 85.056ZM47.3372 79.204L58.1612 95L50.1532 95L40.2972 80.744L40.2972 95L33.2572 95L33.2572 64.2L40.2972 64.2L40.2972 77.576L49.7132 64.2L57.7212 64.2L47.3372 79.204ZM84.5602 95L76.9922 95L71.1842 84.88L67.8402 84.88L67.8402 95L60.8002 95L60.8002 64.2L73.1202 64.2C76.0535 64.2 78.5468 65.2267 80.6002 67.28C82.6535 69.3333 83.6802 71.8267 83.6802 74.76C83.6802 76.608 83.1522 78.3387 82.0962 79.952C81.0695 81.5653 79.7055 82.812 78.0042 83.692L84.5602 95ZM73.1202 70.8L67.8402 70.8L67.8402 78.72L73.1202 78.72C74.0882 78.72 74.9095 78.3387 75.5842 77.576C76.2882 76.8133 76.6402 75.8747 76.6402 74.76C76.6402 73.6453 76.2882 72.7067 75.5842 71.944C74.9095 71.1813 74.0882 70.8 73.1202 70.8ZM115.15 95L107.45 95L105.91 90.16L94.4705 90.16L92.9305 95L85.2305 95L95.7025 64.2L104.678 64.2L115.15 95ZM100.19 72.252L96.5825 83.56L103.798 83.56L100.19 72.252ZM117.777 95L117.777 64.2L124.817 64.2L124.817 95L117.777 95ZM147.269 80.92L147.269 64.2L154.309 64.2L154.309 95L149.029 95L137.149 78.28L137.149 95L130.109 95L130.109 64.2L135.389 64.2L147.269 80.92ZM166.625 82.768L166.625 88.224L178.945 88.224L178.945 95L159.585 95L159.585 64.2L178.725 64.2L178.725 70.976L166.625 70.976L166.625 76.08L177.625 76.08L177.625 82.768L166.625 82.768Z" fill="white"/>
<circle cx="125.5" cy="24.5" r="10.5" fill="#0057B7"/>
</svg>
