<svg xmlns="http://www.w3.org/2000/svg" viewBox="0 0 30 34"><path fill-rule="evenodd" d="M22.1 5.333h-.433a5 5 0 0 0-5-5h-3.334a5 5 0 0 0-5 5H1.667a1.667 1.667 0 1 0 0 3.334h1.666v20a5 5 0 0 0 5 5h13.334a5 5 0 0 0 5-5v-20h1.666a1.667 1.667 0 1 0 0-3.333H22.1Zm1.233 3.334H6.667v20c0 .92.746 1.666 1.666 1.666h13.334c.92 0 1.666-.746 1.666-1.666v-20ZM11.667 5.334h6.666c0-.921-.746-1.667-1.666-1.667h-3.334c-.92 0-1.666.746-1.666 1.667Zm0 6.666c.92 0 1.666.746 1.666 1.667v11.667a1.667 1.667 0 1 1-3.333 0V13.667c0-.92.746-1.667 1.667-1.667ZM20 13.667a1.667 1.667 0 0 0-3.333 0v11.667a1.667 1.667 0 1 0 3.333 0V13.667Z" clip-rule="evenodd"/></svg>