<svg xmlns="http://www.w3.org/2000/svg" viewBox="0 0 155.385 144.639"><path fill="#f84c0b" d="M108.507 126.1H67.799a.592.592 0 0 1-.476-.943l45.317-61.382a.592.592 0 0 0-.477-.944H96.32A14.989 14.989 0 0 1 84.261 38.94L112.836.24a.592.592 0 0 1 .969.024l41.48 62.221a.59.59 0 0 1-.016.68l-46.287 62.695a.59.59 0 0 1-.475.24"/><path fill="#f84c0b" d="M46.878 18.539h40.708a.592.592 0 0 1 .476.943L42.745 80.864a.592.592 0 0 0 .476.944h15.844A14.989 14.989 0 0 1 71.124 105.7l-28.575 38.699a.592.592 0 0 1-.969-.024L.1 82.154a.59.59 0 0 1 .016-.68l46.286-62.695a.59.59 0 0 1 .476-.24"/></svg>