<?xml version="1.0" standalone="no"?>
<!DOCTYPE svg PUBLIC "-//W3C//DTD SVG 20010904//EN"
 "http://www.w3.org/TR/2001/REC-SVG-20010904/DTD/svg10.dtd">
<svg version="1.0" xmlns="http://www.w3.org/2000/svg"
 width="620.000000pt" height="620.000000pt" viewBox="0 0 620.000000 620.000000"
 preserveAspectRatio="xMidYMid meet">
<metadata>
Created by potrace 1.14, written by Peter Selinger 2001-2017
</metadata>
<g transform="translate(0.000000,620.000000) scale(0.100000,-0.100000)"
fill="#000000" stroke="none">
<path d="M4483 5943 c-15 -21 -31 -42 -36 -48 -9 -12 -31 -41 -219 -295 -79
-107 -164 -222 -188 -255 -24 -33 -47 -61 -52 -63 -4 -2 -8 -8 -8 -13 0 -8
-68 -103 -118 -164 -8 -11 -25 -33 -37 -50 -19 -27 -88 -123 -135 -185 -29
-39 -179 -241 -245 -331 -33 -45 -65 -87 -70 -93 -14 -14 -73 -118 -75 -131
-1 -5 -5 -14 -10 -20 -8 -10 -27 -75 -37 -125 -9 -48 -6 -165 6 -225 18 -82
83 -210 139 -271 46 -50 162 -141 162 -128 0 4 8 1 18 -7 17 -15 98 -43 157
-55 17 -4 191 -8 388 -9 234 -1 361 -5 368 -12 10 -10 -3 -49 -21 -63 -6 -5
-171 -225 -200 -267 -8 -12 -48 -66 -87 -120 -198 -268 -236 -320 -254 -343
-28 -36 -159 -214 -269 -365 -52 -71 -100 -137 -107 -145 -13 -17 -108 -145
-135 -182 -9 -12 -70 -95 -135 -183 -65 -88 -204 -277 -310 -420 -106 -143
-196 -264 -200 -270 -40 -47 -94 -135 -89 -144 5 -8 240 -11 830 -11 l823 0
20 23 c18 20 296 395 383 516 32 44 264 360 310 421 11 14 44 59 74 100 31 41
59 80 63 85 9 11 74 98 145 195 26 36 51 70 56 75 4 6 19 26 32 45 13 19 28
40 32 45 24 31 95 126 108 145 8 12 20 28 25 34 6 6 28 36 50 66 22 30 93 127
158 215 65 88 126 171 135 183 9 13 31 42 48 65 106 142 217 294 221 304 4 9
-42 88 -80 138 -4 6 -26 39 -49 75 -23 36 -45 67 -48 70 -3 3 -21 30 -40 60
-19 30 -37 57 -41 60 -3 3 -8 10 -10 15 -2 6 -53 84 -114 173 -60 90 -118 178
-129 195 -10 18 -22 34 -27 35 -5 2 -9 7 -9 12 0 5 -394 601 -490 740 -6 8
-29 44 -52 80 -23 36 -45 67 -48 70 -3 3 -34 50 -70 105 -36 55 -67 102 -70
105 -3 3 -11 17 -19 33 -8 15 -18 27 -23 27 -4 0 -8 6 -8 13 0 8 -9 22 -20 32
-11 10 -20 21 -20 25 0 4 -19 36 -42 70 -24 34 -48 69 -53 78 -6 9 -24 37 -40
61 -17 24 -35 51 -40 60 -6 9 -24 36 -40 60 -58 85 -65 96 -71 109 -11 22 -32
13 -61 -25z"/>
<path d="M1890 5242 c-30 -4 -48 -22 -124 -127 -124 -168 -347 -471 -394 -533
-11 -15 -87 -117 -168 -227 -81 -110 -180 -245 -221 -300 -41 -55 -81 -109
-88 -120 -31 -42 -156 -211 -174 -235 -11 -14 -42 -56 -70 -95 -28 -38 -59
-81 -70 -95 -83 -109 -121 -162 -121 -170 0 -4 -4 -10 -8 -12 -4 -1 -21 -21
-37 -43 -17 -22 -34 -44 -38 -50 -4 -5 -64 -86 -133 -180 -68 -93 -131 -178
-138 -187 -8 -9 -23 -29 -33 -45 -10 -15 -24 -34 -31 -42 -30 -31 -42 -59 -35
-77 11 -26 286 -438 296 -442 4 -2 7 -8 7 -12 0 -11 142 -224 153 -228 4 -2 7
-8 7 -12 0 -8 127 -200 150 -227 5 -7 10 -14 10 -16 0 -3 19 -33 43 -67 23
-34 47 -69 52 -78 34 -57 151 -228 157 -230 4 -2 8 -7 8 -12 0 -7 186 -289
208 -315 5 -6 11 -15 13 -21 8 -19 144 -219 152 -222 4 -2 7 -7 7 -12 0 -4 19
-36 43 -70 23 -34 47 -69 52 -78 6 -9 42 -63 80 -120 39 -57 84 -125 100 -150
91 -141 120 -182 131 -182 10 0 84 91 159 196 11 15 30 40 43 55 12 15 22 31
22 37 0 6 4 12 8 14 4 2 40 46 78 98 39 52 124 167 189 255 65 88 163 221 217
295 282 381 384 520 398 540 8 12 25 34 38 48 33 38 98 177 113 242 59 258
-77 543 -315 659 -130 63 -142 64 -545 66 -335 1 -366 3 -375 19 -9 13 -7 20
7 30 9 7 17 16 17 20 0 4 6 13 13 20 6 8 19 24 27 36 8 12 39 54 68 94 29 39
61 81 70 94 28 38 92 125 112 152 10 14 49 66 85 115 36 50 74 101 85 115 23
30 109 148 214 290 42 58 82 112 89 120 7 8 55 74 107 145 52 72 103 139 112
149 10 11 18 23 18 27 0 4 6 14 13 21 29 30 77 97 77 106 0 6 4 12 8 14 5 2
57 68 115 148 59 80 110 150 115 155 4 6 57 78 117 160 60 83 112 152 115 155
3 3 41 55 85 115 43 61 84 115 92 121 7 6 13 16 13 21 0 5 9 18 20 28 11 10
20 24 20 31 0 16 -61 34 -76 23 -6 -5 -13 -7 -16 -4 -8 8 -118 11 -118 3 0 -4
-6 -5 -13 -3 -20 8 -177 11 -177 3 0 -4 -6 -5 -14 -2 -21 8 -106 10 -106 2 0
-4 -12 -3 -27 1 -16 4 -40 4 -55 0 -16 -4 -28 -4 -28 -1 0 4 -19 6 -42 4 -24
-1 -50 -3 -58 -2 -8 0 -35 0 -60 1 -25 0 -49 0 -55 -1 -5 -1 -14 -1 -20 0 -8
1 -38 1 -100 -1 -5 0 -36 1 -67 2 -32 2 -60 0 -63 -3 -3 -3 -23 -2 -45 2 -21
4 -44 4 -51 -1 -7 -4 -17 -5 -23 -2 -9 6 -97 7 -121 3 -6 -1 -13 -1 -17 0 -18
4 -79 3 -84 -3 -3 -3 -12 -3 -19 -1 -16 7 -140 10 -175 6z"/>
</g>
</svg>
