<svg  viewBox="0 0 20 20"  xmlns="http://www.w3.org/2000/svg">
<path fill-rule="evenodd" clip-rule="evenodd" d="M2 0C0.895431 0 0 0.89543 0 2V3V6C0 7.10457 0.895431 8 2 8H6C7.10457 8 8 7.10457 8 6V2C8 0.895431 7.10457 0 6 0H2ZM2 2H6V6H2V3V2ZM12 0C10.8954 0 10 0.89543 10 2V3V6C10 7.10457 10.8954 8 12 8H16C17.1046 8 18 7.10457 18 6V2C18 0.895431 17.1046 0 16 0H12ZM12 2H16V6H12V3V2ZM10 12C10 10.8954 10.8954 10 12 10H16C17.1046 10 18 10.8954 18 12V16C18 17.1046 17.1046 18 16 18H12C10.8954 18 10 17.1046 10 16V13V12ZM16 12H12V13V16H16V12ZM2 10C0.895431 10 0 10.8954 0 12V13V16C0 17.1046 0.895431 18 2 18H6C7.10457 18 8 17.1046 8 16V12C8 10.8954 7.10457 10 6 10H2ZM2 12H6V16H2V13V12Z" />
</svg>
