<svg  viewBox="0 0 20 20" xmlns="http://www.w3.org/2000/svg">
<path fill-rule="evenodd" clip-rule="evenodd" d="M5.00012 18.9998C5.00012 19.552 5.44784 19.9998 6.00012 19.9998C6.55241 19.9998 7.00012 19.552 7.00012 18.9998L7.00012 14.9998L13.0001 14.9998L13.0001 18.9998C13.0001 19.552 13.4478 19.9998 14.0001 19.9998C14.5524 19.9998 15.0001 19.552 15.0001 18.9998L15.0001 14.9998L19.0001 14.9998C19.5524 14.9998 20.0001 14.552 20.0001 13.9998C20.0001 13.4475 19.5524 12.9998 19.0001 12.9998L15.0001 12.9998L15.0001 6.99976L19.0001 6.99976C19.5524 6.99976 20.0001 6.55204 20.0001 5.99976C20.0001 5.44747 19.5524 4.99976 19.0001 4.99976L15.0001 4.99976L15.0001 0.999756C15.0001 0.447472 14.5524 -0.000244141 14.0001 -0.000244141C13.4478 -0.000244141 13.0001 0.447472 13.0001 0.999756L13.0001 4.99976L7.00012 4.99976L7.00012 0.999756C7.00012 0.447472 6.5524 -0.000244141 6.00012 -0.000244141C5.44783 -0.000244141 5.00012 0.447472 5.00012 0.999756L5.00012 4.99976L1.00012 4.99976C0.447838 4.99976 0.00012207 5.44747 0.00012207 5.99976C0.00012207 6.55204 0.447838 6.99976 1.00012 6.99976L5.00012 6.99976L5.00012 12.9998L1.00012 12.9998C0.447838 12.9998 0.00012207 13.4475 0.00012207 13.9998C0.00012207 14.552 0.447838 14.9998 1.00012 14.9998L5.00012 14.9998L5.00012 18.9998ZM7.00012 6.99976L7.00012 12.9998L13.0001 12.9998L13.0001 6.99976L7.00012 6.99976Z" />
</svg>
