<svg  viewBox="0 0 20 20" xmlns="http://www.w3.org/2000/svg">
<path fill-rule="evenodd" clip-rule="evenodd" d="M2.50012 -0.000244141C1.11941 -0.000244141 0.00012207 1.11904 0.00012207 2.49976V4.99976C0.00012207 5.55204 0.447837 5.99976 1.00012 5.99976C1.55241 5.99976 2.00012 5.55204 2.00012 4.99976V2.49976C2.00012 2.22361 2.22398 1.99976 2.50012 1.99976H5.00012C5.55241 1.99976 6.00012 1.55204 6.00012 0.999756C6.00012 0.447471 5.55241 -0.000244141 5.00012 -0.000244141H2.50012ZM17.5001 -0.000244141C18.8808 -0.000244141 20.0001 1.11904 20.0001 2.49976V4.99976C20.0001 5.55204 19.5524 5.99976 19.0001 5.99976C18.4478 5.99976 18.0001 5.55204 18.0001 4.99976V2.49976C18.0001 2.22361 17.7763 1.99976 17.5001 1.99976H15.0001C14.4478 1.99976 14.0001 1.55204 14.0001 0.999756C14.0001 0.447471 14.4478 -0.000244141 15.0001 -0.000244141H17.5001ZM0.00012207 17.4998C0.00012207 18.8805 1.11941 19.9998 2.50012 19.9998H5.00012C5.55241 19.9998 6.00012 19.552 6.00012 18.9998C6.00012 18.4475 5.55241 17.9998 5.00012 17.9998H2.50012C2.22398 17.9998 2.00012 17.7759 2.00012 17.4998V14.9998C2.00012 14.4475 1.55241 13.9998 1.00012 13.9998C0.447837 13.9998 0.00012207 14.4475 0.00012207 14.9998V17.4998ZM17.5001 19.9998C18.8808 19.9998 20.0001 18.8805 20.0001 17.4998V14.9998C20.0001 14.4475 19.5524 13.9998 19.0001 13.9998C18.4478 13.9998 18.0001 14.4475 18.0001 14.9998V17.4998C18.0001 17.7759 17.7763 17.9998 17.5001 17.9998H15.0001C14.4478 17.9998 14.0001 18.4475 14.0001 18.9998C14.0001 19.552 14.4478 19.9998 15.0001 19.9998H17.5001Z"/>
</svg>
