<svg  viewBox="0 0 20 20"  xmlns="http://www.w3.org/2000/svg">
<path fill-rule="evenodd" clip-rule="evenodd" d="M3 -0.000244141C1.34315 -0.000244141 0 1.35894 0 3.03559V13.9281C0 15.078 0.642006 16.1292 1.65836 16.6434L7.65836 19.6793C8.50294 20.1066 9.49706 20.1066 10.3416 19.6793L16.3416 16.6434C17.358 16.1292 18 15.078 18 13.9281V3.03559C18 1.35894 16.6569 -0.000244141 15 -0.000244141H3ZM2 3.03559C2 2.47671 2.44772 2.02364 3 2.02364H15C15.5523 2.02364 16 2.47671 16 3.03559V13.9281C16 14.3114 15.786 14.6618 15.4472 14.8332L9.44721 17.869C9.16569 18.0115 8.83431 18.0115 8.55279 17.869L2.55279 14.8332C2.214 14.6618 2 14.3114 2 13.9281V3.03559ZM12.308 7.67958C12.6334 7.228 12.5355 6.59499 12.0892 6.26571C11.643 5.93643 11.0174 6.03558 10.692 6.48716L8.55065 9.45899L7.78409 8.47914C7.44128 8.04095 6.81235 7.96695 6.37934 8.31384C5.94632 8.66074 5.87319 9.29718 6.21599 9.73537L7.79933 11.7593C7.99332 12.0072 8.29071 12.1492 8.60317 12.1429C8.91564 12.1366 9.20725 11.9829 9.39138 11.7274L12.308 7.67958Z" />
</svg>
