<svg viewBox="0 0 20 20" xmlns="http://www.w3.org/2000/svg">
<path fill-rule="evenodd" clip-rule="evenodd" d="M20 3V15C20 16.6569 18.6569 18 17 18H3C1.34314 18 0 16.6569 0 15L2.38419e-07 9L4.76837e-07 5.5L5.96046e-07 3.00001C5.96046e-07 1.34315 1.34314 9.05991e-06 2.99999 5.96047e-06L6 0L10 4.76837e-07L17 7.15256e-07C18.6569 7.15256e-07 20 1.34315 20 3ZM18 3C18 2.44772 17.5523 2 17 2L10 2H6L3 2.00001C2.44771 2.00001 2 2.44772 2 3.00001V5.5V9L2 15C2 15.5523 2.44771 16 3 16H17C17.5523 16 18 15.5523 18 15V3ZM3 4.24999C3 3.55964 3.55965 2.99999 4.25 2.99999C4.94036 2.99999 5.5 3.55964 5.5 4.24999C5.5 4.94035 4.94036 5.49999 4.25 5.49999C3.55965 5.49999 3 4.94035 3 4.24999ZM8.25 2.99999C7.55965 2.99999 7 3.55964 7 4.24999C7 4.94035 7.55965 5.49999 8.25 5.49999C8.94036 5.49999 9.5 4.94035 9.5 4.24999C9.5 3.55964 8.94036 2.99999 8.25 2.99999Z"/>
</svg>
